<svg xmlns="http://www.w3.org/2000/svg" width="430" height="365" viewBox="0 0 430 365">
  <g fill="none" fill-rule="evenodd">
    <rect width="197" height="134" x="17" y="42" fill="#F7F7F7" fill-rule="nonzero"/>
    <rect width="197" height="134" x="17" y="217" fill="#F7F7F7" fill-rule="nonzero"/>
    <rect width="197" height="134" x="222" y="42" fill="#F7F7F7" fill-rule="nonzero"/>
    <rect width="197" height="134" x="222" y="217" fill="#F7F7F7" fill-rule="nonzero"/>
    <g fill="#9B9B9B" fill-rule="nonzero" transform="translate(30 48)">
      <path d="M54.7414806 25.8783064L43.6251469 25.8783064C43.9482961 25.1628758 44.2068155 24.3824061 44.4007051 23.5368972L52.027027 22.8214666C52.2209166 22.8214666 52.3501763 22.6263492 52.2855464 22.4962709 52.2855464 22.3011535 52.0916569 22.1710752 51.9623972 22.2361143L44.5945946 22.9515449C44.7238543 22.2361143 44.7884841 21.5206837 44.7884841 20.8052532 44.7884841 18.0736091 44.0775558 15.5370825 42.8495887 13.2607125L44.5299647.643118543C44.5945946.187844535 44.2068155-.137351185 43.8190364.0577662473L31.9271445 5.06578033C30.5699177 4.74058461 29.0834313 4.54546718 27.5969448 4.54546718 26.1104583 4.54546718 24.6239718 4.74058461 23.266745 5.06578033L11.3748531.0577662473C10.987074-.137351185 10.5992949.252883679 10.6639248.643118543L12.3443008 13.2607125C11.1163337 15.5370825 10.4054054 18.0736091 10.4054054 20.8052532 10.4054054 21.5206837 10.4700353 22.2361143 10.5992949 22.9515449L3.10223267 22.1710752C2.90834313 22.1710752 2.77908343 22.3011535 2.77908343 22.4312318 2.77908343 22.6263492 2.90834313 22.7564275 3.03760282 22.7564275L10.6639248 23.5368972C10.8578143 24.3173669 11.1163337 25.0978367 11.439483 25.8132672L.323149236 25.8132672C.129259694 25.8132672 0 25.9433455 0 26.138463 0 26.3335804.129259694 26.4636587.323149236 26.4636587L11.7626322 26.4636587C12.1504113 27.1790893 12.5381904 27.8945198 12.9905993 28.5449113L3.03760282 29.5855376C2.84371328 29.5855376 2.71445358 29.780655 2.77908343 29.9107333 2.77908343 30.1058507 2.90834313 30.235929 3.10223267 30.235929 3.10223267 30.235929 3.10223267 30.235929 3.10223267 30.235929L13.4430082 29.1953027C13.4430082 29.1953027 13.4430082 29.1953027 13.4430082 29.1953027 13.4430082 29.1953027 13.4430082 29.1953027 13.4430082 29.1953027 17.0622797 33.8781211 23.1374853 37 27.4676851 37 32.1856639 37 38.1316099 33.8781211 41.6216216 29.1953027L51.8977673 30.1708899C51.8977673 30.1708899 51.8977673 30.1708899 51.8977673 30.1708899 52.0916569 30.1708899 52.2209166 30.0408116 52.2209166 29.8456942 52.2209166 29.6505767 52.0916569 29.5204984 51.9623972 29.5204984L42.0740306 28.5449113C42.5264395 27.8945198 42.9142186 27.1790893 43.3019976 26.4636587L54.6768508 26.4636587C54.8707403 26.4636587 55 26.3335804 55 26.138463 55 25.9433455 54.8707403 25.8783064 54.7414806 25.8783064zM109.741481 25.8783064L98.6251469 25.8783064C98.9482961 25.1628758 99.2068155 24.3824061 99.4007051 23.5368972L107.027027 22.8214666C107.220917 22.8214666 107.350176 22.6263492 107.285546 22.4962709 107.285546 22.3011535 107.091657 22.1710752 106.962397 22.2361143L99.5945946 22.9515449C99.7238543 22.2361143 99.7884841 21.5206837 99.7884841 20.8052532 99.7884841 18.0736091 99.0775558 15.5370825 97.8495887 13.2607125L99.5299647.643118543C99.5945946.187844535 99.2068155-.137351185 98.8190364.0577662473L86.9271445 5.06578033C85.5699177 4.74058461 84.0834313 4.54546718 82.5969448 4.54546718 81.1104583 4.54546718 79.6239718 4.74058461 78.266745 5.06578033L66.3748531.0577662473C65.987074-.137351185 65.5992949.252883679 65.6639248.643118543L67.3443008 13.2607125C66.1163337 15.5370825 65.4054054 18.0736091 65.4054054 20.8052532 65.4054054 21.5206837 65.4700353 22.2361143 65.5992949 22.9515449L58.1022327 22.1710752C57.9083431 22.1710752 57.7790834 22.3011535 57.7790834 22.4312318 57.7790834 22.6263492 57.9083431 22.7564275 58.0376028 22.7564275L65.6639248 23.5368972C65.8578143 24.3173669 66.1163337 25.0978367 66.439483 25.8132672L55.3231492 25.8132672C55.1292597 25.8132672 55 25.9433455 55 26.138463 55 26.3335804 55.1292597 26.4636587 55.3231492 26.4636587L66.7626322 26.4636587C67.1504113 27.1790893 67.5381904 27.8945198 67.9905993 28.5449113L58.0376028 29.5855376C57.8437133 29.5855376 57.7144536 29.780655 57.7790834 29.9107333 57.7790834 30.1058507 57.9083431 30.235929 58.1022327 30.235929 58.1022327 30.235929 58.1022327 30.235929 58.1022327 30.235929L68.4430082 29.1953027C68.4430082 29.1953027 68.4430082 29.1953027 68.4430082 29.1953027 68.4430082 29.1953027 68.4430082 29.1953027 68.4430082 29.1953027 72.0622797 33.8781211 78.1374853 37 82.4676851 37 87.1856639 37 93.1316099 33.8781211 96.6216216 29.1953027L106.897767 30.1708899C106.897767 30.1708899 106.897767 30.1708899 106.897767 30.1708899 107.091657 30.1708899 107.220917 30.0408116 107.220917 29.8456942 107.220917 29.6505767 107.091657 29.5204984 106.962397 29.5204984L97.0740306 28.5449113C97.5264395 27.8945198 97.9142186 27.1790893 98.3019976 26.4636587L109.676851 26.4636587C109.87074 26.4636587 110 26.3335804 110 26.138463 110 25.9433455 109.87074 25.8783064 109.741481 25.8783064z"/>
      <path d="M163.741481,25.8783064 L152.625147,25.8783064 C152.948296,25.1628758 153.206816,24.3824061 153.400705,23.5368972 L161.027027,22.8214666 C161.220917,22.8214666 161.350176,22.6263492 161.285546,22.4962709 C161.285546,22.3011535 161.091657,22.1710752 160.962397,22.2361143 L153.594595,22.9515449 C153.723854,22.2361143 153.788484,21.5206837 153.788484,20.8052532 C153.788484,18.0736091 153.077556,15.5370825 151.849589,13.2607125 L153.529965,0.643118543 C153.594595,0.187844535 153.206816,-0.137351185 152.819036,0.0577662473 L140.927145,5.06578033 C139.569918,4.74058461 138.083431,4.54546718 136.596945,4.54546718 C135.110458,4.54546718 133.623972,4.74058461 132.266745,5.06578033 L120.374853,0.0577662473 C119.987074,-0.137351185 119.599295,0.252883679 119.663925,0.643118543 L121.344301,13.2607125 C120.116334,15.5370825 119.405405,18.0736091 119.405405,20.8052532 C119.405405,21.5206837 119.470035,22.2361143 119.599295,22.9515449 L112.102233,22.1710752 C111.908343,22.1710752 111.779083,22.3011535 111.779083,22.4312318 C111.779083,22.6263492 111.908343,22.7564275 112.037603,22.7564275 L119.663925,23.5368972 C119.857814,24.3173669 120.116334,25.0978367 120.439483,25.8132672 L109.323149,25.8132672 C109.12926,25.8132672 109,25.9433455 109,26.138463 C109,26.3335804 109.12926,26.4636587 109.323149,26.4636587 L120.762632,26.4636587 C121.150411,27.1790893 121.53819,27.8945198 121.990599,28.5449113 L112.037603,29.5855376 C111.843713,29.5855376 111.714454,29.780655 111.779083,29.9107333 C111.779083,30.1058507 111.908343,30.235929 112.102233,30.235929 C112.102233,30.235929 112.102233,30.235929 112.102233,30.235929 L122.443008,29.1953027 C122.443008,29.1953027 122.443008,29.1953027 122.443008,29.1953027 C122.443008,29.1953027 122.443008,29.1953027 122.443008,29.1953027 C126.06228,33.8781211 132.137485,37 136.467685,37 C141.185664,37 147.13161,33.8781211 150.621622,29.1953027 L160.897767,30.1708899 C160.897767,30.1708899 160.897767,30.1708899 160.897767,30.1708899 C161.091657,30.1708899 161.220917,30.0408116 161.220917,29.8456942 C161.220917,29.6505767 161.091657,29.5204984 160.962397,29.5204984 L151.074031,28.5449113 C151.526439,27.8945198 151.914219,27.1790893 152.301998,26.4636587 L163.676851,26.4636587 C163.87074,26.4636587 164,26.3335804 164,26.138463 C164,25.9433455 163.87074,25.8783064 163.741481,25.8783064 Z"/>
    </g>
    <g fill="#9B9B9B" fill-rule="nonzero" transform="translate(30 306)">
      <path d="M54.7414806 25.8783064L43.6251469 25.8783064C43.9482961 25.1628758 44.2068155 24.3824061 44.4007051 23.5368972L52.027027 22.8214666C52.2209166 22.8214666 52.3501763 22.6263492 52.2855464 22.4962709 52.2855464 22.3011535 52.0916569 22.1710752 51.9623972 22.2361143L44.5945946 22.9515449C44.7238543 22.2361143 44.7884841 21.5206837 44.7884841 20.8052532 44.7884841 18.0736091 44.0775558 15.5370825 42.8495887 13.2607125L44.5299647.643118543C44.5945946.187844535 44.2068155-.137351185 43.8190364.0577662473L31.9271445 5.06578033C30.5699177 4.74058461 29.0834313 4.54546718 27.5969448 4.54546718 26.1104583 4.54546718 24.6239718 4.74058461 23.266745 5.06578033L11.3748531.0577662473C10.987074-.137351185 10.5992949.252883679 10.6639248.643118543L12.3443008 13.2607125C11.1163337 15.5370825 10.4054054 18.0736091 10.4054054 20.8052532 10.4054054 21.5206837 10.4700353 22.2361143 10.5992949 22.9515449L3.10223267 22.1710752C2.90834313 22.1710752 2.77908343 22.3011535 2.77908343 22.4312318 2.77908343 22.6263492 2.90834313 22.7564275 3.03760282 22.7564275L10.6639248 23.5368972C10.8578143 24.3173669 11.1163337 25.0978367 11.439483 25.8132672L.323149236 25.8132672C.129259694 25.8132672 0 25.9433455 0 26.138463 0 26.3335804.129259694 26.4636587.323149236 26.4636587L11.7626322 26.4636587C12.1504113 27.1790893 12.5381904 27.8945198 12.9905993 28.5449113L3.03760282 29.5855376C2.84371328 29.5855376 2.71445358 29.780655 2.77908343 29.9107333 2.77908343 30.1058507 2.90834313 30.235929 3.10223267 30.235929 3.10223267 30.235929 3.10223267 30.235929 3.10223267 30.235929L13.4430082 29.1953027C13.4430082 29.1953027 13.4430082 29.1953027 13.4430082 29.1953027 13.4430082 29.1953027 13.4430082 29.1953027 13.4430082 29.1953027 17.0622797 33.8781211 23.1374853 37 27.4676851 37 32.1856639 37 38.1316099 33.8781211 41.6216216 29.1953027L51.8977673 30.1708899C51.8977673 30.1708899 51.8977673 30.1708899 51.8977673 30.1708899 52.0916569 30.1708899 52.2209166 30.0408116 52.2209166 29.8456942 52.2209166 29.6505767 52.0916569 29.5204984 51.9623972 29.5204984L42.0740306 28.5449113C42.5264395 27.8945198 42.9142186 27.1790893 43.3019976 26.4636587L54.6768508 26.4636587C54.8707403 26.4636587 55 26.3335804 55 26.138463 55 25.9433455 54.8707403 25.8783064 54.7414806 25.8783064zM109.741481 25.8783064L98.6251469 25.8783064C98.9482961 25.1628758 99.2068155 24.3824061 99.4007051 23.5368972L107.027027 22.8214666C107.220917 22.8214666 107.350176 22.6263492 107.285546 22.4962709 107.285546 22.3011535 107.091657 22.1710752 106.962397 22.2361143L99.5945946 22.9515449C99.7238543 22.2361143 99.7884841 21.5206837 99.7884841 20.8052532 99.7884841 18.0736091 99.0775558 15.5370825 97.8495887 13.2607125L99.5299647.643118543C99.5945946.187844535 99.2068155-.137351185 98.8190364.0577662473L86.9271445 5.06578033C85.5699177 4.74058461 84.0834313 4.54546718 82.5969448 4.54546718 81.1104583 4.54546718 79.6239718 4.74058461 78.266745 5.06578033L66.3748531.0577662473C65.987074-.137351185 65.5992949.252883679 65.6639248.643118543L67.3443008 13.2607125C66.1163337 15.5370825 65.4054054 18.0736091 65.4054054 20.8052532 65.4054054 21.5206837 65.4700353 22.2361143 65.5992949 22.9515449L58.1022327 22.1710752C57.9083431 22.1710752 57.7790834 22.3011535 57.7790834 22.4312318 57.7790834 22.6263492 57.9083431 22.7564275 58.0376028 22.7564275L65.6639248 23.5368972C65.8578143 24.3173669 66.1163337 25.0978367 66.439483 25.8132672L55.3231492 25.8132672C55.1292597 25.8132672 55 25.9433455 55 26.138463 55 26.3335804 55.1292597 26.4636587 55.3231492 26.4636587L66.7626322 26.4636587C67.1504113 27.1790893 67.5381904 27.8945198 67.9905993 28.5449113L58.0376028 29.5855376C57.8437133 29.5855376 57.7144536 29.780655 57.7790834 29.9107333 57.7790834 30.1058507 57.9083431 30.235929 58.1022327 30.235929 58.1022327 30.235929 58.1022327 30.235929 58.1022327 30.235929L68.4430082 29.1953027C68.4430082 29.1953027 68.4430082 29.1953027 68.4430082 29.1953027 68.4430082 29.1953027 68.4430082 29.1953027 68.4430082 29.1953027 72.0622797 33.8781211 78.1374853 37 82.4676851 37 87.1856639 37 93.1316099 33.8781211 96.6216216 29.1953027L106.897767 30.1708899C106.897767 30.1708899 106.897767 30.1708899 106.897767 30.1708899 107.091657 30.1708899 107.220917 30.0408116 107.220917 29.8456942 107.220917 29.6505767 107.091657 29.5204984 106.962397 29.5204984L97.0740306 28.5449113C97.5264395 27.8945198 97.9142186 27.1790893 98.3019976 26.4636587L109.676851 26.4636587C109.87074 26.4636587 110 26.3335804 110 26.138463 110 25.9433455 109.87074 25.8783064 109.741481 25.8783064z"/>
      <path d="M163.741481,25.8783064 L152.625147,25.8783064 C152.948296,25.1628758 153.206816,24.3824061 153.400705,23.5368972 L161.027027,22.8214666 C161.220917,22.8214666 161.350176,22.6263492 161.285546,22.4962709 C161.285546,22.3011535 161.091657,22.1710752 160.962397,22.2361143 L153.594595,22.9515449 C153.723854,22.2361143 153.788484,21.5206837 153.788484,20.8052532 C153.788484,18.0736091 153.077556,15.5370825 151.849589,13.2607125 L153.529965,0.643118543 C153.594595,0.187844535 153.206816,-0.137351185 152.819036,0.0577662473 L140.927145,5.06578033 C139.569918,4.74058461 138.083431,4.54546718 136.596945,4.54546718 C135.110458,4.54546718 133.623972,4.74058461 132.266745,5.06578033 L120.374853,0.0577662473 C119.987074,-0.137351185 119.599295,0.252883679 119.663925,0.643118543 L121.344301,13.2607125 C120.116334,15.5370825 119.405405,18.0736091 119.405405,20.8052532 C119.405405,21.5206837 119.470035,22.2361143 119.599295,22.9515449 L112.102233,22.1710752 C111.908343,22.1710752 111.779083,22.3011535 111.779083,22.4312318 C111.779083,22.6263492 111.908343,22.7564275 112.037603,22.7564275 L119.663925,23.5368972 C119.857814,24.3173669 120.116334,25.0978367 120.439483,25.8132672 L109.323149,25.8132672 C109.12926,25.8132672 109,25.9433455 109,26.138463 C109,26.3335804 109.12926,26.4636587 109.323149,26.4636587 L120.762632,26.4636587 C121.150411,27.1790893 121.53819,27.8945198 121.990599,28.5449113 L112.037603,29.5855376 C111.843713,29.5855376 111.714454,29.780655 111.779083,29.9107333 C111.779083,30.1058507 111.908343,30.235929 112.102233,30.235929 C112.102233,30.235929 112.102233,30.235929 112.102233,30.235929 L122.443008,29.1953027 C122.443008,29.1953027 122.443008,29.1953027 122.443008,29.1953027 C122.443008,29.1953027 122.443008,29.1953027 122.443008,29.1953027 C126.06228,33.8781211 132.137485,37 136.467685,37 C141.185664,37 147.13161,33.8781211 150.621622,29.1953027 L160.897767,30.1708899 C160.897767,30.1708899 160.897767,30.1708899 160.897767,30.1708899 C161.091657,30.1708899 161.220917,30.0408116 161.220917,29.8456942 C161.220917,29.6505767 161.091657,29.5204984 160.962397,29.5204984 L151.074031,28.5449113 C151.526439,27.8945198 151.914219,27.1790893 152.301998,26.4636587 L163.676851,26.4636587 C163.87074,26.4636587 164,26.3335804 164,26.138463 C164,25.9433455 163.87074,25.8783064 163.741481,25.8783064 Z"/>
    </g>
    <g fill="#9B9B9B" fill-rule="nonzero" transform="translate(239 91)">
      <path d="M54.7414806 25.8783064L43.6251469 25.8783064C43.9482961 25.1628758 44.2068155 24.3824061 44.4007051 23.5368972L52.027027 22.8214666C52.2209166 22.8214666 52.3501763 22.6263492 52.2855464 22.4962709 52.2855464 22.3011535 52.0916569 22.1710752 51.9623972 22.2361143L44.5945946 22.9515449C44.7238543 22.2361143 44.7884841 21.5206837 44.7884841 20.8052532 44.7884841 18.0736091 44.0775558 15.5370825 42.8495887 13.2607125L44.5299647.643118543C44.5945946.187844535 44.2068155-.137351185 43.8190364.0577662473L31.9271445 5.06578033C30.5699177 4.74058461 29.0834313 4.54546718 27.5969448 4.54546718 26.1104583 4.54546718 24.6239718 4.74058461 23.266745 5.06578033L11.3748531.0577662473C10.987074-.137351185 10.5992949.252883679 10.6639248.643118543L12.3443008 13.2607125C11.1163337 15.5370825 10.4054054 18.0736091 10.4054054 20.8052532 10.4054054 21.5206837 10.4700353 22.2361143 10.5992949 22.9515449L3.10223267 22.1710752C2.90834313 22.1710752 2.77908343 22.3011535 2.77908343 22.4312318 2.77908343 22.6263492 2.90834313 22.7564275 3.03760282 22.7564275L10.6639248 23.5368972C10.8578143 24.3173669 11.1163337 25.0978367 11.439483 25.8132672L.323149236 25.8132672C.129259694 25.8132672 0 25.9433455 0 26.138463 0 26.3335804.129259694 26.4636587.323149236 26.4636587L11.7626322 26.4636587C12.1504113 27.1790893 12.5381904 27.8945198 12.9905993 28.5449113L3.03760282 29.5855376C2.84371328 29.5855376 2.71445358 29.780655 2.77908343 29.9107333 2.77908343 30.1058507 2.90834313 30.235929 3.10223267 30.235929 3.10223267 30.235929 3.10223267 30.235929 3.10223267 30.235929L13.4430082 29.1953027C13.4430082 29.1953027 13.4430082 29.1953027 13.4430082 29.1953027 13.4430082 29.1953027 13.4430082 29.1953027 13.4430082 29.1953027 17.0622797 33.8781211 23.1374853 37 27.4676851 37 32.1856639 37 38.1316099 33.8781211 41.6216216 29.1953027L51.8977673 30.1708899C51.8977673 30.1708899 51.8977673 30.1708899 51.8977673 30.1708899 52.0916569 30.1708899 52.2209166 30.0408116 52.2209166 29.8456942 52.2209166 29.6505767 52.0916569 29.5204984 51.9623972 29.5204984L42.0740306 28.5449113C42.5264395 27.8945198 42.9142186 27.1790893 43.3019976 26.4636587L54.6768508 26.4636587C54.8707403 26.4636587 55 26.3335804 55 26.138463 55 25.9433455 54.8707403 25.8783064 54.7414806 25.8783064zM109.741481 25.8783064L98.6251469 25.8783064C98.9482961 25.1628758 99.2068155 24.3824061 99.4007051 23.5368972L107.027027 22.8214666C107.220917 22.8214666 107.350176 22.6263492 107.285546 22.4962709 107.285546 22.3011535 107.091657 22.1710752 106.962397 22.2361143L99.5945946 22.9515449C99.7238543 22.2361143 99.7884841 21.5206837 99.7884841 20.8052532 99.7884841 18.0736091 99.0775558 15.5370825 97.8495887 13.2607125L99.5299647.643118543C99.5945946.187844535 99.2068155-.137351185 98.8190364.0577662473L86.9271445 5.06578033C85.5699177 4.74058461 84.0834313 4.54546718 82.5969448 4.54546718 81.1104583 4.54546718 79.6239718 4.74058461 78.266745 5.06578033L66.3748531.0577662473C65.987074-.137351185 65.5992949.252883679 65.6639248.643118543L67.3443008 13.2607125C66.1163337 15.5370825 65.4054054 18.0736091 65.4054054 20.8052532 65.4054054 21.5206837 65.4700353 22.2361143 65.5992949 22.9515449L58.1022327 22.1710752C57.9083431 22.1710752 57.7790834 22.3011535 57.7790834 22.4312318 57.7790834 22.6263492 57.9083431 22.7564275 58.0376028 22.7564275L65.6639248 23.5368972C65.8578143 24.3173669 66.1163337 25.0978367 66.439483 25.8132672L55.3231492 25.8132672C55.1292597 25.8132672 55 25.9433455 55 26.138463 55 26.3335804 55.1292597 26.4636587 55.3231492 26.4636587L66.7626322 26.4636587C67.1504113 27.1790893 67.5381904 27.8945198 67.9905993 28.5449113L58.0376028 29.5855376C57.8437133 29.5855376 57.7144536 29.780655 57.7790834 29.9107333 57.7790834 30.1058507 57.9083431 30.235929 58.1022327 30.235929 58.1022327 30.235929 58.1022327 30.235929 58.1022327 30.235929L68.4430082 29.1953027C68.4430082 29.1953027 68.4430082 29.1953027 68.4430082 29.1953027 68.4430082 29.1953027 68.4430082 29.1953027 68.4430082 29.1953027 72.0622797 33.8781211 78.1374853 37 82.4676851 37 87.1856639 37 93.1316099 33.8781211 96.6216216 29.1953027L106.897767 30.1708899C106.897767 30.1708899 106.897767 30.1708899 106.897767 30.1708899 107.091657 30.1708899 107.220917 30.0408116 107.220917 29.8456942 107.220917 29.6505767 107.091657 29.5204984 106.962397 29.5204984L97.0740306 28.5449113C97.5264395 27.8945198 97.9142186 27.1790893 98.3019976 26.4636587L109.676851 26.4636587C109.87074 26.4636587 110 26.3335804 110 26.138463 110 25.9433455 109.87074 25.8783064 109.741481 25.8783064z"/>
      <path d="M163.741481,25.8783064 L152.625147,25.8783064 C152.948296,25.1628758 153.206816,24.3824061 153.400705,23.5368972 L161.027027,22.8214666 C161.220917,22.8214666 161.350176,22.6263492 161.285546,22.4962709 C161.285546,22.3011535 161.091657,22.1710752 160.962397,22.2361143 L153.594595,22.9515449 C153.723854,22.2361143 153.788484,21.5206837 153.788484,20.8052532 C153.788484,18.0736091 153.077556,15.5370825 151.849589,13.2607125 L153.529965,0.643118543 C153.594595,0.187844535 153.206816,-0.137351185 152.819036,0.0577662473 L140.927145,5.06578033 C139.569918,4.74058461 138.083431,4.54546718 136.596945,4.54546718 C135.110458,4.54546718 133.623972,4.74058461 132.266745,5.06578033 L120.374853,0.0577662473 C119.987074,-0.137351185 119.599295,0.252883679 119.663925,0.643118543 L121.344301,13.2607125 C120.116334,15.5370825 119.405405,18.0736091 119.405405,20.8052532 C119.405405,21.5206837 119.470035,22.2361143 119.599295,22.9515449 L112.102233,22.1710752 C111.908343,22.1710752 111.779083,22.3011535 111.779083,22.4312318 C111.779083,22.6263492 111.908343,22.7564275 112.037603,22.7564275 L119.663925,23.5368972 C119.857814,24.3173669 120.116334,25.0978367 120.439483,25.8132672 L109.323149,25.8132672 C109.12926,25.8132672 109,25.9433455 109,26.138463 C109,26.3335804 109.12926,26.4636587 109.323149,26.4636587 L120.762632,26.4636587 C121.150411,27.1790893 121.53819,27.8945198 121.990599,28.5449113 L112.037603,29.5855376 C111.843713,29.5855376 111.714454,29.780655 111.779083,29.9107333 C111.779083,30.1058507 111.908343,30.235929 112.102233,30.235929 C112.102233,30.235929 112.102233,30.235929 112.102233,30.235929 L122.443008,29.1953027 C122.443008,29.1953027 122.443008,29.1953027 122.443008,29.1953027 C122.443008,29.1953027 122.443008,29.1953027 122.443008,29.1953027 C126.06228,33.8781211 132.137485,37 136.467685,37 C141.185664,37 147.13161,33.8781211 150.621622,29.1953027 L160.897767,30.1708899 C160.897767,30.1708899 160.897767,30.1708899 160.897767,30.1708899 C161.091657,30.1708899 161.220917,30.0408116 161.220917,29.8456942 C161.220917,29.6505767 161.091657,29.5204984 160.962397,29.5204984 L151.074031,28.5449113 C151.526439,27.8945198 151.914219,27.1790893 152.301998,26.4636587 L163.676851,26.4636587 C163.87074,26.4636587 164,26.3335804 164,26.138463 C164,25.9433455 163.87074,25.8783064 163.741481,25.8783064 Z"/>
    </g>
    <g fill="#9B9B9B" fill-rule="nonzero" transform="translate(239 231)">
      <path d="M54.7414806 78.3343328L43.6251469 78.3343328C43.9482961 76.1687051 44.2068155 73.8062022 44.4007051 71.246824L52.027027 69.0811963C52.2209166 69.0811963 52.3501763 68.4905705 52.2855464 68.09682 52.2855464 67.5061943 52.0916569 67.1124438 51.9623972 67.309319L44.5945946 69.4749468C44.7238543 67.309319 44.7884841 65.1436913 44.7884841 62.9780636 44.7884841 54.7093033 44.0775558 47.0311687 42.8495887 40.140535L44.5299647 1.94673721C44.5945946.568610485 44.2068155-.415765748 43.8190364.174859992L31.9271445 15.334254C30.5699177 14.3498777 29.0834313 13.759252 27.5969448 13.759252 26.1104583 13.759252 24.6239718 14.3498777 23.266745 15.334254L11.3748531.174859992C10.987074-.415765748 10.5992949.765485731 10.6639248 1.94673721L12.3443008 40.140535C11.1163337 47.0311687 10.4054054 54.7093033 10.4054054 62.9780636 10.4054054 65.1436913 10.4700353 67.309319 10.5992949 69.4749468L3.10223267 67.1124438C2.90834313 67.1124438 2.77908343 67.5061943 2.77908343 67.8999448 2.77908343 68.4905705 2.90834313 68.884321 3.03760282 68.884321L10.6639248 71.246824C10.8578143 73.6093269 11.1163337 75.9718299 11.439483 78.1374576L.323149236 78.1374576C.129259694 78.1374576 0 78.5312081 0 79.1218338 0 79.7124596.129259694 80.1062101.323149236 80.1062101L11.7626322 80.1062101C12.1504113 82.2718378 12.5381904 84.4374655 12.9905993 86.406218L3.03760282 89.5562219C2.84371328 89.5562219 2.71445358 90.1468476 2.77908343 90.5405981 2.77908343 91.1312239 2.90834313 91.5249744 3.10223267 91.5249744 3.10223267 91.5249744 3.10223267 91.5249744 3.10223267 91.5249744L13.4430082 88.3749704C13.4430082 88.3749704 13.4430082 88.3749704 13.4430082 88.3749704 13.4430082 88.3749704 13.4430082 88.3749704 13.4430082 88.3749704 17.0622797 102.549988 23.1374853 112 27.4676851 112 32.1856639 112 38.1316099 102.549988 41.6216216 88.3749704L51.8977673 91.3280991C51.8977673 91.3280991 51.8977673 91.3280991 51.8977673 91.3280991 52.0916569 91.3280991 52.2209166 90.9343486 52.2209166 90.3437229 52.2209166 89.7530971 52.0916569 89.3593467 51.9623972 89.3593467L42.0740306 86.406218C42.5264395 84.4374655 42.9142186 82.2718378 43.3019976 80.1062101L54.6768508 80.1062101C54.8707403 80.1062101 55 79.7124596 55 79.1218338 55 78.5312081 54.8707403 78.3343328 54.7414806 78.3343328zM109.741481 78.3343328L98.6251469 78.3343328C98.9482961 76.1687051 99.2068155 73.8062022 99.4007051 71.246824L107.027027 69.0811963C107.220917 69.0811963 107.350176 68.4905705 107.285546 68.09682 107.285546 67.5061943 107.091657 67.1124438 106.962397 67.309319L99.5945946 69.4749468C99.7238543 67.309319 99.7884841 65.1436913 99.7884841 62.9780636 99.7884841 54.7093033 99.0775558 47.0311687 97.8495887 40.140535L99.5299647 1.94673721C99.5945946.568610485 99.2068155-.415765748 98.8190364.174859992L86.9271445 15.334254C85.5699177 14.3498777 84.0834313 13.759252 82.5969448 13.759252 81.1104583 13.759252 79.6239718 14.3498777 78.266745 15.334254L66.3748531.174859992C65.987074-.415765748 65.5992949.765485731 65.6639248 1.94673721L67.3443008 40.140535C66.1163337 47.0311687 65.4054054 54.7093033 65.4054054 62.9780636 65.4054054 65.1436913 65.4700353 67.309319 65.5992949 69.4749468L58.1022327 67.1124438C57.9083431 67.1124438 57.7790834 67.5061943 57.7790834 67.8999448 57.7790834 68.4905705 57.9083431 68.884321 58.0376028 68.884321L65.6639248 71.246824C65.8578143 73.6093269 66.1163337 75.9718299 66.439483 78.1374576L55.3231492 78.1374576C55.1292597 78.1374576 55 78.5312081 55 79.1218338 55 79.7124596 55.1292597 80.1062101 55.3231492 80.1062101L66.7626322 80.1062101C67.1504113 82.2718378 67.5381904 84.4374655 67.9905993 86.406218L58.0376028 89.5562219C57.8437133 89.5562219 57.7144536 90.1468476 57.7790834 90.5405981 57.7790834 91.1312239 57.9083431 91.5249744 58.1022327 91.5249744 58.1022327 91.5249744 58.1022327 91.5249744 58.1022327 91.5249744L68.4430082 88.3749704C68.4430082 88.3749704 68.4430082 88.3749704 68.4430082 88.3749704 68.4430082 88.3749704 68.4430082 88.3749704 68.4430082 88.3749704 72.0622797 102.549988 78.1374853 112 82.4676851 112 87.1856639 112 93.1316099 102.549988 96.6216216 88.3749704L106.897767 91.3280991C106.897767 91.3280991 106.897767 91.3280991 106.897767 91.3280991 107.091657 91.3280991 107.220917 90.9343486 107.220917 90.3437229 107.220917 89.7530971 107.091657 89.3593467 106.962397 89.3593467L97.0740306 86.406218C97.5264395 84.4374655 97.9142186 82.2718378 98.3019976 80.1062101L109.676851 80.1062101C109.87074 80.1062101 110 79.7124596 110 79.1218338 110 78.5312081 109.87074 78.3343328 109.741481 78.3343328z"/>
      <path d="M163.741481,78.3343328 L152.625147,78.3343328 C152.948296,76.1687051 153.206816,73.8062022 153.400705,71.246824 L161.027027,69.0811963 C161.220917,69.0811963 161.350176,68.4905705 161.285546,68.09682 C161.285546,67.5061943 161.091657,67.1124438 160.962397,67.309319 L153.594595,69.4749468 C153.723854,67.309319 153.788484,65.1436913 153.788484,62.9780636 C153.788484,54.7093033 153.077556,47.0311687 151.849589,40.140535 L153.529965,1.94673721 C153.594595,0.568610485 153.206816,-0.415765748 152.819036,0.174859992 L140.927145,15.334254 C139.569918,14.3498777 138.083431,13.759252 136.596945,13.759252 C135.110458,13.759252 133.623972,14.3498777 132.266745,15.334254 L120.374853,0.174859992 C119.987074,-0.415765748 119.599295,0.765485731 119.663925,1.94673721 L121.344301,40.140535 C120.116334,47.0311687 119.405405,54.7093033 119.405405,62.9780636 C119.405405,65.1436913 119.470035,67.309319 119.599295,69.4749468 L112.102233,67.1124438 C111.908343,67.1124438 111.779083,67.5061943 111.779083,67.8999448 C111.779083,68.4905705 111.908343,68.884321 112.037603,68.884321 L119.663925,71.246824 C119.857814,73.6093269 120.116334,75.9718299 120.439483,78.1374576 L109.323149,78.1374576 C109.12926,78.1374576 109,78.5312081 109,79.1218338 C109,79.7124596 109.12926,80.1062101 109.323149,80.1062101 L120.762632,80.1062101 C121.150411,82.2718378 121.53819,84.4374655 121.990599,86.406218 L112.037603,89.5562219 C111.843713,89.5562219 111.714454,90.1468476 111.779083,90.5405981 C111.779083,91.1312239 111.908343,91.5249744 112.102233,91.5249744 C112.102233,91.5249744 112.102233,91.5249744 112.102233,91.5249744 L122.443008,88.3749704 C122.443008,88.3749704 122.443008,88.3749704 122.443008,88.3749704 C122.443008,88.3749704 122.443008,88.3749704 122.443008,88.3749704 C126.06228,102.549988 132.137485,112 136.467685,112 C141.185664,112 147.13161,102.549988 150.621622,88.3749704 L160.897767,91.3280991 C160.897767,91.3280991 160.897767,91.3280991 160.897767,91.3280991 C161.091657,91.3280991 161.220917,90.9343486 161.220917,90.3437229 C161.220917,89.7530971 161.091657,89.3593467 160.962397,89.3593467 L151.074031,86.406218 C151.526439,84.4374655 151.914219,82.2718378 152.301998,80.1062101 L163.676851,80.1062101 C163.87074,80.1062101 164,79.7124596 164,79.1218338 C164,78.5312081 163.87074,78.3343328 163.741481,78.3343328 Z"/>
    </g>
    <text fill="#4A4A4A" font-family="Montserrat-Regular, Montserrat" font-size="24">
      <tspan x="17" y="36">flex-start</tspan>
    </text>
    <text fill="#4A4A4A" font-family="Montserrat-Regular, Montserrat" font-size="24">
      <tspan x="17" y="211">flex-end</tspan>
    </text>
    <text fill="#4A4A4A" font-family="Montserrat-Regular, Montserrat" font-size="24">
      <tspan x="222" y="36">center</tspan>
    </text>
    <text fill="#4A4A4A" font-family="Montserrat-Regular, Montserrat" font-size="24">
      <tspan x="222" y="211">stetch (default)</tspan>
    </text>
  </g>
</svg>
