<svg xmlns="http://www.w3.org/2000/svg" width="1343" height="550" viewBox="0 0 1343 550">
  <g fill="none" fill-rule="evenodd">
    <g transform="translate(15 33)">
      <rect width="330" height="172" y="29" fill="#D8D8D8" fill-opacity=".266" fill-rule="nonzero"/>
      <g fill="#9B9B9B" fill-rule="nonzero" transform="translate(38 46)">
        <path d="M84.60047 39.8665801L67.4206816 39.8665801C67.920094 38.7644303 68.319624 37.562085 68.6192714 36.2595443L80.4054054 35.1573945C80.7050529 35.1573945 80.9048179 34.8568082 80.8049354 34.6564173 80.8049354 34.355831 80.5052879 34.1554401 80.3055229 34.2556356L68.9189189 35.3577854C69.1186839 34.2556356 69.2185664 33.1534858 69.2185664 32.051336 69.2185664 27.8431276 68.119859 23.9355055 66.2220917 20.4286651L68.8190364.990750187C68.9189189.289382122 68.319624-.211595068 67.720329.0889912458L49.3419506 7.80403997C47.2444183 7.30306278 44.947121 7.00247646 42.6498237 7.00247646 40.3525264 7.00247646 38.0552291 7.30306278 35.9576968 7.80403997L17.5793184.0889912458C16.9800235-.211595068 16.3807286.38957756 16.480611.990750187L19.0775558 20.4286651C17.1797885 23.9355055 16.0810811 27.8431276 16.0810811 32.051336 16.0810811 33.1534858 16.1809636 34.2556356 16.3807286 35.3577854L4.79435958 34.1554401C4.4947121 34.1554401 4.29494712 34.355831 4.29494712 34.5562219 4.29494712 34.8568082 4.4947121 35.0571991 4.69447709 35.0571991L16.480611 36.2595443C16.7802585 37.4618896 17.1797885 38.6642349 17.6792009 39.7663847L.499412456 39.7663847C.199764982 39.7663847 0 39.9667755 0 40.2673619 0 40.5679482.199764982 40.7683391.499412456 40.7683391L18.1786134 40.7683391C18.7779083 41.8704889 19.3772033 42.9726387 20.0763807 43.9745931L4.69447709 45.5777201C4.39482961 45.5777201 4.19506463 45.8783064 4.29494712 46.0786973 4.29494712 46.3792836 4.4947121 46.5796745 4.79435958 46.5796745 4.79435958 46.5796745 4.79435958 46.5796745 4.79435958 46.5796745L20.7755582 44.9765474C20.7755582 44.9765474 20.7755582 44.9765474 20.7755582 44.9765474 20.7755582 44.9765474 20.7755582 44.9765474 20.7755582 44.9765474 26.3689777 52.190619 35.7579318 57 42.4500588 57 49.7414806 57 58.9306698 52.190619 64.3243243 44.9765474L80.2056404 46.479479C80.2056404 46.479479 80.2056404 46.479479 80.2056404 46.479479 80.5052879 46.479479 80.7050529 46.2790881 80.7050529 45.9785018 80.7050529 45.6779155 80.5052879 45.4775246 80.3055229 45.4775246L65.0235018 43.9745931C65.7226792 42.9726387 66.3219741 41.8704889 66.9212691 40.7683391L84.5005875 40.7683391C84.800235 40.7683391 85 40.5679482 85 40.2673619 85 39.9667755 84.800235 39.8665801 84.60047 39.8665801zM169.60047 39.8665801L152.420682 39.8665801C152.920094 38.7644303 153.319624 37.562085 153.619271 36.2595443L165.405405 35.1573945C165.705053 35.1573945 165.904818 34.8568082 165.804935 34.6564173 165.804935 34.355831 165.505288 34.1554401 165.305523 34.2556356L153.918919 35.3577854C154.118684 34.2556356 154.218566 33.1534858 154.218566 32.051336 154.218566 27.8431276 153.119859 23.9355055 151.222092 20.4286651L153.819036.990750187C153.918919.289382122 153.319624-.211595068 152.720329.0889912458L134.341951 7.80403997C132.244418 7.30306278 129.947121 7.00247646 127.649824 7.00247646 125.352526 7.00247646 123.055229 7.30306278 120.957697 7.80403997L102.579318.0889912458C101.980024-.211595068 101.380729.38957756 101.480611.990750187L104.077556 20.4286651C102.179788 23.9355055 101.081081 27.8431276 101.081081 32.051336 101.081081 33.1534858 101.180964 34.2556356 101.380729 35.3577854L89.7943596 34.1554401C89.4947121 34.1554401 89.2949471 34.355831 89.2949471 34.5562219 89.2949471 34.8568082 89.4947121 35.0571991 89.6944771 35.0571991L101.480611 36.2595443C101.780259 37.4618896 102.179788 38.6642349 102.679201 39.7663847L85.4994125 39.7663847C85.199765 39.7663847 85 39.9667755 85 40.2673619 85 40.5679482 85.199765 40.7683391 85.4994125 40.7683391L103.178613 40.7683391C103.777908 41.8704889 104.377203 42.9726387 105.076381 43.9745931L89.6944771 45.5777201C89.3948296 45.5777201 89.1950646 45.8783064 89.2949471 46.0786973 89.2949471 46.3792836 89.4947121 46.5796745 89.7943596 46.5796745 89.7943596 46.5796745 89.7943596 46.5796745 89.7943596 46.5796745L105.775558 44.9765474C105.775558 44.9765474 105.775558 44.9765474 105.775558 44.9765474 105.775558 44.9765474 105.775558 44.9765474 105.775558 44.9765474 111.368978 52.190619 120.757932 57 127.450059 57 134.741481 57 143.93067 52.190619 149.324324 44.9765474L165.20564 46.479479C165.20564 46.479479 165.20564 46.479479 165.20564 46.479479 165.505288 46.479479 165.705053 46.2790881 165.705053 45.9785018 165.705053 45.6779155 165.505288 45.4775246 165.305523 45.4775246L150.023502 43.9745931C150.722679 42.9726387 151.321974 41.8704889 151.921269 40.7683391L169.500588 40.7683391C169.800235 40.7683391 170 40.5679482 170 40.2673619 170 39.9667755 169.800235 39.8665801 169.60047 39.8665801zM254.60047 39.8665801L237.420682 39.8665801C237.920094 38.7644303 238.319624 37.562085 238.619271 36.2595443L250.405405 35.1573945C250.705053 35.1573945 250.904818 34.8568082 250.804935 34.6564173 250.804935 34.355831 250.505288 34.1554401 250.305523 34.2556356L238.918919 35.3577854C239.118684 34.2556356 239.218566 33.1534858 239.218566 32.051336 239.218566 27.8431276 238.119859 23.9355055 236.222092 20.4286651L238.819036.990750187C238.918919.289382122 238.319624-.211595068 237.720329.0889912458L219.341951 7.80403997C217.244418 7.30306278 214.947121 7.00247646 212.649824 7.00247646 210.352526 7.00247646 208.055229 7.30306278 205.957697 7.80403997L187.579318.0889912458C186.980024-.211595068 186.380729.38957756 186.480611.990750187L189.077556 20.4286651C187.179788 23.9355055 186.081081 27.8431276 186.081081 32.051336 186.081081 33.1534858 186.180964 34.2556356 186.380729 35.3577854L174.79436 34.1554401C174.494712 34.1554401 174.294947 34.355831 174.294947 34.5562219 174.294947 34.8568082 174.494712 35.0571991 174.694477 35.0571991L186.480611 36.2595443C186.780259 37.4618896 187.179788 38.6642349 187.679201 39.7663847L170.499412 39.7663847C170.199765 39.7663847 170 39.9667755 170 40.2673619 170 40.5679482 170.199765 40.7683391 170.499412 40.7683391L188.178613 40.7683391C188.777908 41.8704889 189.377203 42.9726387 190.076381 43.9745931L174.694477 45.5777201C174.39483 45.5777201 174.195065 45.8783064 174.294947 46.0786973 174.294947 46.3792836 174.494712 46.5796745 174.79436 46.5796745 174.79436 46.5796745 174.79436 46.5796745 174.79436 46.5796745L190.775558 44.9765474C190.775558 44.9765474 190.775558 44.9765474 190.775558 44.9765474 190.775558 44.9765474 190.775558 44.9765474 190.775558 44.9765474 196.368978 52.190619 205.757932 57 212.450059 57 219.741481 57 228.93067 52.190619 234.324324 44.9765474L250.20564 46.479479C250.20564 46.479479 250.20564 46.479479 250.20564 46.479479 250.505288 46.479479 250.705053 46.2790881 250.705053 45.9785018 250.705053 45.6779155 250.505288 45.4775246 250.305523 45.4775246L235.023502 43.9745931C235.722679 42.9726387 236.321974 41.8704889 236.921269 40.7683391L254.500588 40.7683391C254.800235 40.7683391 255 40.5679482 255 40.2673619 255 39.9667755 254.800235 39.8665801 254.60047 39.8665801z"/>
      </g>
      <text fill="#4A4A4A" font-family="Montserrat-ExtraLight, Montserrat" font-size="24" font-weight="300">
        <tspan x=".472" y="23">flex-start</tspan>
      </text>
    </g>
    <g transform="translate(15 298)">
      <rect width="330" height="172" y="29" fill="#D8D8D8" fill-opacity=".266" fill-rule="nonzero"/>
      <g fill="#9B9B9B" fill-rule="nonzero" transform="translate(38 38)">
        <path d="M84.60047 108.409121L67.4206816 108.409121C67.920094 105.412047 68.319624 102.142512 68.6192714 98.6005153L80.4054054 95.6034413C80.7050529 95.6034413 80.9048179 94.7860574 80.8049354 94.2411349 80.8049354 93.423751 80.5052879 92.8788285 80.3055229 93.1512898L68.9189189 96.1483638C69.1186839 93.1512898 69.2185664 90.1542157 69.2185664 87.1571416 69.2185664 75.7137679 68.119859 65.0877781 66.2220917 55.5516333L68.8190364 2.69414525C68.9189189.786916296 68.319624-.575390097 67.720329.241993738L49.3419506 21.2215122C47.2444183 19.8592058 44.947121 19.041822 42.6498237 19.041822 40.3525264 19.041822 38.0552291 19.8592058 35.9576968 21.2215122L17.5793184.241993738C16.9800235-.575390097 16.3807286 1.05937757 16.480611 2.69414525L19.0775558 55.5516333C17.1797885 65.0877781 16.0810811 75.7137679 16.0810811 87.1571416 16.0810811 90.1542157 16.1809636 93.1512898 16.3807286 96.1483638L4.79435958 92.8788285C4.4947121 92.8788285 4.29494712 93.423751 4.29494712 93.9686736 4.29494712 94.7860574 4.4947121 95.33098 4.69447709 95.33098L16.480611 98.6005153C16.7802585 101.870051 17.1797885 105.139586 17.6792009 108.13666L.499412456 108.13666C.199764982 108.13666 0 108.681583 0 109.498966 0 110.31635.199764982 110.861273.499412456 110.861273L18.1786134 110.861273C18.7779083 113.858347 19.3772033 116.855421 20.0763807 119.580034L4.69447709 123.939414C4.39482961 123.939414 4.19506463 124.756798 4.29494712 125.301721 4.29494712 126.119104 4.4947121 126.664027 4.79435958 126.664027 4.79435958 126.664027 4.79435958 126.664027 4.79435958 126.664027L20.7755582 122.304647C20.7755582 122.304647 20.7755582 122.304647 20.7755582 122.304647 20.7755582 122.304647 20.7755582 122.304647 20.7755582 122.304647 26.3689777 141.921859 35.7579318 155 42.4500588 155 49.7414806 155 58.9306698 141.921859 64.3243243 122.304647L80.2056404 126.391566C80.2056404 126.391566 80.2056404 126.391566 80.2056404 126.391566 80.5052879 126.391566 80.7050529 125.846643 80.7050529 125.029259 80.7050529 124.211876 80.5052879 123.666953 80.3055229 123.666953L65.0235018 119.580034C65.7226792 116.855421 66.3219741 113.858347 66.9212691 110.861273L84.5005875 110.861273C84.800235 110.861273 85 110.31635 85 109.498966 85 108.681583 84.800235 108.409121 84.60047 108.409121zM169.60047 108.409121L152.420682 108.409121C152.920094 105.412047 153.319624 102.142512 153.619271 98.6005153L165.405405 95.6034413C165.705053 95.6034413 165.904818 94.7860574 165.804935 94.2411349 165.804935 93.423751 165.505288 92.8788285 165.305523 93.1512898L153.918919 96.1483638C154.118684 93.1512898 154.218566 90.1542157 154.218566 87.1571416 154.218566 75.7137679 153.119859 65.0877781 151.222092 55.5516333L153.819036 2.69414525C153.918919.786916296 153.319624-.575390097 152.720329.241993738L134.341951 21.2215122C132.244418 19.8592058 129.947121 19.041822 127.649824 19.041822 125.352526 19.041822 123.055229 19.8592058 120.957697 21.2215122L102.579318.241993738C101.980024-.575390097 101.380729 1.05937757 101.480611 2.69414525L104.077556 55.5516333C102.179788 65.0877781 101.081081 75.7137679 101.081081 87.1571416 101.081081 90.1542157 101.180964 93.1512898 101.380729 96.1483638L89.7943596 92.8788285C89.4947121 92.8788285 89.2949471 93.423751 89.2949471 93.9686736 89.2949471 94.7860574 89.4947121 95.33098 89.6944771 95.33098L101.480611 98.6005153C101.780259 101.870051 102.179788 105.139586 102.679201 108.13666L85.4994125 108.13666C85.199765 108.13666 85 108.681583 85 109.498966 85 110.31635 85.199765 110.861273 85.4994125 110.861273L103.178613 110.861273C103.777908 113.858347 104.377203 116.855421 105.076381 119.580034L89.6944771 123.939414C89.3948296 123.939414 89.1950646 124.756798 89.2949471 125.301721 89.2949471 126.119104 89.4947121 126.664027 89.7943596 126.664027 89.7943596 126.664027 89.7943596 126.664027 89.7943596 126.664027L105.775558 122.304647C105.775558 122.304647 105.775558 122.304647 105.775558 122.304647 105.775558 122.304647 105.775558 122.304647 105.775558 122.304647 111.368978 141.921859 120.757932 155 127.450059 155 134.741481 155 143.93067 141.921859 149.324324 122.304647L165.20564 126.391566C165.20564 126.391566 165.20564 126.391566 165.20564 126.391566 165.505288 126.391566 165.705053 125.846643 165.705053 125.029259 165.705053 124.211876 165.505288 123.666953 165.305523 123.666953L150.023502 119.580034C150.722679 116.855421 151.321974 113.858347 151.921269 110.861273L169.500588 110.861273C169.800235 110.861273 170 110.31635 170 109.498966 170 108.681583 169.800235 108.409121 169.60047 108.409121zM254.60047 108.409121L237.420682 108.409121C237.920094 105.412047 238.319624 102.142512 238.619271 98.6005153L250.405405 95.6034413C250.705053 95.6034413 250.904818 94.7860574 250.804935 94.2411349 250.804935 93.423751 250.505288 92.8788285 250.305523 93.1512898L238.918919 96.1483638C239.118684 93.1512898 239.218566 90.1542157 239.218566 87.1571416 239.218566 75.7137679 238.119859 65.0877781 236.222092 55.5516333L238.819036 2.69414525C238.918919.786916296 238.319624-.575390097 237.720329.241993738L219.341951 21.2215122C217.244418 19.8592058 214.947121 19.041822 212.649824 19.041822 210.352526 19.041822 208.055229 19.8592058 205.957697 21.2215122L187.579318.241993738C186.980024-.575390097 186.380729 1.05937757 186.480611 2.69414525L189.077556 55.5516333C187.179788 65.0877781 186.081081 75.7137679 186.081081 87.1571416 186.081081 90.1542157 186.180964 93.1512898 186.380729 96.1483638L174.79436 92.8788285C174.494712 92.8788285 174.294947 93.423751 174.294947 93.9686736 174.294947 94.7860574 174.494712 95.33098 174.694477 95.33098L186.480611 98.6005153C186.780259 101.870051 187.179788 105.139586 187.679201 108.13666L170.499412 108.13666C170.199765 108.13666 170 108.681583 170 109.498966 170 110.31635 170.199765 110.861273 170.499412 110.861273L188.178613 110.861273C188.777908 113.858347 189.377203 116.855421 190.076381 119.580034L174.694477 123.939414C174.39483 123.939414 174.195065 124.756798 174.294947 125.301721 174.294947 126.119104 174.494712 126.664027 174.79436 126.664027 174.79436 126.664027 174.79436 126.664027 174.79436 126.664027L190.775558 122.304647C190.775558 122.304647 190.775558 122.304647 190.775558 122.304647 190.775558 122.304647 190.775558 122.304647 190.775558 122.304647 196.368978 141.921859 205.757932 155 212.450059 155 219.741481 155 228.93067 141.921859 234.324324 122.304647L250.20564 126.391566C250.20564 126.391566 250.20564 126.391566 250.20564 126.391566 250.505288 126.391566 250.705053 125.846643 250.705053 125.029259 250.705053 124.211876 250.505288 123.666953 250.305523 123.666953L235.023502 119.580034C235.722679 116.855421 236.321974 113.858347 236.921269 110.861273L254.500588 110.861273C254.800235 110.861273 255 110.31635 255 109.498966 255 108.681583 254.800235 108.409121 254.60047 108.409121z"/>
      </g>
      <text fill="#4A4A4A" font-family="Montserrat-ExtraLight, Montserrat" font-size="24" font-weight="300">
        <tspan x="0" y="23">stretch</tspan>
      </text>
    </g>
    <g transform="translate(372 33)">
      <rect width="330" height="172" y="29" fill="#D8D8D8" fill-opacity=".266" fill-rule="nonzero"/>
      <g fill="#9B9B9B" fill-rule="nonzero" transform="translate(38 126)">
        <path d="M84.60047 39.8665801L67.4206816 39.8665801C67.920094 38.7644303 68.319624 37.562085 68.6192714 36.2595443L80.4054054 35.1573945C80.7050529 35.1573945 80.9048179 34.8568082 80.8049354 34.6564173 80.8049354 34.355831 80.5052879 34.1554401 80.3055229 34.2556356L68.9189189 35.3577854C69.1186839 34.2556356 69.2185664 33.1534858 69.2185664 32.051336 69.2185664 27.8431276 68.119859 23.9355055 66.2220917 20.4286651L68.8190364.990750187C68.9189189.289382122 68.319624-.211595068 67.720329.0889912458L49.3419506 7.80403997C47.2444183 7.30306278 44.947121 7.00247646 42.6498237 7.00247646 40.3525264 7.00247646 38.0552291 7.30306278 35.9576968 7.80403997L17.5793184.0889912458C16.9800235-.211595068 16.3807286.38957756 16.480611.990750187L19.0775558 20.4286651C17.1797885 23.9355055 16.0810811 27.8431276 16.0810811 32.051336 16.0810811 33.1534858 16.1809636 34.2556356 16.3807286 35.3577854L4.79435958 34.1554401C4.4947121 34.1554401 4.29494712 34.355831 4.29494712 34.5562219 4.29494712 34.8568082 4.4947121 35.0571991 4.69447709 35.0571991L16.480611 36.2595443C16.7802585 37.4618896 17.1797885 38.6642349 17.6792009 39.7663847L.499412456 39.7663847C.199764982 39.7663847 0 39.9667755 0 40.2673619 0 40.5679482.199764982 40.7683391.499412456 40.7683391L18.1786134 40.7683391C18.7779083 41.8704889 19.3772033 42.9726387 20.0763807 43.9745931L4.69447709 45.5777201C4.39482961 45.5777201 4.19506463 45.8783064 4.29494712 46.0786973 4.29494712 46.3792836 4.4947121 46.5796745 4.79435958 46.5796745 4.79435958 46.5796745 4.79435958 46.5796745 4.79435958 46.5796745L20.7755582 44.9765474C20.7755582 44.9765474 20.7755582 44.9765474 20.7755582 44.9765474 20.7755582 44.9765474 20.7755582 44.9765474 20.7755582 44.9765474 26.3689777 52.190619 35.7579318 57 42.4500588 57 49.7414806 57 58.9306698 52.190619 64.3243243 44.9765474L80.2056404 46.479479C80.2056404 46.479479 80.2056404 46.479479 80.2056404 46.479479 80.5052879 46.479479 80.7050529 46.2790881 80.7050529 45.9785018 80.7050529 45.6779155 80.5052879 45.4775246 80.3055229 45.4775246L65.0235018 43.9745931C65.7226792 42.9726387 66.3219741 41.8704889 66.9212691 40.7683391L84.5005875 40.7683391C84.800235 40.7683391 85 40.5679482 85 40.2673619 85 39.9667755 84.800235 39.8665801 84.60047 39.8665801zM169.60047 39.8665801L152.420682 39.8665801C152.920094 38.7644303 153.319624 37.562085 153.619271 36.2595443L165.405405 35.1573945C165.705053 35.1573945 165.904818 34.8568082 165.804935 34.6564173 165.804935 34.355831 165.505288 34.1554401 165.305523 34.2556356L153.918919 35.3577854C154.118684 34.2556356 154.218566 33.1534858 154.218566 32.051336 154.218566 27.8431276 153.119859 23.9355055 151.222092 20.4286651L153.819036.990750187C153.918919.289382122 153.319624-.211595068 152.720329.0889912458L134.341951 7.80403997C132.244418 7.30306278 129.947121 7.00247646 127.649824 7.00247646 125.352526 7.00247646 123.055229 7.30306278 120.957697 7.80403997L102.579318.0889912458C101.980024-.211595068 101.380729.38957756 101.480611.990750187L104.077556 20.4286651C102.179788 23.9355055 101.081081 27.8431276 101.081081 32.051336 101.081081 33.1534858 101.180964 34.2556356 101.380729 35.3577854L89.7943596 34.1554401C89.4947121 34.1554401 89.2949471 34.355831 89.2949471 34.5562219 89.2949471 34.8568082 89.4947121 35.0571991 89.6944771 35.0571991L101.480611 36.2595443C101.780259 37.4618896 102.179788 38.6642349 102.679201 39.7663847L85.4994125 39.7663847C85.199765 39.7663847 85 39.9667755 85 40.2673619 85 40.5679482 85.199765 40.7683391 85.4994125 40.7683391L103.178613 40.7683391C103.777908 41.8704889 104.377203 42.9726387 105.076381 43.9745931L89.6944771 45.5777201C89.3948296 45.5777201 89.1950646 45.8783064 89.2949471 46.0786973 89.2949471 46.3792836 89.4947121 46.5796745 89.7943596 46.5796745 89.7943596 46.5796745 89.7943596 46.5796745 89.7943596 46.5796745L105.775558 44.9765474C105.775558 44.9765474 105.775558 44.9765474 105.775558 44.9765474 105.775558 44.9765474 105.775558 44.9765474 105.775558 44.9765474 111.368978 52.190619 120.757932 57 127.450059 57 134.741481 57 143.93067 52.190619 149.324324 44.9765474L165.20564 46.479479C165.20564 46.479479 165.20564 46.479479 165.20564 46.479479 165.505288 46.479479 165.705053 46.2790881 165.705053 45.9785018 165.705053 45.6779155 165.505288 45.4775246 165.305523 45.4775246L150.023502 43.9745931C150.722679 42.9726387 151.321974 41.8704889 151.921269 40.7683391L169.500588 40.7683391C169.800235 40.7683391 170 40.5679482 170 40.2673619 170 39.9667755 169.800235 39.8665801 169.60047 39.8665801zM254.60047 39.8665801L237.420682 39.8665801C237.920094 38.7644303 238.319624 37.562085 238.619271 36.2595443L250.405405 35.1573945C250.705053 35.1573945 250.904818 34.8568082 250.804935 34.6564173 250.804935 34.355831 250.505288 34.1554401 250.305523 34.2556356L238.918919 35.3577854C239.118684 34.2556356 239.218566 33.1534858 239.218566 32.051336 239.218566 27.8431276 238.119859 23.9355055 236.222092 20.4286651L238.819036.990750187C238.918919.289382122 238.319624-.211595068 237.720329.0889912458L219.341951 7.80403997C217.244418 7.30306278 214.947121 7.00247646 212.649824 7.00247646 210.352526 7.00247646 208.055229 7.30306278 205.957697 7.80403997L187.579318.0889912458C186.980024-.211595068 186.380729.38957756 186.480611.990750187L189.077556 20.4286651C187.179788 23.9355055 186.081081 27.8431276 186.081081 32.051336 186.081081 33.1534858 186.180964 34.2556356 186.380729 35.3577854L174.79436 34.1554401C174.494712 34.1554401 174.294947 34.355831 174.294947 34.5562219 174.294947 34.8568082 174.494712 35.0571991 174.694477 35.0571991L186.480611 36.2595443C186.780259 37.4618896 187.179788 38.6642349 187.679201 39.7663847L170.499412 39.7663847C170.199765 39.7663847 170 39.9667755 170 40.2673619 170 40.5679482 170.199765 40.7683391 170.499412 40.7683391L188.178613 40.7683391C188.777908 41.8704889 189.377203 42.9726387 190.076381 43.9745931L174.694477 45.5777201C174.39483 45.5777201 174.195065 45.8783064 174.294947 46.0786973 174.294947 46.3792836 174.494712 46.5796745 174.79436 46.5796745 174.79436 46.5796745 174.79436 46.5796745 174.79436 46.5796745L190.775558 44.9765474C190.775558 44.9765474 190.775558 44.9765474 190.775558 44.9765474 190.775558 44.9765474 190.775558 44.9765474 190.775558 44.9765474 196.368978 52.190619 205.757932 57 212.450059 57 219.741481 57 228.93067 52.190619 234.324324 44.9765474L250.20564 46.479479C250.20564 46.479479 250.20564 46.479479 250.20564 46.479479 250.505288 46.479479 250.705053 46.2790881 250.705053 45.9785018 250.705053 45.6779155 250.505288 45.4775246 250.305523 45.4775246L235.023502 43.9745931C235.722679 42.9726387 236.321974 41.8704889 236.921269 40.7683391L254.500588 40.7683391C254.800235 40.7683391 255 40.5679482 255 40.2673619 255 39.9667755 254.800235 39.8665801 254.60047 39.8665801z"/>
      </g>
      <text fill="#4A4A4A" font-family="Montserrat-ExtraLight, Montserrat" font-size="24" font-weight="300">
        <tspan x="2.336" y="23">flex-end</tspan>
      </text>
    </g>
    <g transform="translate(729 33)">
      <rect width="330" height="172" y="29" fill="#D8D8D8" fill-opacity=".266" fill-rule="nonzero"/>
      <g fill="#9B9B9B" fill-rule="nonzero" transform="translate(38 87)">
        <path d="M84.60047 39.8665801L67.4206816 39.8665801C67.920094 38.7644303 68.319624 37.562085 68.6192714 36.2595443L80.4054054 35.1573945C80.7050529 35.1573945 80.9048179 34.8568082 80.8049354 34.6564173 80.8049354 34.355831 80.5052879 34.1554401 80.3055229 34.2556356L68.9189189 35.3577854C69.1186839 34.2556356 69.2185664 33.1534858 69.2185664 32.051336 69.2185664 27.8431276 68.119859 23.9355055 66.2220917 20.4286651L68.8190364.990750187C68.9189189.289382122 68.319624-.211595068 67.720329.0889912458L49.3419506 7.80403997C47.2444183 7.30306278 44.947121 7.00247646 42.6498237 7.00247646 40.3525264 7.00247646 38.0552291 7.30306278 35.9576968 7.80403997L17.5793184.0889912458C16.9800235-.211595068 16.3807286.38957756 16.480611.990750187L19.0775558 20.4286651C17.1797885 23.9355055 16.0810811 27.8431276 16.0810811 32.051336 16.0810811 33.1534858 16.1809636 34.2556356 16.3807286 35.3577854L4.79435958 34.1554401C4.4947121 34.1554401 4.29494712 34.355831 4.29494712 34.5562219 4.29494712 34.8568082 4.4947121 35.0571991 4.69447709 35.0571991L16.480611 36.2595443C16.7802585 37.4618896 17.1797885 38.6642349 17.6792009 39.7663847L.499412456 39.7663847C.199764982 39.7663847 0 39.9667755 0 40.2673619 0 40.5679482.199764982 40.7683391.499412456 40.7683391L18.1786134 40.7683391C18.7779083 41.8704889 19.3772033 42.9726387 20.0763807 43.9745931L4.69447709 45.5777201C4.39482961 45.5777201 4.19506463 45.8783064 4.29494712 46.0786973 4.29494712 46.3792836 4.4947121 46.5796745 4.79435958 46.5796745 4.79435958 46.5796745 4.79435958 46.5796745 4.79435958 46.5796745L20.7755582 44.9765474C20.7755582 44.9765474 20.7755582 44.9765474 20.7755582 44.9765474 20.7755582 44.9765474 20.7755582 44.9765474 20.7755582 44.9765474 26.3689777 52.190619 35.7579318 57 42.4500588 57 49.7414806 57 58.9306698 52.190619 64.3243243 44.9765474L80.2056404 46.479479C80.2056404 46.479479 80.2056404 46.479479 80.2056404 46.479479 80.5052879 46.479479 80.7050529 46.2790881 80.7050529 45.9785018 80.7050529 45.6779155 80.5052879 45.4775246 80.3055229 45.4775246L65.0235018 43.9745931C65.7226792 42.9726387 66.3219741 41.8704889 66.9212691 40.7683391L84.5005875 40.7683391C84.800235 40.7683391 85 40.5679482 85 40.2673619 85 39.9667755 84.800235 39.8665801 84.60047 39.8665801zM169.60047 39.8665801L152.420682 39.8665801C152.920094 38.7644303 153.319624 37.562085 153.619271 36.2595443L165.405405 35.1573945C165.705053 35.1573945 165.904818 34.8568082 165.804935 34.6564173 165.804935 34.355831 165.505288 34.1554401 165.305523 34.2556356L153.918919 35.3577854C154.118684 34.2556356 154.218566 33.1534858 154.218566 32.051336 154.218566 27.8431276 153.119859 23.9355055 151.222092 20.4286651L153.819036.990750187C153.918919.289382122 153.319624-.211595068 152.720329.0889912458L134.341951 7.80403997C132.244418 7.30306278 129.947121 7.00247646 127.649824 7.00247646 125.352526 7.00247646 123.055229 7.30306278 120.957697 7.80403997L102.579318.0889912458C101.980024-.211595068 101.380729.38957756 101.480611.990750187L104.077556 20.4286651C102.179788 23.9355055 101.081081 27.8431276 101.081081 32.051336 101.081081 33.1534858 101.180964 34.2556356 101.380729 35.3577854L89.7943596 34.1554401C89.4947121 34.1554401 89.2949471 34.355831 89.2949471 34.5562219 89.2949471 34.8568082 89.4947121 35.0571991 89.6944771 35.0571991L101.480611 36.2595443C101.780259 37.4618896 102.179788 38.6642349 102.679201 39.7663847L85.4994125 39.7663847C85.199765 39.7663847 85 39.9667755 85 40.2673619 85 40.5679482 85.199765 40.7683391 85.4994125 40.7683391L103.178613 40.7683391C103.777908 41.8704889 104.377203 42.9726387 105.076381 43.9745931L89.6944771 45.5777201C89.3948296 45.5777201 89.1950646 45.8783064 89.2949471 46.0786973 89.2949471 46.3792836 89.4947121 46.5796745 89.7943596 46.5796745 89.7943596 46.5796745 89.7943596 46.5796745 89.7943596 46.5796745L105.775558 44.9765474C105.775558 44.9765474 105.775558 44.9765474 105.775558 44.9765474 105.775558 44.9765474 105.775558 44.9765474 105.775558 44.9765474 111.368978 52.190619 120.757932 57 127.450059 57 134.741481 57 143.93067 52.190619 149.324324 44.9765474L165.20564 46.479479C165.20564 46.479479 165.20564 46.479479 165.20564 46.479479 165.505288 46.479479 165.705053 46.2790881 165.705053 45.9785018 165.705053 45.6779155 165.505288 45.4775246 165.305523 45.4775246L150.023502 43.9745931C150.722679 42.9726387 151.321974 41.8704889 151.921269 40.7683391L169.500588 40.7683391C169.800235 40.7683391 170 40.5679482 170 40.2673619 170 39.9667755 169.800235 39.8665801 169.60047 39.8665801zM254.60047 39.8665801L237.420682 39.8665801C237.920094 38.7644303 238.319624 37.562085 238.619271 36.2595443L250.405405 35.1573945C250.705053 35.1573945 250.904818 34.8568082 250.804935 34.6564173 250.804935 34.355831 250.505288 34.1554401 250.305523 34.2556356L238.918919 35.3577854C239.118684 34.2556356 239.218566 33.1534858 239.218566 32.051336 239.218566 27.8431276 238.119859 23.9355055 236.222092 20.4286651L238.819036.990750187C238.918919.289382122 238.319624-.211595068 237.720329.0889912458L219.341951 7.80403997C217.244418 7.30306278 214.947121 7.00247646 212.649824 7.00247646 210.352526 7.00247646 208.055229 7.30306278 205.957697 7.80403997L187.579318.0889912458C186.980024-.211595068 186.380729.38957756 186.480611.990750187L189.077556 20.4286651C187.179788 23.9355055 186.081081 27.8431276 186.081081 32.051336 186.081081 33.1534858 186.180964 34.2556356 186.380729 35.3577854L174.79436 34.1554401C174.494712 34.1554401 174.294947 34.355831 174.294947 34.5562219 174.294947 34.8568082 174.494712 35.0571991 174.694477 35.0571991L186.480611 36.2595443C186.780259 37.4618896 187.179788 38.6642349 187.679201 39.7663847L170.499412 39.7663847C170.199765 39.7663847 170 39.9667755 170 40.2673619 170 40.5679482 170.199765 40.7683391 170.499412 40.7683391L188.178613 40.7683391C188.777908 41.8704889 189.377203 42.9726387 190.076381 43.9745931L174.694477 45.5777201C174.39483 45.5777201 174.195065 45.8783064 174.294947 46.0786973 174.294947 46.3792836 174.494712 46.5796745 174.79436 46.5796745 174.79436 46.5796745 174.79436 46.5796745 174.79436 46.5796745L190.775558 44.9765474C190.775558 44.9765474 190.775558 44.9765474 190.775558 44.9765474 190.775558 44.9765474 190.775558 44.9765474 190.775558 44.9765474 196.368978 52.190619 205.757932 57 212.450059 57 219.741481 57 228.93067 52.190619 234.324324 44.9765474L250.20564 46.479479C250.20564 46.479479 250.20564 46.479479 250.20564 46.479479 250.505288 46.479479 250.705053 46.2790881 250.705053 45.9785018 250.705053 45.6779155 250.505288 45.4775246 250.305523 45.4775246L235.023502 43.9745931C235.722679 42.9726387 236.321974 41.8704889 236.921269 40.7683391L254.500588 40.7683391C254.800235 40.7683391 255 40.5679482 255 40.2673619 255 39.9667755 254.800235 39.8665801 254.60047 39.8665801z"/>
      </g>
      <text fill="#4A4A4A" font-family="Montserrat-ExtraLight, Montserrat" font-size="24" font-weight="300">
        <tspan x="1.656" y="23">center</tspan>
      </text>
    </g>
  </g>
</svg>
