<svg xmlns="http://www.w3.org/2000/svg" width="311" height="222" viewBox="0 0 311 222">
  <g fill="none" fill-rule="evenodd">
    <rect width="266" height="157" x="19" y="41" fill="#F7F7F7" fill-rule="nonzero"/>
    <path fill="pink" fill-rule="nonzero" d="M81.7414806 78.8783064L70.6251469 78.8783064C70.9482961 78.1628758 71.2068155 77.3824061 71.4007051 76.5368972L79.027027 75.8214666C79.2209166 75.8214666 79.3501763 75.6263492 79.2855464 75.4962709 79.2855464 75.3011535 79.0916569 75.1710752 78.9623972 75.2361143L71.5945946 75.9515449C71.7238543 75.2361143 71.7884841 74.5206837 71.7884841 73.8052532 71.7884841 71.0736091 71.0775558 68.5370825 69.8495887 66.2607125L71.5299647 53.6431185C71.5945946 53.1878445 71.2068155 52.8626488 70.8190364 53.0577662L58.9271445 58.0657803C57.5699177 57.7405846 56.0834313 57.5454672 54.5969448 57.5454672 53.1104583 57.5454672 51.6239718 57.7405846 50.266745 58.0657803L38.3748531 53.0577662C37.987074 52.8626488 37.5992949 53.2528837 37.6639248 53.6431185L39.3443008 66.2607125C38.1163337 68.5370825 37.4054054 71.0736091 37.4054054 73.8052532 37.4054054 74.5206837 37.4700353 75.2361143 37.5992949 75.9515449L30.1022327 75.1710752C29.9083431 75.1710752 29.7790834 75.3011535 29.7790834 75.4312318 29.7790834 75.6263492 29.9083431 75.7564275 30.0376028 75.7564275L37.6639248 76.5368972C37.8578143 77.3173669 38.1163337 78.0978367 38.439483 78.8132672L27.3231492 78.8132672C27.1292597 78.8132672 27 78.9433455 27 79.138463 27 79.3335804 27.1292597 79.4636587 27.3231492 79.4636587L38.7626322 79.4636587C39.1504113 80.1790893 39.5381904 80.8945198 39.9905993 81.5449113L30.0376028 82.5855376C29.8437133 82.5855376 29.7144536 82.780655 29.7790834 82.9107333 29.7790834 83.1058507 29.9083431 83.235929 30.1022327 83.235929 30.1022327 83.235929 33.5491579 82.8890536 40.4430082 82.1953027 44.0622797 86.8781211 50.1374853 90 54.4676851 90 59.1856639 90 65.1316099 86.8781211 68.6216216 82.1953027L78.8977673 83.1708899C79.0916569 83.1708899 79.2209166 83.0408116 79.2209166 82.8456942 79.2209166 82.6505767 79.0916569 82.5204984 78.9623972 82.5204984L69.0740306 81.5449113C69.5264395 80.8945198 69.9142186 80.1790893 70.3019976 79.4636587L81.6768508 79.4636587C81.8707403 79.4636587 82 79.3335804 82 79.138463 82 78.9433455 81.8707403 78.8783064 81.7414806 78.8783064zM267.741481 78.8783064L256.625147 78.8783064C256.948296 78.1628758 257.206816 77.3824061 257.400705 76.5368972L265.027027 75.8214666C265.220917 75.8214666 265.350176 75.6263492 265.285546 75.4962709 265.285546 75.3011535 265.091657 75.1710752 264.962397 75.2361143L257.594595 75.9515449C257.723854 75.2361143 257.788484 74.5206837 257.788484 73.8052532 257.788484 71.0736091 257.077556 68.5370825 255.849589 66.2607125L257.529965 53.6431185C257.594595 53.1878445 257.206816 52.8626488 256.819036 53.0577662L244.927145 58.0657803C243.569918 57.7405846 242.083431 57.5454672 240.596945 57.5454672 239.110458 57.5454672 237.623972 57.7405846 236.266745 58.0657803L224.374853 53.0577662C223.987074 52.8626488 223.599295 53.2528837 223.663925 53.6431185L225.344301 66.2607125C224.116334 68.5370825 223.405405 71.0736091 223.405405 73.8052532 223.405405 74.5206837 223.470035 75.2361143 223.599295 75.9515449L216.102233 75.1710752C215.908343 75.1710752 215.779083 75.3011535 215.779083 75.4312318 215.779083 75.6263492 215.908343 75.7564275 216.037603 75.7564275L223.663925 76.5368972C223.857814 77.3173669 224.116334 78.0978367 224.439483 78.8132672L213.323149 78.8132672C213.12926 78.8132672 213 78.9433455 213 79.138463 213 79.3335804 213.12926 79.4636587 213.323149 79.4636587L224.762632 79.4636587C225.150411 80.1790893 225.53819 80.8945198 225.990599 81.5449113L216.037603 82.5855376C215.843713 82.5855376 215.714454 82.780655 215.779083 82.9107333 215.779083 83.1058507 215.908343 83.235929 216.102233 83.235929 216.102233 83.235929 216.102233 83.235929 216.102233 83.235929L226.443008 82.1953027C226.443008 82.1953027 226.443008 82.1953027 226.443008 82.1953027 226.443008 82.1953027 226.443008 82.1953027 226.443008 82.1953027 230.06228 86.8781211 236.137485 90 240.467685 90 245.185664 90 251.13161 86.8781211 254.621622 82.1953027L264.897767 83.1708899C264.897767 83.1708899 264.897767 83.1708899 264.897767 83.1708899 265.091657 83.1708899 265.220917 83.0408116 265.220917 82.8456942 265.220917 82.6505767 265.091657 82.5204984 264.962397 82.5204984L255.074031 81.5449113C255.526439 80.8945198 255.914219 80.1790893 256.301998 79.4636587L267.676851 79.4636587C267.87074 79.4636587 268 79.3335804 268 79.138463 268 78.9433455 267.87074 78.8783064 267.741481 78.8783064zM206.741481 78.8783064L195.625147 78.8783064C195.948296 78.1628758 196.206816 77.3824061 196.400705 76.5368972L204.027027 75.8214666C204.220917 75.8214666 204.350176 75.6263492 204.285546 75.4962709 204.285546 75.3011535 204.091657 75.1710752 203.962397 75.2361143L196.594595 75.9515449C196.723854 75.2361143 196.788484 74.5206837 196.788484 73.8052532 196.788484 71.0736091 196.077556 68.5370825 194.849589 66.2607125L196.529965 53.6431185C196.594595 53.1878445 196.206816 52.8626488 195.819036 53.0577662L183.927145 58.0657803C182.569918 57.7405846 181.083431 57.5454672 179.596945 57.5454672 178.110458 57.5454672 176.623972 57.7405846 175.266745 58.0657803L163.374853 53.0577662C162.987074 52.8626488 162.599295 53.2528837 162.663925 53.6431185L164.344301 66.2607125C163.116334 68.5370825 162.405405 71.0736091 162.405405 73.8052532 162.405405 74.5206837 162.470035 75.2361143 162.599295 75.9515449L155.102233 75.1710752C154.908343 75.1710752 154.779083 75.3011535 154.779083 75.4312318 154.779083 75.6263492 154.908343 75.7564275 155.037603 75.7564275L162.663925 76.5368972C162.857814 77.3173669 163.116334 78.0978367 163.439483 78.8132672L152.323149 78.8132672C152.12926 78.8132672 152 78.9433455 152 79.138463 152 79.3335804 152.12926 79.4636587 152.323149 79.4636587L163.762632 79.4636587C164.150411 80.1790893 164.53819 80.8945198 164.990599 81.5449113L155.037603 82.5855376C154.843713 82.5855376 154.714454 82.780655 154.779083 82.9107333 154.779083 83.1058507 154.908343 83.235929 155.102233 83.235929 155.102233 83.235929 155.102233 83.235929 155.102233 83.235929L165.443008 82.1953027C165.443008 82.1953027 165.443008 82.1953027 165.443008 82.1953027 165.443008 82.1953027 165.443008 82.1953027 165.443008 82.1953027 169.06228 86.8781211 175.137485 90 179.467685 90 184.185664 90 190.13161 86.8781211 193.621622 82.1953027L203.897767 83.1708899C203.897767 83.1708899 203.897767 83.1708899 203.897767 83.1708899 204.091657 83.1708899 204.220917 83.0408116 204.220917 82.8456942 204.220917 82.6505767 204.091657 82.5204984 203.962397 82.5204984L194.074031 81.5449113C194.526439 80.8945198 194.914219 80.1790893 195.301998 79.4636587L206.676851 79.4636587C206.87074 79.4636587 207 79.3335804 207 79.138463 207 78.9433455 206.87074 78.8783064 206.741481 78.8783064z"/>
    <path fill="#9B9B9B" fill-rule="nonzero" d="M136.741481,177.878306 L125.625147,177.878306 C125.948296,177.162876 126.206816,176.382406 126.400705,175.536897 L134.027027,174.821467 C134.220917,174.821467 134.350176,174.626349 134.285546,174.496271 C134.285546,174.301153 134.091657,174.171075 133.962397,174.236114 L126.594595,174.951545 C126.723854,174.236114 126.788484,173.520684 126.788484,172.805253 C126.788484,170.073609 126.077556,167.537083 124.849589,165.260712 L126.529965,152.643119 C126.594595,152.187845 126.206816,151.862649 125.819036,152.057766 L113.927145,157.06578 C112.569918,156.740585 111.083431,156.545467 109.596945,156.545467 C108.110458,156.545467 106.623972,156.740585 105.266745,157.06578 L93.3748531,152.057766 C92.987074,151.862649 92.5992949,152.252884 92.6639248,152.643119 L94.3443008,165.260712 C93.1163337,167.537083 92.4054054,170.073609 92.4054054,172.805253 C92.4054054,173.520684 92.4700353,174.236114 92.5992949,174.951545 L85.1022327,174.171075 C84.9083431,174.171075 84.7790834,174.301153 84.7790834,174.431232 C84.7790834,174.626349 84.9083431,174.756427 85.0376028,174.756427 L92.6639248,175.536897 C92.8578143,176.317367 93.1163337,177.097837 93.439483,177.813267 L82.3231492,177.813267 C82.1292597,177.813267 82,177.943346 82,178.138463 C82,178.33358 82.1292597,178.463659 82.3231492,178.463659 L93.7626322,178.463659 C94.1504113,179.179089 94.5381904,179.89452 94.9905993,180.544911 L85.0376028,181.585538 C84.8437133,181.585538 84.7144536,181.780655 84.7790834,181.910733 C84.7790834,182.105851 84.9083431,182.235929 85.1022327,182.235929 C85.1022327,182.235929 85.1022327,182.235929 85.1022327,182.235929 L95.4430082,181.195303 C95.4430082,181.195303 95.4430082,181.195303 95.4430082,181.195303 C95.4430082,181.195303 95.4430082,181.195303 95.4430082,181.195303 C99.0622797,185.878121 105.137485,189 109.467685,189 C114.185664,189 120.13161,185.878121 123.621622,181.195303 L133.897767,182.17089 C133.897767,182.17089 133.897767,182.17089 133.897767,182.17089 C134.091657,182.17089 134.220917,182.040812 134.220917,181.845694 C134.220917,181.650577 134.091657,181.520498 133.962397,181.520498 L124.074031,180.544911 C124.526439,179.89452 124.914219,179.179089 125.301998,178.463659 L136.676851,178.463659 C136.87074,178.463659 137,178.33358 137,178.138463 C137,177.943346 136.87074,177.878306 136.741481,177.878306 Z"/>
    <text fill="#4A4A4A" font-family="Montserrat-Regular, Montserrat" font-size="24">
      <tspan x="148" y="180">flex-end</tspan>
    </text>
    <text fill="pink" font-family="Montserrat-Regular, Montserrat" font-size="24">
      <tspan x="24" y="37">flex-start</tspan>
    </text>
  </g>
</svg>
