<svg xmlns="http://www.w3.org/2000/svg" width="875" height="268" viewBox="0 0 875 268">
  <g fill="none" fill-rule="evenodd">
    <rect width="397" height="209" x="15" y="48" fill="#F7F7F7" fill-rule="nonzero"/>
    <rect width="397" height="104" x="438" y="79" fill="#F7F7F7" fill-rule="nonzero"/>
    <path fill="#9B9B9B" fill-rule="nonzero" d="M292.60047 108.86658L275.420682 108.86658C275.920094 107.76443 276.319624 106.562085 276.619271 105.259544L288.405405 104.157395C288.705053 104.157395 288.904818 103.856808 288.804935 103.656417 288.804935 103.355831 288.505288 103.15544 288.305523 103.255636L276.918919 104.357785C277.118684 103.255636 277.218566 102.153486 277.218566 101.051336 277.218566 96.8431276 276.119859 92.9355055 274.222092 89.4286651L276.819036 69.9907502C276.918919 69.2893821 276.319624 68.7884049 275.720329 69.0889912L257.341951 76.80404C255.244418 76.3030628 252.947121 76.0024765 250.649824 76.0024765 248.352526 76.0024765 246.055229 76.3030628 243.957697 76.80404L225.579318 69.0889912C224.980024 68.7884049 224.380729 69.3895776 224.480611 69.9907502L227.077556 89.4286651C225.179788 92.9355055 224.081081 96.8431276 224.081081 101.051336 224.081081 102.153486 224.180964 103.255636 224.380729 104.357785L212.79436 103.15544C212.494712 103.15544 212.294947 103.355831 212.294947 103.556222 212.294947 103.856808 212.494712 104.057199 212.694477 104.057199L224.480611 105.259544C224.780259 106.46189 225.179788 107.664235 225.679201 108.766385L208.499412 108.766385C208.199765 108.766385 208 108.966776 208 109.267362 208 109.567948 208.199765 109.768339 208.499412 109.768339L226.178613 109.768339C226.777908 110.870489 227.377203 111.972639 228.076381 112.974593L212.694477 114.57772C212.39483 114.57772 212.195065 114.878306 212.294947 115.078697 212.294947 115.379284 212.494712 115.579674 212.79436 115.579674 212.79436 115.579674 212.79436 115.579674 212.79436 115.579674L228.775558 113.976547C228.775558 113.976547 228.775558 113.976547 228.775558 113.976547 228.775558 113.976547 228.775558 113.976547 228.775558 113.976547 234.368978 121.190619 243.757932 126 250.450059 126 257.741481 126 266.93067 121.190619 272.324324 113.976547L288.20564 115.479479C288.20564 115.479479 288.20564 115.479479 288.20564 115.479479 288.505288 115.479479 288.705053 115.279088 288.705053 114.978502 288.705053 114.677916 288.505288 114.477525 288.305523 114.477525L273.023502 112.974593C273.722679 111.972639 274.321974 110.870489 274.921269 109.768339L292.500588 109.768339C292.800235 109.768339 293 109.567948 293 109.267362 293 108.966776 292.800235 108.86658 292.60047 108.86658zM122.60047 108.86658L105.420682 108.86658C105.920094 107.76443 106.319624 106.562085 106.619271 105.259544L118.405405 104.157395C118.705053 104.157395 118.904818 103.856808 118.804935 103.656417 118.804935 103.355831 118.505288 103.15544 118.305523 103.255636L106.918919 104.357785C107.118684 103.255636 107.218566 102.153486 107.218566 101.051336 107.218566 96.8431276 106.119859 92.9355055 104.222092 89.4286651L106.819036 69.9907502C106.918919 69.2893821 106.319624 68.7884049 105.720329 69.0889912L87.3419506 76.80404C85.2444183 76.3030628 82.947121 76.0024765 80.6498237 76.0024765 78.3525264 76.0024765 76.0552291 76.3030628 73.9576968 76.80404L55.5793184 69.0889912C54.9800235 68.7884049 54.3807286 69.3895776 54.480611 69.9907502L57.0775558 89.4286651C55.1797885 92.9355055 54.0810811 96.8431276 54.0810811 101.051336 54.0810811 102.153486 54.1809636 103.255636 54.3807286 104.357785L42.7943596 103.15544C42.4947121 103.15544 42.2949471 103.355831 42.2949471 103.556222 42.2949471 103.856808 42.4947121 104.057199 42.6944771 104.057199L54.480611 105.259544C54.7802585 106.46189 55.1797885 107.664235 55.6792009 108.766385L38.4994125 108.766385C38.199765 108.766385 38 108.966776 38 109.267362 38 109.567948 38.199765 109.768339 38.4994125 109.768339L56.1786134 109.768339C56.7779083 110.870489 57.3772033 111.972639 58.0763807 112.974593L42.6944771 114.57772C42.3948296 114.57772 42.1950646 114.878306 42.2949471 115.078697 42.2949471 115.379284 42.4947121 115.579674 42.7943596 115.579674 42.7943596 115.579674 42.7943596 115.579674 42.7943596 115.579674L58.7755582 113.976547C58.7755582 113.976547 58.7755582 113.976547 58.7755582 113.976547 58.7755582 113.976547 58.7755582 113.976547 58.7755582 113.976547 64.3689777 121.190619 73.7579318 126 80.4500588 126 87.7414806 126 96.9306698 121.190619 102.324324 113.976547L118.20564 115.479479C118.20564 115.479479 118.20564 115.479479 118.20564 115.479479 118.505288 115.479479 118.705053 115.279088 118.705053 114.978502 118.705053 114.677916 118.505288 114.477525 118.305523 114.477525L103.023502 112.974593C103.722679 111.972639 104.321974 110.870489 104.921269 109.768339L122.500588 109.768339C122.800235 109.768339 123 109.567948 123 109.267362 123 108.966776 122.800235 108.86658 122.60047 108.86658z"/>
    <g fill="#9B9B9B" fill-rule="nonzero" transform="translate(457 99)">
      <path d="M47.7743831 39.8665801L38.0728555 39.8665801C38.3548766 38.7644303 38.5804935 37.562085 38.7497062 36.2595443L45.4054054 35.1573945C45.5746181 35.1573945 45.6874266 34.8568082 45.6310223 34.6564173 45.6310223 34.355831 45.4618096 34.1554401 45.3490012 34.2556356L38.9189189 35.3577854C39.0317274 34.2556356 39.0881316 33.1534858 39.0881316 32.051336 39.0881316 27.8431276 38.4676851 23.9355055 37.3960047 20.4286651L38.8625147.990750187C38.9189189.289382122 38.5804935-.211595068 38.2420682.0889912458L27.8636898 7.80403997C26.6792009 7.30306278 25.3819036 7.00247646 24.0846063 7.00247646 22.787309 7.00247646 21.4900118 7.30306278 20.3055229 7.80403997L9.92714454.0889912458C9.58871915-.211595068 9.25029377.38957756 9.306698.990750187L10.773208 20.4286651C9.70152761 23.9355055 9.08108108 27.8431276 9.08108108 32.051336 9.08108108 33.1534858 9.13748531 34.2556356 9.25029377 35.3577854L2.70740306 34.1554401C2.53819036 34.1554401 2.4253819 34.355831 2.4253819 34.5562219 2.4253819 34.8568082 2.53819036 35.0571991 2.65099882 35.0571991L9.306698 36.2595443C9.47591069 37.4618896 9.70152761 38.6642349 9.98354877 39.7663847L.282021152 39.7663847C.112808461 39.7663847 0 39.9667755 0 40.2673619 0 40.5679482.112808461 40.7683391.282021152 40.7683391L10.2655699 40.7683391C10.6039953 41.8704889 10.9424207 42.9726387 11.3372503 43.9745931L2.65099882 45.5777201C2.48178613 45.5777201 2.36897767 45.8783064 2.4253819 46.0786973 2.4253819 46.3792836 2.53819036 46.5796745 2.70740306 46.5796745 2.70740306 46.5796745 2.70740306 46.5796745 2.70740306 46.5796745L11.7320799 44.9765474C11.7320799 44.9765474 11.7320799 44.9765474 11.7320799 44.9765474 11.7320799 44.9765474 11.7320799 44.9765474 11.7320799 44.9765474 14.8907168 52.190619 20.1927145 57 23.9717979 57 28.0893067 57 33.2784959 52.190619 36.3243243 44.9765474L45.2925969 46.479479C45.2925969 46.479479 45.2925969 46.479479 45.2925969 46.479479 45.4618096 46.479479 45.5746181 46.2790881 45.5746181 45.9785018 45.5746181 45.6779155 45.4618096 45.4775246 45.3490012 45.4775246L36.7191539 43.9745931C37.1139835 42.9726387 37.4524089 41.8704889 37.7908343 40.7683391L47.7179788 40.7683391C47.8871915 40.7683391 48 40.5679482 48 40.2673619 48 39.9667755 47.8871915 39.8665801 47.7743831 39.8665801zM99.7743831 39.8665801L90.0728555 39.8665801C90.3548766 38.7644303 90.5804935 37.562085 90.7497062 36.2595443L97.4054054 35.1573945C97.5746181 35.1573945 97.6874266 34.8568082 97.6310223 34.6564173 97.6310223 34.355831 97.4618096 34.1554401 97.3490012 34.2556356L90.9189189 35.3577854C91.0317274 34.2556356 91.0881316 33.1534858 91.0881316 32.051336 91.0881316 27.8431276 90.4676851 23.9355055 89.3960047 20.4286651L90.8625147.990750187C90.9189189.289382122 90.5804935-.211595068 90.2420682.0889912458L79.8636898 7.80403997C78.6792009 7.30306278 77.3819036 7.00247646 76.0846063 7.00247646 74.787309 7.00247646 73.4900118 7.30306278 72.3055229 7.80403997L61.9271445.0889912458C61.5887192-.211595068 61.2502938.38957756 61.306698.990750187L62.773208 20.4286651C61.7015276 23.9355055 61.0810811 27.8431276 61.0810811 32.051336 61.0810811 33.1534858 61.1374853 34.2556356 61.2502938 35.3577854L54.7074031 34.1554401C54.5381904 34.1554401 54.4253819 34.355831 54.4253819 34.5562219 54.4253819 34.8568082 54.5381904 35.0571991 54.6509988 35.0571991L61.306698 36.2595443C61.4759107 37.4618896 61.7015276 38.6642349 61.9835488 39.7663847L52.2820212 39.7663847C52.1128085 39.7663847 52 39.9667755 52 40.2673619 52 40.5679482 52.1128085 40.7683391 52.2820212 40.7683391L62.2655699 40.7683391C62.6039953 41.8704889 62.9424207 42.9726387 63.3372503 43.9745931L54.6509988 45.5777201C54.4817861 45.5777201 54.3689777 45.8783064 54.4253819 46.0786973 54.4253819 46.3792836 54.5381904 46.5796745 54.7074031 46.5796745 54.7074031 46.5796745 54.7074031 46.5796745 54.7074031 46.5796745L63.7320799 44.9765474C63.7320799 44.9765474 63.7320799 44.9765474 63.7320799 44.9765474 63.7320799 44.9765474 63.7320799 44.9765474 63.7320799 44.9765474 66.8907168 52.190619 72.1927145 57 75.9717979 57 80.0893067 57 85.2784959 52.190619 88.3243243 44.9765474L97.2925969 46.479479C97.2925969 46.479479 97.2925969 46.479479 97.2925969 46.479479 97.4618096 46.479479 97.5746181 46.2790881 97.5746181 45.9785018 97.5746181 45.6779155 97.4618096 45.4775246 97.3490012 45.4775246L88.7191539 43.9745931C89.1139835 42.9726387 89.4524089 41.8704889 89.7908343 40.7683391L99.7179788 40.7683391C99.8871915 40.7683391 100 40.5679482 100 40.2673619 100 39.9667755 99.8871915 39.8665801 99.7743831 39.8665801zM151.774383 39.8665801L142.072855 39.8665801C142.354877 38.7644303 142.580494 37.562085 142.749706 36.2595443L149.405405 35.1573945C149.574618 35.1573945 149.687427 34.8568082 149.631022 34.6564173 149.631022 34.355831 149.46181 34.1554401 149.349001 34.2556356L142.918919 35.3577854C143.031727 34.2556356 143.088132 33.1534858 143.088132 32.051336 143.088132 27.8431276 142.467685 23.9355055 141.396005 20.4286651L142.862515.990750187C142.918919.289382122 142.580494-.211595068 142.242068.0889912458L131.86369 7.80403997C130.679201 7.30306278 129.381904 7.00247646 128.084606 7.00247646 126.787309 7.00247646 125.490012 7.30306278 124.305523 7.80403997L113.927145.0889912458C113.588719-.211595068 113.250294.38957756 113.306698.990750187L114.773208 20.4286651C113.701528 23.9355055 113.081081 27.8431276 113.081081 32.051336 113.081081 33.1534858 113.137485 34.2556356 113.250294 35.3577854L106.707403 34.1554401C106.53819 34.1554401 106.425382 34.355831 106.425382 34.5562219 106.425382 34.8568082 106.53819 35.0571991 106.650999 35.0571991L113.306698 36.2595443C113.475911 37.4618896 113.701528 38.6642349 113.983549 39.7663847L104.282021 39.7663847C104.112808 39.7663847 104 39.9667755 104 40.2673619 104 40.5679482 104.112808 40.7683391 104.282021 40.7683391L114.26557 40.7683391C114.603995 41.8704889 114.942421 42.9726387 115.33725 43.9745931L106.650999 45.5777201C106.481786 45.5777201 106.368978 45.8783064 106.425382 46.0786973 106.425382 46.3792836 106.53819 46.5796745 106.707403 46.5796745 106.707403 46.5796745 106.707403 46.5796745 106.707403 46.5796745L115.73208 44.9765474C115.73208 44.9765474 115.73208 44.9765474 115.73208 44.9765474 115.73208 44.9765474 115.73208 44.9765474 115.73208 44.9765474 118.890717 52.190619 124.192714 57 127.971798 57 132.089307 57 137.278496 52.190619 140.324324 44.9765474L149.292597 46.479479C149.292597 46.479479 149.292597 46.479479 149.292597 46.479479 149.46181 46.479479 149.574618 46.2790881 149.574618 45.9785018 149.574618 45.6779155 149.46181 45.4775246 149.349001 45.4775246L140.719154 43.9745931C141.113984 42.9726387 141.452409 41.8704889 141.790834 40.7683391L151.717979 40.7683391C151.887192 40.7683391 152 40.5679482 152 40.2673619 152 39.9667755 151.887192 39.8665801 151.774383 39.8665801zM203.774383 39.8665801L194.072855 39.8665801C194.354877 38.7644303 194.580494 37.562085 194.749706 36.2595443L201.405405 35.1573945C201.574618 35.1573945 201.687427 34.8568082 201.631022 34.6564173 201.631022 34.355831 201.46181 34.1554401 201.349001 34.2556356L194.918919 35.3577854C195.031727 34.2556356 195.088132 33.1534858 195.088132 32.051336 195.088132 27.8431276 194.467685 23.9355055 193.396005 20.4286651L194.862515.990750187C194.918919.289382122 194.580494-.211595068 194.242068.0889912458L183.86369 7.80403997C182.679201 7.30306278 181.381904 7.00247646 180.084606 7.00247646 178.787309 7.00247646 177.490012 7.30306278 176.305523 7.80403997L165.927145.0889912458C165.588719-.211595068 165.250294.38957756 165.306698.990750187L166.773208 20.4286651C165.701528 23.9355055 165.081081 27.8431276 165.081081 32.051336 165.081081 33.1534858 165.137485 34.2556356 165.250294 35.3577854L158.707403 34.1554401C158.53819 34.1554401 158.425382 34.355831 158.425382 34.5562219 158.425382 34.8568082 158.53819 35.0571991 158.650999 35.0571991L165.306698 36.2595443C165.475911 37.4618896 165.701528 38.6642349 165.983549 39.7663847L156.282021 39.7663847C156.112808 39.7663847 156 39.9667755 156 40.2673619 156 40.5679482 156.112808 40.7683391 156.282021 40.7683391L166.26557 40.7683391C166.603995 41.8704889 166.942421 42.9726387 167.33725 43.9745931L158.650999 45.5777201C158.481786 45.5777201 158.368978 45.8783064 158.425382 46.0786973 158.425382 46.3792836 158.53819 46.5796745 158.707403 46.5796745 158.707403 46.5796745 158.707403 46.5796745 158.707403 46.5796745L167.73208 44.9765474C167.73208 44.9765474 167.73208 44.9765474 167.73208 44.9765474 167.73208 44.9765474 167.73208 44.9765474 167.73208 44.9765474 170.890717 52.190619 176.192714 57 179.971798 57 184.089307 57 189.278496 52.190619 192.324324 44.9765474L201.292597 46.479479C201.292597 46.479479 201.292597 46.479479 201.292597 46.479479 201.46181 46.479479 201.574618 46.2790881 201.574618 45.9785018 201.574618 45.6779155 201.46181 45.4775246 201.349001 45.4775246L192.719154 43.9745931C193.113984 42.9726387 193.452409 41.8704889 193.790834 40.7683391L203.717979 40.7683391C203.887192 40.7683391 204 40.5679482 204 40.2673619 204 39.9667755 203.887192 39.8665801 203.774383 39.8665801zM255.774383 41.8665801L246.072855 41.8665801C246.354877 40.7644303 246.580494 39.562085 246.749706 38.2595443L253.405405 37.1573945C253.574618 37.1573945 253.687427 36.8568082 253.631022 36.6564173 253.631022 36.355831 253.46181 36.1554401 253.349001 36.2556356L246.918919 37.3577854C247.031727 36.2556356 247.088132 35.1534858 247.088132 34.051336 247.088132 29.8431276 246.467685 25.9355055 245.396005 22.4286651L246.862515 2.99075019C246.918919 2.28938212 246.580494 1.78840493 246.242068 2.08899125L235.86369 9.80403997C234.679201 9.30306278 233.381904 9.00247646 232.084606 9.00247646 230.787309 9.00247646 229.490012 9.30306278 228.305523 9.80403997L217.927145 2.08899125C217.588719 1.78840493 217.250294 2.38957756 217.306698 2.99075019L218.773208 22.4286651C217.701528 25.9355055 217.081081 29.8431276 217.081081 34.051336 217.081081 35.1534858 217.137485 36.2556356 217.250294 37.3577854L210.707403 36.1554401C210.53819 36.1554401 210.425382 36.355831 210.425382 36.5562219 210.425382 36.8568082 210.53819 37.0571991 210.650999 37.0571991L217.306698 38.2595443C217.475911 39.4618896 217.701528 40.6642349 217.983549 41.7663847L208.282021 41.7663847C208.112808 41.7663847 208 41.9667755 208 42.2673619 208 42.5679482 208.112808 42.7683391 208.282021 42.7683391L218.26557 42.7683391C218.603995 43.8704889 218.942421 44.9726387 219.33725 45.9745931L210.650999 47.5777201C210.481786 47.5777201 210.368978 47.8783064 210.425382 48.0786973 210.425382 48.3792836 210.53819 48.5796745 210.707403 48.5796745 210.707403 48.5796745 210.707403 48.5796745 210.707403 48.5796745L219.73208 46.9765474C219.73208 46.9765474 219.73208 46.9765474 219.73208 46.9765474 219.73208 46.9765474 219.73208 46.9765474 219.73208 46.9765474 222.890717 54.190619 228.192714 59 231.971798 59 236.089307 59 241.278496 54.190619 244.324324 46.9765474L253.292597 48.479479C253.292597 48.479479 253.292597 48.479479 253.292597 48.479479 253.46181 48.479479 253.574618 48.2790881 253.574618 47.9785018 253.574618 47.6779155 253.46181 47.4775246 253.349001 47.4775246L244.719154 45.9745931C245.113984 44.9726387 245.452409 43.8704889 245.790834 42.7683391L255.717979 42.7683391C255.887192 42.7683391 256 42.5679482 256 42.2673619 256 41.9667755 255.887192 41.8665801 255.774383 41.8665801zM307.774383 41.8665801L298.072855 41.8665801C298.354877 40.7644303 298.580494 39.562085 298.749706 38.2595443L305.405405 37.1573945C305.574618 37.1573945 305.687427 36.8568082 305.631022 36.6564173 305.631022 36.355831 305.46181 36.1554401 305.349001 36.2556356L298.918919 37.3577854C299.031727 36.2556356 299.088132 35.1534858 299.088132 34.051336 299.088132 29.8431276 298.467685 25.9355055 297.396005 22.4286651L298.862515 2.99075019C298.918919 2.28938212 298.580494 1.78840493 298.242068 2.08899125L287.86369 9.80403997C286.679201 9.30306278 285.381904 9.00247646 284.084606 9.00247646 282.787309 9.00247646 281.490012 9.30306278 280.305523 9.80403997L269.927145 2.08899125C269.588719 1.78840493 269.250294 2.38957756 269.306698 2.99075019L270.773208 22.4286651C269.701528 25.9355055 269.081081 29.8431276 269.081081 34.051336 269.081081 35.1534858 269.137485 36.2556356 269.250294 37.3577854L262.707403 36.1554401C262.53819 36.1554401 262.425382 36.355831 262.425382 36.5562219 262.425382 36.8568082 262.53819 37.0571991 262.650999 37.0571991L269.306698 38.2595443C269.475911 39.4618896 269.701528 40.6642349 269.983549 41.7663847L260.282021 41.7663847C260.112808 41.7663847 260 41.9667755 260 42.2673619 260 42.5679482 260.112808 42.7683391 260.282021 42.7683391L270.26557 42.7683391C270.603995 43.8704889 270.942421 44.9726387 271.33725 45.9745931L262.650999 47.5777201C262.481786 47.5777201 262.368978 47.8783064 262.425382 48.0786973 262.425382 48.3792836 262.53819 48.5796745 262.707403 48.5796745 262.707403 48.5796745 262.707403 48.5796745 262.707403 48.5796745L271.73208 46.9765474C271.73208 46.9765474 271.73208 46.9765474 271.73208 46.9765474 271.73208 46.9765474 271.73208 46.9765474 271.73208 46.9765474 274.890717 54.190619 280.192714 59 283.971798 59 288.089307 59 293.278496 54.190619 296.324324 46.9765474L305.292597 48.479479C305.292597 48.479479 305.292597 48.479479 305.292597 48.479479 305.46181 48.479479 305.574618 48.2790881 305.574618 47.9785018 305.574618 47.6779155 305.46181 47.4775246 305.349001 47.4775246L296.719154 45.9745931C297.113984 44.9726387 297.452409 43.8704889 297.790834 42.7683391L307.717979 42.7683391C307.887192 42.7683391 308 42.5679482 308 42.2673619 308 41.9667755 307.887192 41.8665801 307.774383 41.8665801zM359.774383 41.8665801L350.072855 41.8665801C350.354877 40.7644303 350.580494 39.562085 350.749706 38.2595443L357.405405 37.1573945C357.574618 37.1573945 357.687427 36.8568082 357.631022 36.6564173 357.631022 36.355831 357.46181 36.1554401 357.349001 36.2556356L350.918919 37.3577854C351.031727 36.2556356 351.088132 35.1534858 351.088132 34.051336 351.088132 29.8431276 350.467685 25.9355055 349.396005 22.4286651L350.862515 2.99075019C350.918919 2.28938212 350.580494 1.78840493 350.242068 2.08899125L339.86369 9.80403997C338.679201 9.30306278 337.381904 9.00247646 336.084606 9.00247646 334.787309 9.00247646 333.490012 9.30306278 332.305523 9.80403997L321.927145 2.08899125C321.588719 1.78840493 321.250294 2.38957756 321.306698 2.99075019L322.773208 22.4286651C321.701528 25.9355055 321.081081 29.8431276 321.081081 34.051336 321.081081 35.1534858 321.137485 36.2556356 321.250294 37.3577854L314.707403 36.1554401C314.53819 36.1554401 314.425382 36.355831 314.425382 36.5562219 314.425382 36.8568082 314.53819 37.0571991 314.650999 37.0571991L321.306698 38.2595443C321.475911 39.4618896 321.701528 40.6642349 321.983549 41.7663847L312.282021 41.7663847C312.112808 41.7663847 312 41.9667755 312 42.2673619 312 42.5679482 312.112808 42.7683391 312.282021 42.7683391L322.26557 42.7683391C322.603995 43.8704889 322.942421 44.9726387 323.33725 45.9745931L314.650999 47.5777201C314.481786 47.5777201 314.368978 47.8783064 314.425382 48.0786973 314.425382 48.3792836 314.53819 48.5796745 314.707403 48.5796745 314.707403 48.5796745 314.707403 48.5796745 314.707403 48.5796745L323.73208 46.9765474C323.73208 46.9765474 323.73208 46.9765474 323.73208 46.9765474 323.73208 46.9765474 323.73208 46.9765474 323.73208 46.9765474 326.890717 54.190619 332.192714 59 335.971798 59 340.089307 59 345.278496 54.190619 348.324324 46.9765474L357.292597 48.479479C357.292597 48.479479 357.292597 48.479479 357.292597 48.479479 357.46181 48.479479 357.574618 48.2790881 357.574618 47.9785018 357.574618 47.6779155 357.46181 47.4775246 357.349001 47.4775246L348.719154 45.9745931C349.113984 44.9726387 349.452409 43.8704889 349.790834 42.7683391L359.717979 42.7683391C359.887192 42.7683391 360 42.5679482 360 42.2673619 360 41.9667755 359.887192 41.8665801 359.774383 41.8665801z"/>
    </g>
    <path fill="#9B9B9B" fill-rule="nonzero" d="M207.60047 108.86658L190.420682 108.86658C190.920094 107.76443 191.319624 106.562085 191.619271 105.259544L203.405405 104.157395C203.705053 104.157395 203.904818 103.856808 203.804935 103.656417 203.804935 103.355831 203.505288 103.15544 203.305523 103.255636L191.918919 104.357785C192.118684 103.255636 192.218566 102.153486 192.218566 101.051336 192.218566 96.8431276 191.119859 92.9355055 189.222092 89.4286651L191.819036 69.9907502C191.918919 69.2893821 191.319624 68.7884049 190.720329 69.0889912L172.341951 76.80404C170.244418 76.3030628 167.947121 76.0024765 165.649824 76.0024765 163.352526 76.0024765 161.055229 76.3030628 158.957697 76.80404L140.579318 69.0889912C139.980024 68.7884049 139.380729 69.3895776 139.480611 69.9907502L142.077556 89.4286651C140.179788 92.9355055 139.081081 96.8431276 139.081081 101.051336 139.081081 102.153486 139.180964 103.255636 139.380729 104.357785L127.79436 103.15544C127.494712 103.15544 127.294947 103.355831 127.294947 103.556222 127.294947 103.856808 127.494712 104.057199 127.694477 104.057199L139.480611 105.259544C139.780259 106.46189 140.179788 107.664235 140.679201 108.766385L123.499412 108.766385C123.199765 108.766385 123 108.966776 123 109.267362 123 109.567948 123.199765 109.768339 123.499412 109.768339L141.178613 109.768339C141.777908 110.870489 142.377203 111.972639 143.076381 112.974593L127.694477 114.57772C127.39483 114.57772 127.195065 114.878306 127.294947 115.078697 127.294947 115.379284 127.494712 115.579674 127.79436 115.579674 127.79436 115.579674 127.79436 115.579674 127.79436 115.579674L143.775558 113.976547C143.775558 113.976547 143.775558 113.976547 143.775558 113.976547 143.775558 113.976547 143.775558 113.976547 143.775558 113.976547 149.368978 121.190619 158.757932 126 165.450059 126 172.741481 126 181.93067 121.190619 187.324324 113.976547L203.20564 115.479479C203.20564 115.479479 203.20564 115.479479 203.20564 115.479479 203.505288 115.479479 203.705053 115.279088 203.705053 114.978502 203.705053 114.677916 203.505288 114.477525 203.305523 114.477525L188.023502 112.974593C188.722679 111.972639 189.321974 110.870489 189.921269 109.768339L207.500588 109.768339C207.800235 109.768339 208 109.567948 208 109.267362 208 108.966776 207.800235 108.86658 207.60047 108.86658zM377.60047 108.86658L360.420682 108.86658C360.920094 107.76443 361.319624 106.562085 361.619271 105.259544L373.405405 104.157395C373.705053 104.157395 373.904818 103.856808 373.804935 103.656417 373.804935 103.355831 373.505288 103.15544 373.305523 103.255636L361.918919 104.357785C362.118684 103.255636 362.218566 102.153486 362.218566 101.051336 362.218566 96.8431276 361.119859 92.9355055 359.222092 89.4286651L361.819036 69.9907502C361.918919 69.2893821 361.319624 68.7884049 360.720329 69.0889912L342.341951 76.80404C340.244418 76.3030628 337.947121 76.0024765 335.649824 76.0024765 333.352526 76.0024765 331.055229 76.3030628 328.957697 76.80404L310.579318 69.0889912C309.980024 68.7884049 309.380729 69.3895776 309.480611 69.9907502L312.077556 89.4286651C310.179788 92.9355055 309.081081 96.8431276 309.081081 101.051336 309.081081 102.153486 309.180964 103.255636 309.380729 104.357785L297.79436 103.15544C297.494712 103.15544 297.294947 103.355831 297.294947 103.556222 297.294947 103.856808 297.494712 104.057199 297.694477 104.057199L309.480611 105.259544C309.780259 106.46189 310.179788 107.664235 310.679201 108.766385L293.499412 108.766385C293.199765 108.766385 293 108.966776 293 109.267362 293 109.567948 293.199765 109.768339 293.499412 109.768339L311.178613 109.768339C311.777908 110.870489 312.377203 111.972639 313.076381 112.974593L297.694477 114.57772C297.39483 114.57772 297.195065 114.878306 297.294947 115.078697 297.294947 115.379284 297.494712 115.579674 297.79436 115.579674 297.79436 115.579674 297.79436 115.579674 297.79436 115.579674L313.775558 113.976547C313.775558 113.976547 313.775558 113.976547 313.775558 113.976547 313.775558 113.976547 313.775558 113.976547 313.775558 113.976547 319.368978 121.190619 328.757932 126 335.450059 126 342.741481 126 351.93067 121.190619 357.324324 113.976547L373.20564 115.479479C373.20564 115.479479 373.20564 115.479479 373.20564 115.479479 373.505288 115.479479 373.705053 115.279088 373.705053 114.978502 373.705053 114.677916 373.505288 114.477525 373.305523 114.477525L358.023502 112.974593C358.722679 111.972639 359.321974 110.870489 359.921269 109.768339L377.500588 109.768339C377.800235 109.768339 378 109.567948 378 109.267362 378 108.966776 377.800235 108.86658 377.60047 108.86658zM122.60047 222.86658L105.420682 222.86658C105.920094 221.76443 106.319624 220.562085 106.619271 219.259544L118.405405 218.157395C118.705053 218.157395 118.904818 217.856808 118.804935 217.656417 118.804935 217.355831 118.505288 217.15544 118.305523 217.255636L106.918919 218.357785C107.118684 217.255636 107.218566 216.153486 107.218566 215.051336 107.218566 210.843128 106.119859 206.935505 104.222092 203.428665L106.819036 183.99075C106.918919 183.289382 106.319624 182.788405 105.720329 183.088991L87.3419506 190.80404C85.2444183 190.303063 82.947121 190.002476 80.6498237 190.002476 78.3525264 190.002476 76.0552291 190.303063 73.9576968 190.80404L55.5793184 183.088991C54.9800235 182.788405 54.3807286 183.389578 54.480611 183.99075L57.0775558 203.428665C55.1797885 206.935505 54.0810811 210.843128 54.0810811 215.051336 54.0810811 216.153486 54.1809636 217.255636 54.3807286 218.357785L42.7943596 217.15544C42.4947121 217.15544 42.2949471 217.355831 42.2949471 217.556222 42.2949471 217.856808 42.4947121 218.057199 42.6944771 218.057199L54.480611 219.259544C54.7802585 220.46189 55.1797885 221.664235 55.6792009 222.766385L38.4994125 222.766385C38.199765 222.766385 38 222.966776 38 223.267362 38 223.567948 38.199765 223.768339 38.4994125 223.768339L56.1786134 223.768339C56.7779083 224.870489 57.3772033 225.972639 58.0763807 226.974593L42.6944771 228.57772C42.3948296 228.57772 42.1950646 228.878306 42.2949471 229.078697 42.2949471 229.379284 42.4947121 229.579674 42.7943596 229.579674 42.7943596 229.579674 42.7943596 229.579674 42.7943596 229.579674L58.7755582 227.976547C58.7755582 227.976547 58.7755582 227.976547 58.7755582 227.976547 58.7755582 227.976547 58.7755582 227.976547 58.7755582 227.976547 64.3689777 235.190619 73.7579318 240 80.4500588 240 87.7414806 240 96.9306698 235.190619 102.324324 227.976547L118.20564 229.479479C118.20564 229.479479 118.20564 229.479479 118.20564 229.479479 118.505288 229.479479 118.705053 229.279088 118.705053 228.978502 118.705053 228.677916 118.505288 228.477525 118.305523 228.477525L103.023502 226.974593C103.722679 225.972639 104.321974 224.870489 104.921269 223.768339L122.500588 223.768339C122.800235 223.768339 123 223.567948 123 223.267362 123 222.966776 122.800235 222.86658 122.60047 222.86658zM207.60047 222.86658L190.420682 222.86658C190.920094 221.76443 191.319624 220.562085 191.619271 219.259544L203.405405 218.157395C203.705053 218.157395 203.904818 217.856808 203.804935 217.656417 203.804935 217.355831 203.505288 217.15544 203.305523 217.255636L191.918919 218.357785C192.118684 217.255636 192.218566 216.153486 192.218566 215.051336 192.218566 210.843128 191.119859 206.935505 189.222092 203.428665L191.819036 183.99075C191.918919 183.289382 191.319624 182.788405 190.720329 183.088991L172.341951 190.80404C170.244418 190.303063 167.947121 190.002476 165.649824 190.002476 163.352526 190.002476 161.055229 190.303063 158.957697 190.80404L140.579318 183.088991C139.980024 182.788405 139.380729 183.389578 139.480611 183.99075L142.077556 203.428665C140.179788 206.935505 139.081081 210.843128 139.081081 215.051336 139.081081 216.153486 139.180964 217.255636 139.380729 218.357785L127.79436 217.15544C127.494712 217.15544 127.294947 217.355831 127.294947 217.556222 127.294947 217.856808 127.494712 218.057199 127.694477 218.057199L139.480611 219.259544C139.780259 220.46189 140.179788 221.664235 140.679201 222.766385L123.499412 222.766385C123.199765 222.766385 123 222.966776 123 223.267362 123 223.567948 123.199765 223.768339 123.499412 223.768339L141.178613 223.768339C141.777908 224.870489 142.377203 225.972639 143.076381 226.974593L127.694477 228.57772C127.39483 228.57772 127.195065 228.878306 127.294947 229.078697 127.294947 229.379284 127.494712 229.579674 127.79436 229.579674 127.79436 229.579674 127.79436 229.579674 127.79436 229.579674L143.775558 227.976547C143.775558 227.976547 143.775558 227.976547 143.775558 227.976547 143.775558 227.976547 143.775558 227.976547 143.775558 227.976547 149.368978 235.190619 158.757932 240 165.450059 240 172.741481 240 181.93067 235.190619 187.324324 227.976547L203.20564 229.479479C203.20564 229.479479 203.20564 229.479479 203.20564 229.479479 203.505288 229.479479 203.705053 229.279088 203.705053 228.978502 203.705053 228.677916 203.505288 228.477525 203.305523 228.477525L188.023502 226.974593C188.722679 225.972639 189.321974 224.870489 189.921269 223.768339L207.500588 223.768339C207.800235 223.768339 208 223.567948 208 223.267362 208 222.966776 207.800235 222.86658 207.60047 222.86658z"/>
    <path fill="pink" fill-rule="nonzero" d="M79.5,184.5 L91.5,160.5 L67.5,160.5 L79.5,184.5 Z M77.5,148 L77.5,162.5 L77.5,164.5 L81.5,164.5 L81.5,162.5 L81.5,148 L81.5,146 L77.5,146 L77.5,148 Z"/>
    <polyline stroke="pink" stroke-width="4" points="80 147 334 147 334 128"/>
    <text fill="#4A4A4A" font-family="Montserrat-Regular, Montserrat" font-size="24">
      <tspan x="19" y="42">wrap</tspan>
    </text>
    <text fill="#4A4A4A" font-family="Montserrat-Regular, Montserrat" font-size="24">
      <tspan x="436" y="45">no-wrap (default)</tspan>
    </text>
  </g>
</svg>
