<svg xmlns="http://www.w3.org/2000/svg" width="231" height="169" viewBox="0 0 231 169">
  <g fill="none" fill-rule="evenodd">
    <rect width="196" height="68" x="19" y="10" fill="#F7F7F7" fill-rule="nonzero"/>
    <rect width="196" height="68" x="19" y="87" fill="#F7F7F7" fill-rule="nonzero"/>
    <path fill="#9B9B9B" fill-rule="nonzero" d="M86.7414806,51.8783064 L75.6251469,51.8783064 C75.9482961,51.1628758 76.2068155,50.3824061 76.4007051,49.5368972 L84.027027,48.8214666 C84.2209166,48.8214666 84.3501763,48.6263492 84.2855464,48.4962709 C84.2855464,48.3011535 84.0916569,48.1710752 83.9623972,48.2361143 L76.5945946,48.9515449 C76.7238543,48.2361143 76.7884841,47.5206837 76.7884841,46.8052532 C76.7884841,44.0736091 76.0775558,41.5370825 74.8495887,39.2607125 L76.5299647,26.6431185 C76.5945946,26.1878445 76.2068155,25.8626488 75.8190364,26.0577662 L63.9271445,31.0657803 C62.5699177,30.7405846 61.0834313,30.5454672 59.5969448,30.5454672 C58.1104583,30.5454672 56.6239718,30.7405846 55.266745,31.0657803 L43.3748531,26.0577662 C42.987074,25.8626488 42.5992949,26.2528837 42.6639248,26.6431185 L44.3443008,39.2607125 C43.1163337,41.5370825 42.4054054,44.0736091 42.4054054,46.8052532 C42.4054054,47.5206837 42.4700353,48.2361143 42.5992949,48.9515449 L35.1022327,48.1710752 C34.9083431,48.1710752 34.7790834,48.3011535 34.7790834,48.4312318 C34.7790834,48.6263492 34.9083431,48.7564275 35.0376028,48.7564275 L42.6639248,49.5368972 C42.8578143,50.3173669 43.1163337,51.0978367 43.439483,51.8132672 L32.3231492,51.8132672 C32.1292597,51.8132672 32,51.9433455 32,52.138463 C32,52.3335804 32.1292597,52.4636587 32.3231492,52.4636587 L43.7626322,52.4636587 C44.1504113,53.1790893 44.5381904,53.8945198 44.9905993,54.5449113 L35.0376028,55.5855376 C34.8437133,55.5855376 34.7144536,55.780655 34.7790834,55.9107333 C34.7790834,56.1058507 34.9083431,56.235929 35.1022327,56.235929 C35.1022327,56.235929 35.1022327,56.235929 35.1022327,56.235929 L45.4430082,55.1953027 C45.4430082,55.1953027 45.4430082,55.1953027 45.4430082,55.1953027 C45.4430082,55.1953027 45.4430082,55.1953027 45.4430082,55.1953027 C49.0622797,59.8781211 55.1374853,63 59.4676851,63 C64.1856639,63 70.1316099,59.8781211 73.6216216,55.1953027 L83.8977673,56.1708899 C83.8977673,56.1708899 83.8977673,56.1708899 83.8977673,56.1708899 C84.0916569,56.1708899 84.2209166,56.0408116 84.2209166,55.8456942 C84.2209166,55.6505767 84.0916569,55.5204984 83.9623972,55.5204984 L74.0740306,54.5449113 C74.5264395,53.8945198 74.9142186,53.1790893 75.3019976,52.4636587 L86.6768508,52.4636587 C86.8707403,52.4636587 87,52.3335804 87,52.138463 C87,51.9433455 86.8707403,51.8783064 86.7414806,51.8783064 Z"/>
    <text fill="#FFF" font-family="Montserrat-Regular, Montserrat" font-size="24">
      <tspan x="56" y="54">1</tspan>
    </text>
    <path fill="#9B9B9B" fill-rule="nonzero" d="M60.8354877,128.878306 L53.7614571,128.878306 C53.9670975,128.162876 54.1316099,127.382406 54.2549941,126.536897 L59.1081081,125.821467 C59.2314924,125.821467 59.3137485,125.626349 59.2726204,125.496271 C59.2726204,125.301153 59.1492362,125.171075 59.06698,125.236114 L54.3783784,125.951545 C54.4606345,125.236114 54.5017626,124.520684 54.5017626,123.805253 C54.5017626,121.073609 54.0493537,118.537083 53.2679201,116.260712 L54.3372503,103.643119 C54.3783784,103.187845 54.1316099,102.862649 53.8848414,103.057766 L46.3172738,108.06578 C45.453584,107.740585 44.5076381,107.545467 43.5616921,107.545467 C42.6157462,107.545467 41.6698002,107.740585 40.8061105,108.06578 L33.2385429,103.057766 C32.9917744,102.862649 32.7450059,103.252884 32.786134,103.643119 L33.8554642,116.260712 C33.0740306,118.537083 32.6216216,121.073609 32.6216216,123.805253 C32.6216216,124.520684 32.6627497,125.236114 32.7450059,125.951545 L27.9741481,125.171075 C27.8507638,125.171075 27.7685076,125.301153 27.7685076,125.431232 C27.7685076,125.626349 27.8507638,125.756427 27.93302,125.756427 L32.786134,126.536897 C32.9095182,127.317367 33.0740306,128.097837 33.279671,128.813267 L26.2056404,128.813267 C26.0822562,128.813267 26,128.943346 26,129.138463 C26,129.33358 26.0822562,129.463659 26.2056404,129.463659 L33.4853114,129.463659 C33.7320799,130.179089 33.9788484,130.89452 34.266745,131.544911 L27.93302,132.585538 C27.8096357,132.585538 27.7273796,132.780655 27.7685076,132.910733 C27.7685076,133.105851 27.8507638,133.235929 27.9741481,133.235929 C27.9741481,133.235929 27.9741481,133.235929 27.9741481,133.235929 L34.5546416,132.195303 C34.5546416,132.195303 34.5546416,132.195303 34.5546416,132.195303 C34.5546416,132.195303 34.5546416,132.195303 34.5546416,132.195303 C36.8578143,136.878121 40.7238543,140 43.479436,140 C46.4817861,140 50.2655699,136.878121 52.4864865,132.195303 L59.0258519,133.17089 C59.0258519,133.17089 59.0258519,133.17089 59.0258519,133.17089 C59.1492362,133.17089 59.2314924,133.040812 59.2314924,132.845694 C59.2314924,132.650577 59.1492362,132.520498 59.06698,132.520498 L52.7743831,131.544911 C53.0622797,130.89452 53.3090482,130.179089 53.5558167,129.463659 L60.7943596,129.463659 C60.9177438,129.463659 61,129.33358 61,129.138463 C61,128.943346 60.9177438,128.878306 60.8354877,128.878306 Z"/>
    <text fill="#FFF" font-family="Montserrat-Regular, Montserrat" font-size="24">
      <tspan x="39" y="130">1</tspan>
    </text>
    <path fill="#9B9B9B" fill-rule="nonzero" d="M202.835488 128.878306L195.761457 128.878306C195.967098 128.162876 196.13161 127.382406 196.254994 126.536897L201.108108 125.821467C201.231492 125.821467 201.313749 125.626349 201.27262 125.496271 201.27262 125.301153 201.149236 125.171075 201.06698 125.236114L196.378378 125.951545C196.460635 125.236114 196.501763 124.520684 196.501763 123.805253 196.501763 121.073609 196.049354 118.537083 195.26792 116.260712L196.33725 103.643119C196.378378 103.187845 196.13161 102.862649 195.884841 103.057766L188.317274 108.06578C187.453584 107.740585 186.507638 107.545467 185.561692 107.545467 184.615746 107.545467 183.6698 107.740585 182.80611 108.06578L175.238543 103.057766C174.991774 102.862649 174.745006 103.252884 174.786134 103.643119L175.855464 116.260712C175.074031 118.537083 174.621622 121.073609 174.621622 123.805253 174.621622 124.520684 174.66275 125.236114 174.745006 125.951545L169.974148 125.171075C169.850764 125.171075 169.768508 125.301153 169.768508 125.431232 169.768508 125.626349 169.850764 125.756427 169.93302 125.756427L174.786134 126.536897C174.909518 127.317367 175.074031 128.097837 175.279671 128.813267L168.20564 128.813267C168.082256 128.813267 168 128.943346 168 129.138463 168 129.33358 168.082256 129.463659 168.20564 129.463659L175.485311 129.463659C175.73208 130.179089 175.978848 130.89452 176.266745 131.544911L169.93302 132.585538C169.809636 132.585538 169.72738 132.780655 169.768508 132.910733 169.768508 133.105851 169.850764 133.235929 169.974148 133.235929 169.974148 133.235929 169.974148 133.235929 169.974148 133.235929L176.554642 132.195303C176.554642 132.195303 176.554642 132.195303 176.554642 132.195303 176.554642 132.195303 176.554642 132.195303 176.554642 132.195303 178.857814 136.878121 182.723854 140 185.479436 140 188.481786 140 192.26557 136.878121 194.486486 132.195303L201.025852 133.17089C201.025852 133.17089 201.025852 133.17089 201.025852 133.17089 201.149236 133.17089 201.231492 133.040812 201.231492 132.845694 201.231492 132.650577 201.149236 132.520498 201.06698 132.520498L194.774383 131.544911C195.06228 130.89452 195.309048 130.179089 195.555817 129.463659L202.79436 129.463659C202.917744 129.463659 203 129.33358 203 129.138463 203 128.943346 202.917744 128.878306 202.835488 128.878306zM145.741481 51.8783064L134.625147 51.8783064C134.948296 51.1628758 135.206816 50.3824061 135.400705 49.5368972L143.027027 48.8214666C143.220917 48.8214666 143.350176 48.6263492 143.285546 48.4962709 143.285546 48.3011535 143.091657 48.1710752 142.962397 48.2361143L135.594595 48.9515449C135.723854 48.2361143 135.788484 47.5206837 135.788484 46.8052532 135.788484 44.0736091 135.077556 41.5370825 133.849589 39.2607125L135.529965 26.6431185C135.594595 26.1878445 135.206816 25.8626488 134.819036 26.0577662L122.927145 31.0657803C121.569918 30.7405846 120.083431 30.5454672 118.596945 30.5454672 117.110458 30.5454672 115.623972 30.7405846 114.266745 31.0657803L102.374853 26.0577662C101.987074 25.8626488 101.599295 26.2528837 101.663925 26.6431185L103.344301 39.2607125C102.116334 41.5370825 101.405405 44.0736091 101.405405 46.8052532 101.405405 47.5206837 101.470035 48.2361143 101.599295 48.9515449L94.1022327 48.1710752C93.9083431 48.1710752 93.7790834 48.3011535 93.7790834 48.4312318 93.7790834 48.6263492 93.9083431 48.7564275 94.0376028 48.7564275L101.663925 49.5368972C101.857814 50.3173669 102.116334 51.0978367 102.439483 51.8132672L91.3231492 51.8132672C91.1292597 51.8132672 91 51.9433455 91 52.138463 91 52.3335804 91.1292597 52.4636587 91.3231492 52.4636587L102.762632 52.4636587C103.150411 53.1790893 103.53819 53.8945198 103.990599 54.5449113L94.0376028 55.5855376C93.8437133 55.5855376 93.7144536 55.780655 93.7790834 55.9107333 93.7790834 56.1058507 93.9083431 56.235929 94.1022327 56.235929 94.1022327 56.235929 94.1022327 56.235929 94.1022327 56.235929L104.443008 55.1953027C104.443008 55.1953027 104.443008 55.1953027 104.443008 55.1953027 104.443008 55.1953027 104.443008 55.1953027 104.443008 55.1953027 108.06228 59.8781211 114.137485 63 118.467685 63 123.185664 63 129.13161 59.8781211 132.621622 55.1953027L142.897767 56.1708899C142.897767 56.1708899 142.897767 56.1708899 142.897767 56.1708899 143.091657 56.1708899 143.220917 56.0408116 143.220917 55.8456942 143.220917 55.6505767 143.091657 55.5204984 142.962397 55.5204984L133.074031 54.5449113C133.526439 53.8945198 133.914219 53.1790893 134.301998 52.4636587L145.676851 52.4636587C145.87074 52.4636587 146 52.3335804 146 52.138463 146 51.9433455 145.87074 51.8783064 145.741481 51.8783064z"/>
    <path fill="#9B9B9B" fill-rule="nonzero" d="M171.482961,128.878306 L149.250294,128.878306 C149.896592,128.162876 150.413631,127.382406 150.80141,126.536897 L166.054054,125.821467 C166.441833,125.821467 166.700353,125.626349 166.571093,125.496271 C166.571093,125.301153 166.183314,125.171075 165.924794,125.236114 L151.189189,125.951545 C151.447709,125.236114 151.576968,124.520684 151.576968,123.805253 C151.576968,121.073609 150.155112,118.537083 147.699177,116.260712 L151.059929,103.643119 C151.189189,103.187845 150.413631,102.862649 149.638073,103.057766 L125.854289,108.06578 C123.139835,107.740585 120.166863,107.545467 117.19389,107.545467 C114.220917,107.545467 111.247944,107.740585 108.53349,108.06578 L84.7497062,103.057766 C83.9741481,102.862649 83.1985899,103.252884 83.3278496,103.643119 L86.6886016,116.260712 C84.2326675,118.537083 82.8108108,121.073609 82.8108108,123.805253 C82.8108108,124.520684 82.9400705,125.236114 83.1985899,125.951545 L68.2044653,125.171075 C67.8166863,125.171075 67.5581669,125.301153 67.5581669,125.431232 C67.5581669,125.626349 67.8166863,125.756427 68.0752056,125.756427 L83.3278496,126.536897 C83.7156287,127.317367 84.2326675,128.097837 84.8789659,128.813267 L62.6462985,128.813267 C62.2585194,128.813267 62,128.943346 62,129.138463 C62,129.33358 62.2585194,129.463659 62.6462985,129.463659 L85.5252644,129.463659 C86.3008226,130.179089 87.0763807,130.89452 87.9811986,131.544911 L68.0752056,132.585538 C67.6874266,132.585538 67.4289072,132.780655 67.5581669,132.910733 C67.5581669,133.105851 67.8166863,133.235929 68.2044653,133.235929 C68.2044653,133.235929 68.2044653,133.235929 68.2044653,133.235929 L88.8860165,132.195303 C88.8860165,132.195303 88.8860165,132.195303 88.8860165,132.195303 C88.8860165,132.195303 88.8860165,132.195303 88.8860165,132.195303 C96.1245593,136.878121 108.274971,140 116.93537,140 C126.371328,140 138.26322,136.878121 145.243243,132.195303 L165.795535,133.17089 C165.795535,133.17089 165.795535,133.17089 165.795535,133.17089 C166.183314,133.17089 166.441833,133.040812 166.441833,132.845694 C166.441833,132.650577 166.183314,132.520498 165.924794,132.520498 L146.148061,131.544911 C147.052879,130.89452 147.828437,130.179089 148.603995,129.463659 L171.353702,129.463659 C171.741481,129.463659 172,129.33358 172,129.138463 C172,128.943346 171.741481,128.878306 171.482961,128.878306 Z"/>
    <text fill="#FFF" font-family="Montserrat-Regular, Montserrat" font-size="24">
      <tspan x="115" y="54">1</tspan>
    </text>
    <text fill="#FFF" font-family="Montserrat-Regular, Montserrat" font-size="24">
      <tspan x="111" y="130">2</tspan>
    </text>
    <path fill="#9B9B9B" fill-rule="nonzero" d="M204.741481,51.8783064 L193.625147,51.8783064 C193.948296,51.1628758 194.206816,50.3824061 194.400705,49.5368972 L202.027027,48.8214666 C202.220917,48.8214666 202.350176,48.6263492 202.285546,48.4962709 C202.285546,48.3011535 202.091657,48.1710752 201.962397,48.2361143 L194.594595,48.9515449 C194.723854,48.2361143 194.788484,47.5206837 194.788484,46.8052532 C194.788484,44.0736091 194.077556,41.5370825 192.849589,39.2607125 L194.529965,26.6431185 C194.594595,26.1878445 194.206816,25.8626488 193.819036,26.0577662 L181.927145,31.0657803 C180.569918,30.7405846 179.083431,30.5454672 177.596945,30.5454672 C176.110458,30.5454672 174.623972,30.7405846 173.266745,31.0657803 L161.374853,26.0577662 C160.987074,25.8626488 160.599295,26.2528837 160.663925,26.6431185 L162.344301,39.2607125 C161.116334,41.5370825 160.405405,44.0736091 160.405405,46.8052532 C160.405405,47.5206837 160.470035,48.2361143 160.599295,48.9515449 L153.102233,48.1710752 C152.908343,48.1710752 152.779083,48.3011535 152.779083,48.4312318 C152.779083,48.6263492 152.908343,48.7564275 153.037603,48.7564275 L160.663925,49.5368972 C160.857814,50.3173669 161.116334,51.0978367 161.439483,51.8132672 L150.323149,51.8132672 C150.12926,51.8132672 150,51.9433455 150,52.138463 C150,52.3335804 150.12926,52.4636587 150.323149,52.4636587 L161.762632,52.4636587 C162.150411,53.1790893 162.53819,53.8945198 162.990599,54.5449113 L153.037603,55.5855376 C152.843713,55.5855376 152.714454,55.780655 152.779083,55.9107333 C152.779083,56.1058507 152.908343,56.235929 153.102233,56.235929 C153.102233,56.235929 153.102233,56.235929 153.102233,56.235929 L163.443008,55.1953027 C163.443008,55.1953027 163.443008,55.1953027 163.443008,55.1953027 C163.443008,55.1953027 163.443008,55.1953027 163.443008,55.1953027 C167.06228,59.8781211 173.137485,63 177.467685,63 C182.185664,63 188.13161,59.8781211 191.621622,55.1953027 L201.897767,56.1708899 C201.897767,56.1708899 201.897767,56.1708899 201.897767,56.1708899 C202.091657,56.1708899 202.220917,56.0408116 202.220917,55.8456942 C202.220917,55.6505767 202.091657,55.5204984 201.962397,55.5204984 L192.074031,54.5449113 C192.526439,53.8945198 192.914219,53.1790893 193.301998,52.4636587 L204.676851,52.4636587 C204.87074,52.4636587 205,52.3335804 205,52.138463 C205,51.9433455 204.87074,51.8783064 204.741481,51.8783064 Z"/>
    <text fill="#FFF" font-family="Montserrat-Regular, Montserrat" font-size="24">
      <tspan x="174" y="54">1</tspan>
    </text>
    <text fill="#FFF" font-family="Montserrat-Regular, Montserrat" font-size="24">
      <tspan x="181" y="130">1</tspan>
    </text>
  </g>
</svg>
