<svg xmlns="http://www.w3.org/2000/svg" width="692" height="358" viewBox="0 0 692 358">
  <g fill="none" fill-rule="evenodd">
    <g fill="#9B9B9B" fill-rule="nonzero" transform="translate(24 69)">
      <path d="M84.7,39.7888177 L67.5,39.7888177 C68,38.6888177 68.4,37.4888177 68.7,36.1888177 L80.5,35.0888177 C80.8,35.0888177 81,34.7888177 80.9,34.5888177 C80.9,34.2888177 80.6,34.0888177 80.4,34.1888177 L69,35.2888177 C69.2,34.1888177 69.3,33.0888177 69.3,31.9888177 C69.3,27.7888177 68.2,23.8888177 66.3,20.3888177 L68.9,0.988817662 C69,0.288817662 68.4,-0.211182338 67.8,0.0888176624 L49.4,7.78881766 C47.3,7.28881766 45,6.98881766 42.7,6.98881766 C40.4,6.98881766 38.1,7.28881766 36,7.78881766 L17.6,0.0888176624 C17,-0.211182338 16.4,0.388817662 16.5,0.988817662 L19.1,20.3888177 C17.2,23.8888177 16.1,27.7888177 16.1,31.9888177 C16.1,33.0888177 16.2,34.1888177 16.4,35.2888177 L4.8,34.0888177 C4.5,34.0888177 4.3,34.2888177 4.3,34.4888177 C4.3,34.7888177 4.5,34.9888177 4.7,34.9888177 L16.5,36.1888177 C16.8,37.3888177 17.2,38.5888177 17.7,39.6888177 L0.5,39.6888177 C0.2,39.6888177 0,39.8888177 0,40.1888177 C0,40.4888177 0.2,40.6888177 0.5,40.6888177 L18.2,40.6888177 C18.8,41.7888177 19.4,42.8888177 20.1,43.8888177 L4.7,45.4888177 C4.4,45.4888177 4.2,45.7888177 4.3,45.9888177 C4.3,46.2888177 4.5,46.4888177 4.8,46.4888177 C4.8,46.4888177 4.8,46.4888177 4.8,46.4888177 L20.8,44.8888177 C20.8,44.8888177 20.8,44.8888177 20.8,44.8888177 C20.8,44.8888177 20.8,44.8888177 20.8,44.8888177 C26.4,52.0888177 35.8,56.8888177 42.5,56.8888177 C49.8,56.8888177 59,52.0888177 64.4,44.8888177 L80.3,46.3888177 C80.3,46.3888177 80.3,46.3888177 80.3,46.3888177 C80.6,46.3888177 80.8,46.1888177 80.8,45.8888177 C80.8,45.5888177 80.6,45.3888177 80.4,45.3888177 L65.1,43.8888177 C65.8,42.8888177 66.4,41.7888177 67,40.6888177 L84.6,40.6888177 C84.9,40.6888177 85.1,40.4888177 85.1,40.1888177 C85.1,39.8888177 84.9,39.7888177 84.7,39.7888177 Z"/>
      <path d="M169.7,39.7888177 L152.5,39.7888177 C153,38.6888177 153.4,37.4888177 153.7,36.1888177 L165.5,35.0888177 C165.8,35.0888177 166,34.7888177 165.9,34.5888177 C165.9,34.2888177 165.6,34.0888177 165.4,34.1888177 L154,35.2888177 C154.2,34.1888177 154.3,33.0888177 154.3,31.9888177 C154.3,27.7888177 153.2,23.8888177 151.3,20.3888177 L153.9,0.988817662 C154,0.288817662 153.4,-0.211182338 152.8,0.0888176624 L134.4,7.78881766 C132.3,7.28881766 130,6.98881766 127.7,6.98881766 C125.4,6.98881766 123.1,7.28881766 121,7.78881766 L102.6,0.0888176624 C102,-0.211182338 101.4,0.388817662 101.5,0.988817662 L104.1,20.3888177 C102.2,23.8888177 101.1,27.7888177 101.1,31.9888177 C101.1,33.0888177 101.2,34.1888177 101.4,35.2888177 L89.8,34.0888177 C89.5,34.0888177 89.3,34.2888177 89.3,34.4888177 C89.3,34.7888177 89.5,34.9888177 89.7,34.9888177 L101.5,36.1888177 C101.8,37.3888177 102.2,38.5888177 102.7,39.6888177 L85.5,39.6888177 C85.2,39.6888177 85,39.8888177 85,40.1888177 C85,40.4888177 85.2,40.6888177 85.5,40.6888177 L103.2,40.6888177 C103.8,41.7888177 104.4,42.8888177 105.1,43.8888177 L89.7,45.4888177 C89.4,45.4888177 89.2,45.7888177 89.3,45.9888177 C89.3,46.2888177 89.5,46.4888177 89.8,46.4888177 C89.8,46.4888177 89.8,46.4888177 89.8,46.4888177 L105.8,44.8888177 C105.8,44.8888177 105.8,44.8888177 105.8,44.8888177 C105.8,44.8888177 105.8,44.8888177 105.8,44.8888177 C111.4,52.0888177 120.8,56.8888177 127.5,56.8888177 C134.8,56.8888177 144,52.0888177 149.4,44.8888177 L165.3,46.3888177 C165.3,46.3888177 165.3,46.3888177 165.3,46.3888177 C165.6,46.3888177 165.8,46.1888177 165.8,45.8888177 C165.8,45.5888177 165.6,45.3888177 165.4,45.3888177 L150.1,43.8888177 C150.8,42.8888177 151.4,41.7888177 152,40.6888177 L169.6,40.6888177 C169.9,40.6888177 170.1,40.4888177 170.1,40.1888177 C170.1,39.8888177 169.9,39.7888177 169.7,39.7888177 Z"/>
      <path d="M254.7,39.7888177 L237.5,39.7888177 C238,38.6888177 238.4,37.4888177 238.7,36.1888177 L250.5,35.0888177 C250.8,35.0888177 251,34.7888177 250.9,34.5888177 C250.9,34.2888177 250.6,34.0888177 250.4,34.1888177 L239,35.2888177 C239.2,34.1888177 239.3,33.0888177 239.3,31.9888177 C239.3,27.7888177 238.2,23.8888177 236.3,20.3888177 L238.9,0.988817662 C239,0.288817662 238.4,-0.211182338 237.8,0.0888176624 L219.4,7.78881766 C217.3,7.28881766 215,6.98881766 212.7,6.98881766 C210.4,6.98881766 208.1,7.28881766 206,7.78881766 L187.6,0.0888176624 C187,-0.211182338 186.4,0.388817662 186.5,0.988817662 L189.1,20.3888177 C187.2,23.8888177 186.1,27.7888177 186.1,31.9888177 C186.1,33.0888177 186.2,34.1888177 186.4,35.2888177 L174.8,34.0888177 C174.5,34.0888177 174.3,34.2888177 174.3,34.4888177 C174.3,34.7888177 174.5,34.9888177 174.7,34.9888177 L186.5,36.1888177 C186.8,37.3888177 187.2,38.5888177 187.7,39.6888177 L170.5,39.6888177 C170.2,39.6888177 170,39.8888177 170,40.1888177 C170,40.4888177 170.2,40.6888177 170.5,40.6888177 L188.2,40.6888177 C188.8,41.7888177 189.4,42.8888177 190.1,43.8888177 L174.7,45.4888177 C174.4,45.4888177 174.2,45.7888177 174.3,45.9888177 C174.3,46.2888177 174.5,46.4888177 174.8,46.4888177 C174.8,46.4888177 174.8,46.4888177 174.8,46.4888177 L190.8,44.8888177 C190.8,44.8888177 190.8,44.8888177 190.8,44.8888177 C190.8,44.8888177 190.8,44.8888177 190.8,44.8888177 C196.4,52.0888177 205.8,56.8888177 212.5,56.8888177 C219.8,56.8888177 229,52.0888177 234.4,44.8888177 L250.3,46.3888177 C250.3,46.3888177 250.3,46.3888177 250.3,46.3888177 C250.6,46.3888177 250.8,46.1888177 250.8,45.8888177 C250.8,45.5888177 250.6,45.3888177 250.4,45.3888177 L235.1,43.8888177 C235.8,42.8888177 236.4,41.7888177 237,40.6888177 L254.6,40.6888177 C254.9,40.6888177 255.1,40.4888177 255.1,40.1888177 C255.1,39.8888177 254.9,39.7888177 254.7,39.7888177 Z"/>
    </g>
    <g fill="#9B9B9B" fill-rule="nonzero" transform="translate(24 228)">
      <path d="M84.7,39.7888177 L67.5,39.7888177 C68,38.6888177 68.4,37.4888177 68.7,36.1888177 L80.5,35.0888177 C80.8,35.0888177 81,34.7888177 80.9,34.5888177 C80.9,34.2888177 80.6,34.0888177 80.4,34.1888177 L69,35.2888177 C69.2,34.1888177 69.3,33.0888177 69.3,31.9888177 C69.3,27.7888177 68.2,23.8888177 66.3,20.3888177 L68.9,0.988817662 C69,0.288817662 68.4,-0.211182338 67.8,0.0888176624 L49.4,7.78881766 C47.3,7.28881766 45,6.98881766 42.7,6.98881766 C40.4,6.98881766 38.1,7.28881766 36,7.78881766 L17.6,0.0888176624 C17,-0.211182338 16.4,0.388817662 16.5,0.988817662 L19.1,20.3888177 C17.2,23.8888177 16.1,27.7888177 16.1,31.9888177 C16.1,33.0888177 16.2,34.1888177 16.4,35.2888177 L4.8,34.0888177 C4.5,34.0888177 4.3,34.2888177 4.3,34.4888177 C4.3,34.7888177 4.5,34.9888177 4.7,34.9888177 L16.5,36.1888177 C16.8,37.3888177 17.2,38.5888177 17.7,39.6888177 L0.5,39.6888177 C0.2,39.6888177 0,39.8888177 0,40.1888177 C0,40.4888177 0.2,40.6888177 0.5,40.6888177 L18.2,40.6888177 C18.8,41.7888177 19.4,42.8888177 20.1,43.8888177 L4.7,45.4888177 C4.4,45.4888177 4.2,45.7888177 4.3,45.9888177 C4.3,46.2888177 4.5,46.4888177 4.8,46.4888177 C4.8,46.4888177 4.8,46.4888177 4.8,46.4888177 L20.8,44.8888177 C20.8,44.8888177 20.8,44.8888177 20.8,44.8888177 C20.8,44.8888177 20.8,44.8888177 20.8,44.8888177 C26.4,52.0888177 35.8,56.8888177 42.5,56.8888177 C49.8,56.8888177 59,52.0888177 64.4,44.8888177 L80.3,46.3888177 C80.3,46.3888177 80.3,46.3888177 80.3,46.3888177 C80.6,46.3888177 80.8,46.1888177 80.8,45.8888177 C80.8,45.5888177 80.6,45.3888177 80.4,45.3888177 L65.1,43.8888177 C65.8,42.8888177 66.4,41.7888177 67,40.6888177 L84.6,40.6888177 C84.9,40.6888177 85.1,40.4888177 85.1,40.1888177 C85.1,39.8888177 84.9,39.7888177 84.7,39.7888177 Z"/>
      <path d="M169.7,39.7888177 L152.5,39.7888177 C153,38.6888177 153.4,37.4888177 153.7,36.1888177 L165.5,35.0888177 C165.8,35.0888177 166,34.7888177 165.9,34.5888177 C165.9,34.2888177 165.6,34.0888177 165.4,34.1888177 L154,35.2888177 C154.2,34.1888177 154.3,33.0888177 154.3,31.9888177 C154.3,27.7888177 153.2,23.8888177 151.3,20.3888177 L153.9,0.988817662 C154,0.288817662 153.4,-0.211182338 152.8,0.0888176624 L134.4,7.78881766 C132.3,7.28881766 130,6.98881766 127.7,6.98881766 C125.4,6.98881766 123.1,7.28881766 121,7.78881766 L102.6,0.0888176624 C102,-0.211182338 101.4,0.388817662 101.5,0.988817662 L104.1,20.3888177 C102.2,23.8888177 101.1,27.7888177 101.1,31.9888177 C101.1,33.0888177 101.2,34.1888177 101.4,35.2888177 L89.8,34.0888177 C89.5,34.0888177 89.3,34.2888177 89.3,34.4888177 C89.3,34.7888177 89.5,34.9888177 89.7,34.9888177 L101.5,36.1888177 C101.8,37.3888177 102.2,38.5888177 102.7,39.6888177 L85.5,39.6888177 C85.2,39.6888177 85,39.8888177 85,40.1888177 C85,40.4888177 85.2,40.6888177 85.5,40.6888177 L103.2,40.6888177 C103.8,41.7888177 104.4,42.8888177 105.1,43.8888177 L89.7,45.4888177 C89.4,45.4888177 89.2,45.7888177 89.3,45.9888177 C89.3,46.2888177 89.5,46.4888177 89.8,46.4888177 C89.8,46.4888177 89.8,46.4888177 89.8,46.4888177 L105.8,44.8888177 C105.8,44.8888177 105.8,44.8888177 105.8,44.8888177 C105.8,44.8888177 105.8,44.8888177 105.8,44.8888177 C111.4,52.0888177 120.8,56.8888177 127.5,56.8888177 C134.8,56.8888177 144,52.0888177 149.4,44.8888177 L165.3,46.3888177 C165.3,46.3888177 165.3,46.3888177 165.3,46.3888177 C165.6,46.3888177 165.8,46.1888177 165.8,45.8888177 C165.8,45.5888177 165.6,45.3888177 165.4,45.3888177 L150.1,43.8888177 C150.8,42.8888177 151.4,41.7888177 152,40.6888177 L169.6,40.6888177 C169.9,40.6888177 170.1,40.4888177 170.1,40.1888177 C170.1,39.8888177 169.9,39.7888177 169.7,39.7888177 Z"/>
      <path d="M254.7,39.7888177 L237.5,39.7888177 C238,38.6888177 238.4,37.4888177 238.7,36.1888177 L250.5,35.0888177 C250.8,35.0888177 251,34.7888177 250.9,34.5888177 C250.9,34.2888177 250.6,34.0888177 250.4,34.1888177 L239,35.2888177 C239.2,34.1888177 239.3,33.0888177 239.3,31.9888177 C239.3,27.7888177 238.2,23.8888177 236.3,20.3888177 L238.9,0.988817662 C239,0.288817662 238.4,-0.211182338 237.8,0.0888176624 L219.4,7.78881766 C217.3,7.28881766 215,6.98881766 212.7,6.98881766 C210.4,6.98881766 208.1,7.28881766 206,7.78881766 L187.6,0.0888176624 C187,-0.211182338 186.4,0.388817662 186.5,0.988817662 L189.1,20.3888177 C187.2,23.8888177 186.1,27.7888177 186.1,31.9888177 C186.1,33.0888177 186.2,34.1888177 186.4,35.2888177 L174.8,34.0888177 C174.5,34.0888177 174.3,34.2888177 174.3,34.4888177 C174.3,34.7888177 174.5,34.9888177 174.7,34.9888177 L186.5,36.1888177 C186.8,37.3888177 187.2,38.5888177 187.7,39.6888177 L170.5,39.6888177 C170.2,39.6888177 170,39.8888177 170,40.1888177 C170,40.4888177 170.2,40.6888177 170.5,40.6888177 L188.2,40.6888177 C188.8,41.7888177 189.4,42.8888177 190.1,43.8888177 L174.7,45.4888177 C174.4,45.4888177 174.2,45.7888177 174.3,45.9888177 C174.3,46.2888177 174.5,46.4888177 174.8,46.4888177 C174.8,46.4888177 174.8,46.4888177 174.8,46.4888177 L190.8,44.8888177 C190.8,44.8888177 190.8,44.8888177 190.8,44.8888177 C190.8,44.8888177 190.8,44.8888177 190.8,44.8888177 C196.4,52.0888177 205.8,56.8888177 212.5,56.8888177 C219.8,56.8888177 229,52.0888177 234.4,44.8888177 L250.3,46.3888177 C250.3,46.3888177 250.3,46.3888177 250.3,46.3888177 C250.6,46.3888177 250.8,46.1888177 250.8,45.8888177 C250.8,45.5888177 250.6,45.3888177 250.4,45.3888177 L235.1,43.8888177 C235.8,42.8888177 236.4,41.7888177 237,40.6888177 L254.6,40.6888177 C254.9,40.6888177 255.1,40.4888177 255.1,40.1888177 C255.1,39.8888177 254.9,39.7888177 254.7,39.7888177 Z"/>
    </g>
    <path fill="pink" fill-rule="nonzero" d="M268.5 154.25L244.5 142.25 244.5 166.25 268.5 154.25zM35.5 156.25L246.5 156.25 248.5 156.25 248.5 152.25 246.5 152.25 35.5 152.25 33.5 152.25 33.5 156.25 35.5 156.25zM268.5 313.25L244.5 301.25 244.5 325.25 268.5 313.25zM35.5 315.25L246.5 315.25 248.5 315.25 248.5 311.25 246.5 311.25 35.5 311.25 33.5 311.25 33.5 315.25 35.5 315.25z"/>
    <text fill="#4A4A4A" font-family="Montserrat-Regular, Montserrat" font-size="24">
      <tspan x="35" y="47">row (default)</tspan>
    </text>
    <text fill="#4A4A4A" font-family="Montserrat-Regular, Montserrat" font-size="24">
      <tspan x="35" y="213">row-reverse</tspan>
    </text>
    <g transform="translate(335 53)">
      <path fill="#9B9B9B" fill-rule="nonzero" d="M84.7 85.7888177L67.5 85.7888177C68 84.6888177 68.4 83.4888177 68.7 82.1888177L80.5 81.0888177C80.8 81.0888177 81 80.7888177 80.9 80.5888177 80.9 80.2888177 80.6 80.0888177 80.4 80.1888177L69 81.2888177C69.2 80.1888177 69.3 79.0888177 69.3 77.9888177 69.3 73.7888177 68.2 69.8888177 66.3 66.3888177L68.9 46.9888177C69 46.2888177 68.4 45.7888177 67.8 46.0888177L49.4 53.7888177C47.3 53.2888177 45 52.9888177 42.7 52.9888177 40.4 52.9888177 38.1 53.2888177 36 53.7888177L17.6 46.0888177C17 45.7888177 16.4 46.3888177 16.5 46.9888177L19.1 66.3888177C17.2 69.8888177 16.1 73.7888177 16.1 77.9888177 16.1 79.0888177 16.2 80.1888177 16.4 81.2888177L4.8 80.0888177C4.5 80.0888177 4.3 80.2888177 4.3 80.4888177 4.3 80.7888177 4.5 80.9888177 4.7 80.9888177L16.5 82.1888177C16.8 83.3888177 17.2 84.5888177 17.7 85.6888177L.5 85.6888177C.2 85.6888177 0 85.8888177 0 86.1888177 0 86.4888177.2 86.6888177.5 86.6888177L18.2 86.6888177C18.8 87.7888177 19.4 88.8888177 20.1 89.8888177L4.7 91.4888177C4.4 91.4888177 4.2 91.7888177 4.3 91.9888177 4.3 92.2888177 4.5 92.4888177 4.8 92.4888177 4.8 92.4888177 4.8 92.4888177 4.8 92.4888177L20.8 90.8888177C20.8 90.8888177 20.8 90.8888177 20.8 90.8888177 20.8 90.8888177 20.8 90.8888177 20.8 90.8888177 26.4 98.0888177 35.8 102.888818 42.5 102.888818 49.8 102.888818 59 98.0888177 64.4 90.8888177L80.3 92.3888177C80.3 92.3888177 80.3 92.3888177 80.3 92.3888177 80.6 92.3888177 80.8 92.1888177 80.8 91.8888177 80.8 91.5888177 80.6 91.3888177 80.4 91.3888177L65.1 89.8888177C65.8 88.8888177 66.4 87.7888177 67 86.6888177L84.6 86.6888177C84.9 86.6888177 85.1 86.4888177 85.1 86.1888177 85.1 85.8888177 84.9 85.7888177 84.7 85.7888177zM264.7 85.7888177L247.5 85.7888177C248 84.6888177 248.4 83.4888177 248.7 82.1888177L260.5 81.0888177C260.8 81.0888177 261 80.7888177 260.9 80.5888177 260.9 80.2888177 260.6 80.0888177 260.4 80.1888177L249 81.2888177C249.2 80.1888177 249.3 79.0888177 249.3 77.9888177 249.3 73.7888177 248.2 69.8888177 246.3 66.3888177L248.9 46.9888177C249 46.2888177 248.4 45.7888177 247.8 46.0888177L229.4 53.7888177C227.3 53.2888177 225 52.9888177 222.7 52.9888177 220.4 52.9888177 218.1 53.2888177 216 53.7888177L197.6 46.0888177C197 45.7888177 196.4 46.3888177 196.5 46.9888177L199.1 66.3888177C197.2 69.8888177 196.1 73.7888177 196.1 77.9888177 196.1 79.0888177 196.2 80.1888177 196.4 81.2888177L184.8 80.0888177C184.5 80.0888177 184.3 80.2888177 184.3 80.4888177 184.3 80.7888177 184.5 80.9888177 184.7 80.9888177L196.5 82.1888177C196.8 83.3888177 197.2 84.5888177 197.7 85.6888177L180.5 85.6888177C180.2 85.6888177 180 85.8888177 180 86.1888177 180 86.4888177 180.2 86.6888177 180.5 86.6888177L198.2 86.6888177C198.8 87.7888177 199.4 88.8888177 200.1 89.8888177L184.7 91.4888177C184.4 91.4888177 184.2 91.7888177 184.3 91.9888177 184.3 92.2888177 184.5 92.4888177 184.8 92.4888177 184.8 92.4888177 184.8 92.4888177 184.8 92.4888177L200.8 90.8888177C200.8 90.8888177 200.8 90.8888177 200.8 90.8888177 200.8 90.8888177 200.8 90.8888177 200.8 90.8888177 206.4 98.0888177 215.8 102.888818 222.5 102.888818 229.8 102.888818 239 98.0888177 244.4 90.8888177L260.3 92.3888177C260.3 92.3888177 260.3 92.3888177 260.3 92.3888177 260.6 92.3888177 260.8 92.1888177 260.8 91.8888177 260.8 91.5888177 260.6 91.3888177 260.4 91.3888177L245.1 89.8888177C245.8 88.8888177 246.4 87.7888177 247 86.6888177L264.6 86.6888177C264.9 86.6888177 265.1 86.4888177 265.1 86.1888177 265.1 85.8888177 264.9 85.7888177 264.7 85.7888177zM84.7 153.788818L67.5 153.788818C68 152.688818 68.4 151.488818 68.7 150.188818L80.5 149.088818C80.8 149.088818 81 148.788818 80.9 148.588818 80.9 148.288818 80.6 148.088818 80.4 148.188818L69 149.288818C69.2 148.188818 69.3 147.088818 69.3 145.988818 69.3 141.788818 68.2 137.888818 66.3 134.388818L68.9 114.988818C69 114.288818 68.4 113.788818 67.8 114.088818L49.4 121.788818C47.3 121.288818 45 120.988818 42.7 120.988818 40.4 120.988818 38.1 121.288818 36 121.788818L17.6 114.088818C17 113.788818 16.4 114.388818 16.5 114.988818L19.1 134.388818C17.2 137.888818 16.1 141.788818 16.1 145.988818 16.1 147.088818 16.2 148.188818 16.4 149.288818L4.8 148.088818C4.5 148.088818 4.3 148.288818 4.3 148.488818 4.3 148.788818 4.5 148.988818 4.7 148.988818L16.5 150.188818C16.8 151.388818 17.2 152.588818 17.7 153.688818L.5 153.688818C.2 153.688818 0 153.888818 0 154.188818 0 154.488818.2 154.688818.5 154.688818L18.2 154.688818C18.8 155.788818 19.4 156.888818 20.1 157.888818L4.7 159.488818C4.4 159.488818 4.2 159.788818 4.3 159.988818 4.3 160.288818 4.5 160.488818 4.8 160.488818 4.8 160.488818 4.8 160.488818 4.8 160.488818L20.8 158.888818C20.8 158.888818 20.8 158.888818 20.8 158.888818 20.8 158.888818 20.8 158.888818 20.8 158.888818 26.4 166.088818 35.8 170.888818 42.5 170.888818 49.8 170.888818 59 166.088818 64.4 158.888818L80.3 160.388818C80.3 160.388818 80.3 160.388818 80.3 160.388818 80.6 160.388818 80.8 160.188818 80.8 159.888818 80.8 159.588818 80.6 159.388818 80.4 159.388818L65.1 157.888818C65.8 156.888818 66.4 155.788818 67 154.688818L84.6 154.688818C84.9 154.688818 85.1 154.488818 85.1 154.188818 85.1 153.888818 84.9 153.788818 84.7 153.788818zM264.7 153.788818L247.5 153.788818C248 152.688818 248.4 151.488818 248.7 150.188818L260.5 149.088818C260.8 149.088818 261 148.788818 260.9 148.588818 260.9 148.288818 260.6 148.088818 260.4 148.188818L249 149.288818C249.2 148.188818 249.3 147.088818 249.3 145.988818 249.3 141.788818 248.2 137.888818 246.3 134.388818L248.9 114.988818C249 114.288818 248.4 113.788818 247.8 114.088818L229.4 121.788818C227.3 121.288818 225 120.988818 222.7 120.988818 220.4 120.988818 218.1 121.288818 216 121.788818L197.6 114.088818C197 113.788818 196.4 114.388818 196.5 114.988818L199.1 134.388818C197.2 137.888818 196.1 141.788818 196.1 145.988818 196.1 147.088818 196.2 148.188818 196.4 149.288818L184.8 148.088818C184.5 148.088818 184.3 148.288818 184.3 148.488818 184.3 148.788818 184.5 148.988818 184.7 148.988818L196.5 150.188818C196.8 151.388818 197.2 152.588818 197.7 153.688818L180.5 153.688818C180.2 153.688818 180 153.888818 180 154.188818 180 154.488818 180.2 154.688818 180.5 154.688818L198.2 154.688818C198.8 155.788818 199.4 156.888818 200.1 157.888818L184.7 159.488818C184.4 159.488818 184.2 159.788818 184.3 159.988818 184.3 160.288818 184.5 160.488818 184.8 160.488818 184.8 160.488818 184.8 160.488818 184.8 160.488818L200.8 158.888818C200.8 158.888818 200.8 158.888818 200.8 158.888818 200.8 158.888818 200.8 158.888818 200.8 158.888818 206.4 166.088818 215.8 170.888818 222.5 170.888818 229.8 170.888818 239 166.088818 244.4 158.888818L260.3 160.388818C260.3 160.388818 260.3 160.388818 260.3 160.388818 260.6 160.388818 260.8 160.188818 260.8 159.888818 260.8 159.588818 260.6 159.388818 260.4 159.388818L245.1 157.888818C245.8 156.888818 246.4 155.788818 247 154.688818L264.6 154.688818C264.9 154.688818 265.1 154.488818 265.1 154.188818 265.1 153.888818 264.9 153.788818 264.7 153.788818zM84.7 221.788818L67.5 221.788818C68 220.688818 68.4 219.488818 68.7 218.188818L80.5 217.088818C80.8 217.088818 81 216.788818 80.9 216.588818 80.9 216.288818 80.6 216.088818 80.4 216.188818L69 217.288818C69.2 216.188818 69.3 215.088818 69.3 213.988818 69.3 209.788818 68.2 205.888818 66.3 202.388818L68.9 182.988818C69 182.288818 68.4 181.788818 67.8 182.088818L49.4 189.788818C47.3 189.288818 45 188.988818 42.7 188.988818 40.4 188.988818 38.1 189.288818 36 189.788818L17.6 182.088818C17 181.788818 16.4 182.388818 16.5 182.988818L19.1 202.388818C17.2 205.888818 16.1 209.788818 16.1 213.988818 16.1 215.088818 16.2 216.188818 16.4 217.288818L4.8 216.088818C4.5 216.088818 4.3 216.288818 4.3 216.488818 4.3 216.788818 4.5 216.988818 4.7 216.988818L16.5 218.188818C16.8 219.388818 17.2 220.588818 17.7 221.688818L.5 221.688818C.2 221.688818 0 221.888818 0 222.188818 0 222.488818.2 222.688818.5 222.688818L18.2 222.688818C18.8 223.788818 19.4 224.888818 20.1 225.888818L4.7 227.488818C4.4 227.488818 4.2 227.788818 4.3 227.988818 4.3 228.288818 4.5 228.488818 4.8 228.488818 4.8 228.488818 4.8 228.488818 4.8 228.488818L20.8 226.888818C20.8 226.888818 20.8 226.888818 20.8 226.888818 20.8 226.888818 20.8 226.888818 20.8 226.888818 26.4 234.088818 35.8 238.888818 42.5 238.888818 49.8 238.888818 59 234.088818 64.4 226.888818L80.3 228.388818C80.3 228.388818 80.3 228.388818 80.3 228.388818 80.6 228.388818 80.8 228.188818 80.8 227.888818 80.8 227.588818 80.6 227.388818 80.4 227.388818L65.1 225.888818C65.8 224.888818 66.4 223.788818 67 222.688818L84.6 222.688818C84.9 222.688818 85.1 222.488818 85.1 222.188818 85.1 221.888818 84.9 221.788818 84.7 221.788818zM264.7 221.788818L247.5 221.788818C248 220.688818 248.4 219.488818 248.7 218.188818L260.5 217.088818C260.8 217.088818 261 216.788818 260.9 216.588818 260.9 216.288818 260.6 216.088818 260.4 216.188818L249 217.288818C249.2 216.188818 249.3 215.088818 249.3 213.988818 249.3 209.788818 248.2 205.888818 246.3 202.388818L248.9 182.988818C249 182.288818 248.4 181.788818 247.8 182.088818L229.4 189.788818C227.3 189.288818 225 188.988818 222.7 188.988818 220.4 188.988818 218.1 189.288818 216 189.788818L197.6 182.088818C197 181.788818 196.4 182.388818 196.5 182.988818L199.1 202.388818C197.2 205.888818 196.1 209.788818 196.1 213.988818 196.1 215.088818 196.2 216.188818 196.4 217.288818L184.8 216.088818C184.5 216.088818 184.3 216.288818 184.3 216.488818 184.3 216.788818 184.5 216.988818 184.7 216.988818L196.5 218.188818C196.8 219.388818 197.2 220.588818 197.7 221.688818L180.5 221.688818C180.2 221.688818 180 221.888818 180 222.188818 180 222.488818 180.2 222.688818 180.5 222.688818L198.2 222.688818C198.8 223.788818 199.4 224.888818 200.1 225.888818L184.7 227.488818C184.4 227.488818 184.2 227.788818 184.3 227.988818 184.3 228.288818 184.5 228.488818 184.8 228.488818 184.8 228.488818 184.8 228.488818 184.8 228.488818L200.8 226.888818C200.8 226.888818 200.8 226.888818 200.8 226.888818 200.8 226.888818 200.8 226.888818 200.8 226.888818 206.4 234.088818 215.8 238.888818 222.5 238.888818 229.8 238.888818 239 234.088818 244.4 226.888818L260.3 228.388818C260.3 228.388818 260.3 228.388818 260.3 228.388818 260.6 228.388818 260.8 228.188818 260.8 227.888818 260.8 227.588818 260.6 227.388818 260.4 227.388818L245.1 225.888818C245.8 224.888818 246.4 223.788818 247 222.688818L264.6 222.688818C264.9 222.688818 265.1 222.488818 265.1 222.188818 265.1 221.888818 264.9 221.788818 264.7 221.788818z"/>
      <path fill="pink" fill-rule="nonzero" d="M105 239L117 215 93 215 105 239zM103 47L103 217 103 219 107 219 107 217 107 47 107 45 103 45 103 47zM300.166667 239L312.166667 215 288.166667 215 300.166667 239zM298.166667 47L298.166667 217 298.166667 219 302.166667 219 302.166667 217 302.166667 47 302.166667 45 298.166667 45 298.166667 47z"/>
      <text fill="#4A4A4A" font-family="Montserrat-Regular, Montserrat" font-size="24">
        <tspan x="0" y="23">column</tspan>
      </text>
      <text fill="#4A4A4A" font-family="Montserrat-Regular, Montserrat" font-size="24">
        <tspan x="128" y="23">column-reverse</tspan>
      </text>
    </g>
  </g>
</svg>
