<svg xmlns="http://www.w3.org/2000/svg" width="884" height="471" viewBox="0 0 884 471">
  <g fill="none" fill-rule="evenodd">
    <rect width="397" height="104" x="17" y="46" fill="#F7F7F7" fill-rule="nonzero"/>
    <rect width="397" height="104" x="23" y="194" fill="#F7F7F7" fill-rule="nonzero"/>
    <rect width="397" height="104" x="23" y="356" fill="#F7F7F7" fill-rule="nonzero"/>
    <path fill="#9B9B9B" fill-rule="nonzero" d="M248.60047,419.86658 L231.420682,419.86658 C231.920094,418.76443 232.319624,417.562085 232.619271,416.259544 L244.405405,415.157395 C244.705053,415.157395 244.904818,414.856808 244.804935,414.656417 C244.804935,414.355831 244.505288,414.15544 244.305523,414.255636 L232.918919,415.357785 C233.118684,414.255636 233.218566,413.153486 233.218566,412.051336 C233.218566,407.843128 232.119859,403.935505 230.222092,400.428665 L232.819036,380.99075 C232.918919,380.289382 232.319624,379.788405 231.720329,380.088991 L213.341951,387.80404 C211.244418,387.303063 208.947121,387.002476 206.649824,387.002476 C204.352526,387.002476 202.055229,387.303063 199.957697,387.80404 L181.579318,380.088991 C180.980024,379.788405 180.380729,380.389578 180.480611,380.99075 L183.077556,400.428665 C181.179788,403.935505 180.081081,407.843128 180.081081,412.051336 C180.081081,413.153486 180.180964,414.255636 180.380729,415.357785 L168.79436,414.15544 C168.494712,414.15544 168.294947,414.355831 168.294947,414.556222 C168.294947,414.856808 168.494712,415.057199 168.694477,415.057199 L180.480611,416.259544 C180.780259,417.46189 181.179788,418.664235 181.679201,419.766385 L164.499412,419.766385 C164.199765,419.766385 164,419.966776 164,420.267362 C164,420.567948 164.199765,420.768339 164.499412,420.768339 L182.178613,420.768339 C182.777908,421.870489 183.377203,422.972639 184.076381,423.974593 L168.694477,425.57772 C168.39483,425.57772 168.195065,425.878306 168.294947,426.078697 C168.294947,426.379284 168.494712,426.579674 168.79436,426.579674 C168.79436,426.579674 168.79436,426.579674 168.79436,426.579674 L184.775558,424.976547 C184.775558,424.976547 184.775558,424.976547 184.775558,424.976547 C184.775558,424.976547 184.775558,424.976547 184.775558,424.976547 C190.368978,432.190619 199.757932,437 206.450059,437 C213.741481,437 222.93067,432.190619 228.324324,424.976547 L244.20564,426.479479 C244.20564,426.479479 244.20564,426.479479 244.20564,426.479479 C244.505288,426.479479 244.705053,426.279088 244.705053,425.978502 C244.705053,425.677916 244.505288,425.477525 244.305523,425.477525 L229.023502,423.974593 C229.722679,422.972639 230.321974,421.870489 230.921269,420.768339 L248.500588,420.768339 C248.800235,420.768339 249,420.567948 249,420.267362 C249,419.966776 248.800235,419.86658 248.60047,419.86658 Z"/>
    <rect width="397" height="104" x="428" y="356" fill="#F7F7F7" fill-rule="nonzero"/>
    <rect width="397" height="104" x="428" y="52" fill="#F7F7F7" fill-rule="nonzero"/>
    <rect width="397" height="104" x="428" y="194" fill="#F7F7F7" fill-rule="nonzero"/>
    <path fill="#9B9B9B" fill-rule="nonzero" d="M113.60047 109.86658L96.4206816 109.86658C96.920094 108.76443 97.319624 107.562085 97.6192714 106.259544L109.405405 105.157395C109.705053 105.157395 109.904818 104.856808 109.804935 104.656417 109.804935 104.355831 109.505288 104.15544 109.305523 104.255636L97.9189189 105.357785C98.1186839 104.255636 98.2185664 103.153486 98.2185664 102.051336 98.2185664 97.8431276 97.119859 93.9355055 95.2220917 90.4286651L97.8190364 70.9907502C97.9189189 70.2893821 97.319624 69.7884049 96.720329 70.0889912L78.3419506 77.80404C76.2444183 77.3030628 73.947121 77.0024765 71.6498237 77.0024765 69.3525264 77.0024765 67.0552291 77.3030628 64.9576968 77.80404L46.5793184 70.0889912C45.9800235 69.7884049 45.3807286 70.3895776 45.480611 70.9907502L48.0775558 90.4286651C46.1797885 93.9355055 45.0810811 97.8431276 45.0810811 102.051336 45.0810811 103.153486 45.1809636 104.255636 45.3807286 105.357785L33.7943596 104.15544C33.4947121 104.15544 33.2949471 104.355831 33.2949471 104.556222 33.2949471 104.856808 33.4947121 105.057199 33.6944771 105.057199L45.480611 106.259544C45.7802585 107.46189 46.1797885 108.664235 46.6792009 109.766385L29.4994125 109.766385C29.199765 109.766385 29 109.966776 29 110.267362 29 110.567948 29.199765 110.768339 29.4994125 110.768339L47.1786134 110.768339C47.7779083 111.870489 48.3772033 112.972639 49.0763807 113.974593L33.6944771 115.57772C33.3948296 115.57772 33.1950646 115.878306 33.2949471 116.078697 33.2949471 116.379284 33.4947121 116.579674 33.7943596 116.579674 33.7943596 116.579674 33.7943596 116.579674 33.7943596 116.579674L49.7755582 114.976547C49.7755582 114.976547 49.7755582 114.976547 49.7755582 114.976547 49.7755582 114.976547 49.7755582 114.976547 49.7755582 114.976547 55.3689777 122.190619 64.7579318 127 71.4500588 127 78.7414806 127 87.9306698 122.190619 93.3243243 114.976547L109.20564 116.479479C109.20564 116.479479 109.20564 116.479479 109.20564 116.479479 109.505288 116.479479 109.705053 116.279088 109.705053 115.978502 109.705053 115.677916 109.505288 115.477525 109.305523 115.477525L94.0235018 113.974593C94.7226792 112.972639 95.3219741 111.870489 95.9212691 110.768339L113.500588 110.768339C113.800235 110.768339 114 110.567948 114 110.267362 114 109.966776 113.800235 109.86658 113.60047 109.86658zM239.60047 257.86658L222.420682 257.86658C222.920094 256.76443 223.319624 255.562085 223.619271 254.259544L235.405405 253.157395C235.705053 253.157395 235.904818 252.856808 235.804935 252.656417 235.804935 252.355831 235.505288 252.15544 235.305523 252.255636L223.918919 253.357785C224.118684 252.255636 224.218566 251.153486 224.218566 250.051336 224.218566 245.843128 223.119859 241.935505 221.222092 238.428665L223.819036 218.99075C223.918919 218.289382 223.319624 217.788405 222.720329 218.088991L204.341951 225.80404C202.244418 225.303063 199.947121 225.002476 197.649824 225.002476 195.352526 225.002476 193.055229 225.303063 190.957697 225.80404L172.579318 218.088991C171.980024 217.788405 171.380729 218.389578 171.480611 218.99075L174.077556 238.428665C172.179788 241.935505 171.081081 245.843128 171.081081 250.051336 171.081081 251.153486 171.180964 252.255636 171.380729 253.357785L159.79436 252.15544C159.494712 252.15544 159.294947 252.355831 159.294947 252.556222 159.294947 252.856808 159.494712 253.057199 159.694477 253.057199L171.480611 254.259544C171.780259 255.46189 172.179788 256.664235 172.679201 257.766385L155.499412 257.766385C155.199765 257.766385 155 257.966776 155 258.267362 155 258.567948 155.199765 258.768339 155.499412 258.768339L173.178613 258.768339C173.777908 259.870489 174.377203 260.972639 175.076381 261.974593L159.694477 263.57772C159.39483 263.57772 159.195065 263.878306 159.294947 264.078697 159.294947 264.379284 159.494712 264.579674 159.79436 264.579674 159.79436 264.579674 159.79436 264.579674 159.79436 264.579674L175.775558 262.976547C175.775558 262.976547 175.775558 262.976547 175.775558 262.976547 175.775558 262.976547 175.775558 262.976547 175.775558 262.976547 181.368978 270.190619 190.757932 275 197.450059 275 204.741481 275 213.93067 270.190619 219.324324 262.976547L235.20564 264.479479C235.20564 264.479479 235.20564 264.479479 235.20564 264.479479 235.505288 264.479479 235.705053 264.279088 235.705053 263.978502 235.705053 263.677916 235.505288 263.477525 235.305523 263.477525L220.023502 261.974593C220.722679 260.972639 221.321974 259.870489 221.921269 258.768339L239.500588 258.768339C239.800235 258.768339 240 258.567948 240 258.267362 240 257.966776 239.800235 257.86658 239.60047 257.86658zM139.60047 419.86658L122.420682 419.86658C122.920094 418.76443 123.319624 417.562085 123.619271 416.259544L135.405405 415.157395C135.705053 415.157395 135.904818 414.856808 135.804935 414.656417 135.804935 414.355831 135.505288 414.15544 135.305523 414.255636L123.918919 415.357785C124.118684 414.255636 124.218566 413.153486 124.218566 412.051336 124.218566 407.843128 123.119859 403.935505 121.222092 400.428665L123.819036 380.99075C123.918919 380.289382 123.319624 379.788405 122.720329 380.088991L104.341951 387.80404C102.244418 387.303063 99.947121 387.002476 97.6498237 387.002476 95.3525264 387.002476 93.0552291 387.303063 90.9576968 387.80404L72.5793184 380.088991C71.9800235 379.788405 71.3807286 380.389578 71.480611 380.99075L74.0775558 400.428665C72.1797885 403.935505 71.0810811 407.843128 71.0810811 412.051336 71.0810811 413.153486 71.1809636 414.255636 71.3807286 415.357785L59.7943596 414.15544C59.4947121 414.15544 59.2949471 414.355831 59.2949471 414.556222 59.2949471 414.856808 59.4947121 415.057199 59.6944771 415.057199L71.480611 416.259544C71.7802585 417.46189 72.1797885 418.664235 72.6792009 419.766385L55.4994125 419.766385C55.199765 419.766385 55 419.966776 55 420.267362 55 420.567948 55.199765 420.768339 55.4994125 420.768339L73.1786134 420.768339C73.7779083 421.870489 74.3772033 422.972639 75.0763807 423.974593L59.6944771 425.57772C59.3948296 425.57772 59.1950646 425.878306 59.2949471 426.078697 59.2949471 426.379284 59.4947121 426.579674 59.7943596 426.579674 59.7943596 426.579674 59.7943596 426.579674 59.7943596 426.579674L75.7755582 424.976547C75.7755582 424.976547 75.7755582 424.976547 75.7755582 424.976547 75.7755582 424.976547 75.7755582 424.976547 75.7755582 424.976547 81.3689777 432.190619 90.7579318 437 97.4500588 437 104.741481 437 113.93067 432.190619 119.324324 424.976547L135.20564 426.479479C135.20564 426.479479 135.20564 426.479479 135.20564 426.479479 135.505288 426.479479 135.705053 426.279088 135.705053 425.978502 135.705053 425.677916 135.505288 425.477525 135.305523 425.477525L120.023502 423.974593C120.722679 422.972639 121.321974 421.870489 121.921269 420.768339L139.500588 420.768339C139.800235 420.768339 140 420.567948 140 420.267362 140 419.966776 139.800235 419.86658 139.60047 419.86658zM521.60047 257.86658L504.420682 257.86658C504.920094 256.76443 505.319624 255.562085 505.619271 254.259544L517.405405 253.157395C517.705053 253.157395 517.904818 252.856808 517.804935 252.656417 517.804935 252.355831 517.505288 252.15544 517.305523 252.255636L505.918919 253.357785C506.118684 252.255636 506.218566 251.153486 506.218566 250.051336 506.218566 245.843128 505.119859 241.935505 503.222092 238.428665L505.819036 218.99075C505.918919 218.289382 505.319624 217.788405 504.720329 218.088991L486.341951 225.80404C484.244418 225.303063 481.947121 225.002476 479.649824 225.002476 477.352526 225.002476 475.055229 225.303063 472.957697 225.80404L454.579318 218.088991C453.980024 217.788405 453.380729 218.389578 453.480611 218.99075L456.077556 238.428665C454.179788 241.935505 453.081081 245.843128 453.081081 250.051336 453.081081 251.153486 453.180964 252.255636 453.380729 253.357785L441.79436 252.15544C441.494712 252.15544 441.294947 252.355831 441.294947 252.556222 441.294947 252.856808 441.494712 253.057199 441.694477 253.057199L453.480611 254.259544C453.780259 255.46189 454.179788 256.664235 454.679201 257.766385L437.499412 257.766385C437.199765 257.766385 437 257.966776 437 258.267362 437 258.567948 437.199765 258.768339 437.499412 258.768339L455.178613 258.768339C455.777908 259.870489 456.377203 260.972639 457.076381 261.974593L441.694477 263.57772C441.39483 263.57772 441.195065 263.878306 441.294947 264.078697 441.294947 264.379284 441.494712 264.579674 441.79436 264.579674 441.79436 264.579674 441.79436 264.579674 441.79436 264.579674L457.775558 262.976547C457.775558 262.976547 457.775558 262.976547 457.775558 262.976547 457.775558 262.976547 457.775558 262.976547 457.775558 262.976547 463.368978 270.190619 472.757932 275 479.450059 275 486.741481 275 495.93067 270.190619 501.324324 262.976547L517.20564 264.479479C517.20564 264.479479 517.20564 264.479479 517.20564 264.479479 517.505288 264.479479 517.705053 264.279088 517.705053 263.978502 517.705053 263.677916 517.505288 263.477525 517.305523 263.477525L502.023502 261.974593C502.722679 260.972639 503.321974 259.870489 503.921269 258.768339L521.500588 258.768339C521.800235 258.768339 522 258.567948 522 258.267362 522 257.966776 521.800235 257.86658 521.60047 257.86658zM198.60047 109.86658L181.420682 109.86658C181.920094 108.76443 182.319624 107.562085 182.619271 106.259544L194.405405 105.157395C194.705053 105.157395 194.904818 104.856808 194.804935 104.656417 194.804935 104.355831 194.505288 104.15544 194.305523 104.255636L182.918919 105.357785C183.118684 104.255636 183.218566 103.153486 183.218566 102.051336 183.218566 97.8431276 182.119859 93.9355055 180.222092 90.4286651L182.819036 70.9907502C182.918919 70.2893821 182.319624 69.7884049 181.720329 70.0889912L163.341951 77.80404C161.244418 77.3030628 158.947121 77.0024765 156.649824 77.0024765 154.352526 77.0024765 152.055229 77.3030628 149.957697 77.80404L131.579318 70.0889912C130.980024 69.7884049 130.380729 70.3895776 130.480611 70.9907502L133.077556 90.4286651C131.179788 93.9355055 130.081081 97.8431276 130.081081 102.051336 130.081081 103.153486 130.180964 104.255636 130.380729 105.357785L118.79436 104.15544C118.494712 104.15544 118.294947 104.355831 118.294947 104.556222 118.294947 104.856808 118.494712 105.057199 118.694477 105.057199L130.480611 106.259544C130.780259 107.46189 131.179788 108.664235 131.679201 109.766385L114.499412 109.766385C114.199765 109.766385 114 109.966776 114 110.267362 114 110.567948 114.199765 110.768339 114.499412 110.768339L132.178613 110.768339C132.777908 111.870489 133.377203 112.972639 134.076381 113.974593L118.694477 115.57772C118.39483 115.57772 118.195065 115.878306 118.294947 116.078697 118.294947 116.379284 118.494712 116.579674 118.79436 116.579674 118.79436 116.579674 118.79436 116.579674 118.79436 116.579674L134.775558 114.976547C134.775558 114.976547 134.775558 114.976547 134.775558 114.976547 134.775558 114.976547 134.775558 114.976547 134.775558 114.976547 140.368978 122.190619 149.757932 127 156.450059 127 163.741481 127 172.93067 122.190619 178.324324 114.976547L194.20564 116.479479C194.20564 116.479479 194.20564 116.479479 194.20564 116.479479 194.505288 116.479479 194.705053 116.279088 194.705053 115.978502 194.705053 115.677916 194.505288 115.477525 194.305523 115.477525L179.023502 113.974593C179.722679 112.972639 180.321974 111.870489 180.921269 110.768339L198.500588 110.768339C198.800235 110.768339 199 110.567948 199 110.267362 199 109.966776 198.800235 109.86658 198.60047 109.86658zM324.60047 257.86658L307.420682 257.86658C307.920094 256.76443 308.319624 255.562085 308.619271 254.259544L320.405405 253.157395C320.705053 253.157395 320.904818 252.856808 320.804935 252.656417 320.804935 252.355831 320.505288 252.15544 320.305523 252.255636L308.918919 253.357785C309.118684 252.255636 309.218566 251.153486 309.218566 250.051336 309.218566 245.843128 308.119859 241.935505 306.222092 238.428665L308.819036 218.99075C308.918919 218.289382 308.319624 217.788405 307.720329 218.088991L289.341951 225.80404C287.244418 225.303063 284.947121 225.002476 282.649824 225.002476 280.352526 225.002476 278.055229 225.303063 275.957697 225.80404L257.579318 218.088991C256.980024 217.788405 256.380729 218.389578 256.480611 218.99075L259.077556 238.428665C257.179788 241.935505 256.081081 245.843128 256.081081 250.051336 256.081081 251.153486 256.180964 252.255636 256.380729 253.357785L244.79436 252.15544C244.494712 252.15544 244.294947 252.355831 244.294947 252.556222 244.294947 252.856808 244.494712 253.057199 244.694477 253.057199L256.480611 254.259544C256.780259 255.46189 257.179788 256.664235 257.679201 257.766385L240.499412 257.766385C240.199765 257.766385 240 257.966776 240 258.267362 240 258.567948 240.199765 258.768339 240.499412 258.768339L258.178613 258.768339C258.777908 259.870489 259.377203 260.972639 260.076381 261.974593L244.694477 263.57772C244.39483 263.57772 244.195065 263.878306 244.294947 264.078697 244.294947 264.379284 244.494712 264.579674 244.79436 264.579674 244.79436 264.579674 244.79436 264.579674 244.79436 264.579674L260.775558 262.976547C260.775558 262.976547 260.775558 262.976547 260.775558 262.976547 260.775558 262.976547 260.775558 262.976547 260.775558 262.976547 266.368978 270.190619 275.757932 275 282.450059 275 289.741481 275 298.93067 270.190619 304.324324 262.976547L320.20564 264.479479C320.20564 264.479479 320.20564 264.479479 320.20564 264.479479 320.505288 264.479479 320.705053 264.279088 320.705053 263.978502 320.705053 263.677916 320.505288 263.477525 320.305523 263.477525L305.023502 261.974593C305.722679 260.972639 306.321974 259.870489 306.921269 258.768339L324.500588 258.768339C324.800235 258.768339 325 258.567948 325 258.267362 325 257.966776 324.800235 257.86658 324.60047 257.86658zM394.473561 423.456026L371.836663 423.456026C372.494712 422.005829 373.021152 420.423796 373.415981 418.709927L388.945946 417.25973C389.340776 417.25973 389.603995 416.864221 389.472385 416.600549 389.472385 416.205041 389.077556 415.941369 388.814336 416.073205L373.810811 417.523402C374.074031 416.073205 374.20564 414.623008 374.20564 413.17281 374.20564 407.635694 372.757932 402.494086 370.257344 397.879823L373.679201 372.303619C373.810811 371.380766 373.021152 370.721585 372.231492 371.117094L348.015276 381.268474C345.251469 380.609293 342.224442 380.213785 339.197415 380.213785 336.170388 380.213785 333.143361 380.609293 330.379553 381.268474L306.163337 371.117094C305.373678 370.721585 304.584019 371.512602 304.715629 372.303619L308.137485 397.879823C305.636898 402.494086 304.189189 407.635694 304.189189 413.17281 304.189189 414.623008 304.320799 416.073205 304.584019 417.523402L289.317274 415.941369C288.922444 415.941369 288.659224 416.205041 288.659224 416.468713 288.659224 416.864221 288.922444 417.127894 289.185664 417.127894L304.715629 418.709927C305.110458 420.29196 305.636898 421.873993 306.294947 423.32419L283.658049 423.32419C283.26322 423.32419 283 423.587863 283 423.983371 283 424.378879 283.26322 424.642551 283.658049 424.642551L306.952996 424.642551C307.742656 426.092749 308.532315 427.542946 309.453584 428.861307L289.185664 430.970684C288.790834 430.970684 288.527615 431.366193 288.659224 431.629865 288.659224 432.025373 288.922444 432.289045 289.317274 432.289045 289.317274 432.289045 289.317274 432.289045 289.317274 432.289045L310.374853 430.179668C310.374853 430.179668 310.374853 430.179668 310.374853 430.179668 310.374853 430.179668 310.374853 430.179668 310.374853 430.179668 317.745006 439.671867 330.116334 446 338.934195 446 348.541716 446 360.649824 439.671867 367.756757 430.179668L388.682726 432.157209C388.682726 432.157209 388.682726 432.157209 388.682726 432.157209 389.077556 432.157209 389.340776 431.893537 389.340776 431.498029 389.340776 431.10252 389.077556 430.838848 388.814336 430.838848L368.678026 428.861307C369.599295 427.542946 370.388954 426.092749 371.178613 424.642551L394.341951 424.642551C394.73678 424.642551 395 424.378879 395 423.983371 395 423.587863 394.73678 423.456026 394.473561 423.456026zM660.60047 419.86658L643.420682 419.86658C643.920094 418.76443 644.319624 417.562085 644.619271 416.259544L656.405405 415.157395C656.705053 415.157395 656.904818 414.856808 656.804935 414.656417 656.804935 414.355831 656.505288 414.15544 656.305523 414.255636L644.918919 415.357785C645.118684 414.255636 645.218566 413.153486 645.218566 412.051336 645.218566 407.843128 644.119859 403.935505 642.222092 400.428665L644.819036 380.99075C644.918919 380.289382 644.319624 379.788405 643.720329 380.088991L625.341951 387.80404C623.244418 387.303063 620.947121 387.002476 618.649824 387.002476 616.352526 387.002476 614.055229 387.303063 611.957697 387.80404L593.579318 380.088991C592.980024 379.788405 592.380729 380.389578 592.480611 380.99075L595.077556 400.428665C593.179788 403.935505 592.081081 407.843128 592.081081 412.051336 592.081081 413.153486 592.180964 414.255636 592.380729 415.357785L580.79436 414.15544C580.494712 414.15544 580.294947 414.355831 580.294947 414.556222 580.294947 414.856808 580.494712 415.057199 580.694477 415.057199L592.480611 416.259544C592.780259 417.46189 593.179788 418.664235 593.679201 419.766385L576.499412 419.766385C576.199765 419.766385 576 419.966776 576 420.267362 576 420.567948 576.199765 420.768339 576.499412 420.768339L594.178613 420.768339C594.777908 421.870489 595.377203 422.972639 596.076381 423.974593L580.694477 425.57772C580.39483 425.57772 580.195065 425.878306 580.294947 426.078697 580.294947 426.379284 580.494712 426.579674 580.79436 426.579674 580.79436 426.579674 580.79436 426.579674 580.79436 426.579674L596.775558 424.976547C596.775558 424.976547 596.775558 424.976547 596.775558 424.976547 596.775558 424.976547 596.775558 424.976547 596.775558 424.976547 602.368978 432.190619 611.757932 437 618.450059 437 625.741481 437 634.93067 432.190619 640.324324 424.976547L656.20564 426.479479C656.20564 426.479479 656.20564 426.479479 656.20564 426.479479 656.505288 426.479479 656.705053 426.279088 656.705053 425.978502 656.705053 425.677916 656.505288 425.477525 656.305523 425.477525L641.023502 423.974593C641.722679 422.972639 642.321974 421.870489 642.921269 420.768339L660.500588 420.768339C660.800235 420.768339 661 420.567948 661 420.267362 661 419.966776 660.800235 419.86658 660.60047 419.86658zM556.60047 419.86658L539.420682 419.86658C539.920094 418.76443 540.319624 417.562085 540.619271 416.259544L552.405405 415.157395C552.705053 415.157395 552.904818 414.856808 552.804935 414.656417 552.804935 414.355831 552.505288 414.15544 552.305523 414.255636L540.918919 415.357785C541.118684 414.255636 541.218566 413.153486 541.218566 412.051336 541.218566 407.843128 540.119859 403.935505 538.222092 400.428665L540.819036 380.99075C540.918919 380.289382 540.319624 379.788405 539.720329 380.088991L521.341951 387.80404C519.244418 387.303063 516.947121 387.002476 514.649824 387.002476 512.352526 387.002476 510.055229 387.303063 507.957697 387.80404L489.579318 380.088991C488.980024 379.788405 488.380729 380.389578 488.480611 380.99075L491.077556 400.428665C489.179788 403.935505 488.081081 407.843128 488.081081 412.051336 488.081081 413.153486 488.180964 414.255636 488.380729 415.357785L476.79436 414.15544C476.494712 414.15544 476.294947 414.355831 476.294947 414.556222 476.294947 414.856808 476.494712 415.057199 476.694477 415.057199L488.480611 416.259544C488.780259 417.46189 489.179788 418.664235 489.679201 419.766385L472.499412 419.766385C472.199765 419.766385 472 419.966776 472 420.267362 472 420.567948 472.199765 420.768339 472.499412 420.768339L490.178613 420.768339C490.777908 421.870489 491.377203 422.972639 492.076381 423.974593L476.694477 425.57772C476.39483 425.57772 476.195065 425.878306 476.294947 426.078697 476.294947 426.379284 476.494712 426.579674 476.79436 426.579674 476.79436 426.579674 476.79436 426.579674 476.79436 426.579674L492.775558 424.976547C492.775558 424.976547 492.775558 424.976547 492.775558 424.976547 492.775558 424.976547 492.775558 424.976547 492.775558 424.976547 498.368978 432.190619 507.757932 437 514.450059 437 521.741481 437 530.93067 432.190619 536.324324 424.976547L552.20564 426.479479C552.20564 426.479479 552.20564 426.479479 552.20564 426.479479 552.505288 426.479479 552.705053 426.279088 552.705053 425.978502 552.705053 425.677916 552.505288 425.477525 552.305523 425.477525L537.023502 423.974593C537.722679 422.972639 538.321974 421.870489 538.921269 420.768339L556.500588 420.768339C556.800235 420.768339 557 420.567948 557 420.267362 557 419.966776 556.800235 419.86658 556.60047 419.86658zM788.473561 423.456026L765.836663 423.456026C766.494712 422.005829 767.021152 420.423796 767.415981 418.709927L782.945946 417.25973C783.340776 417.25973 783.603995 416.864221 783.472385 416.600549 783.472385 416.205041 783.077556 415.941369 782.814336 416.073205L767.810811 417.523402C768.074031 416.073205 768.20564 414.623008 768.20564 413.17281 768.20564 407.635694 766.757932 402.494086 764.257344 397.879823L767.679201 372.303619C767.810811 371.380766 767.021152 370.721585 766.231492 371.117094L742.015276 381.268474C739.251469 380.609293 736.224442 380.213785 733.197415 380.213785 730.170388 380.213785 727.143361 380.609293 724.379553 381.268474L700.163337 371.117094C699.373678 370.721585 698.584019 371.512602 698.715629 372.303619L702.137485 397.879823C699.636898 402.494086 698.189189 407.635694 698.189189 413.17281 698.189189 414.623008 698.320799 416.073205 698.584019 417.523402L683.317274 415.941369C682.922444 415.941369 682.659224 416.205041 682.659224 416.468713 682.659224 416.864221 682.922444 417.127894 683.185664 417.127894L698.715629 418.709927C699.110458 420.29196 699.636898 421.873993 700.294947 423.32419L677.658049 423.32419C677.26322 423.32419 677 423.587863 677 423.983371 677 424.378879 677.26322 424.642551 677.658049 424.642551L700.952996 424.642551C701.742656 426.092749 702.532315 427.542946 703.453584 428.861307L683.185664 430.970684C682.790834 430.970684 682.527615 431.366193 682.659224 431.629865 682.659224 432.025373 682.922444 432.289045 683.317274 432.289045 683.317274 432.289045 683.317274 432.289045 683.317274 432.289045L704.374853 430.179668C704.374853 430.179668 704.374853 430.179668 704.374853 430.179668 704.374853 430.179668 704.374853 430.179668 704.374853 430.179668 711.745006 439.671867 724.116334 446 732.934195 446 742.541716 446 754.649824 439.671867 761.756757 430.179668L782.682726 432.157209C782.682726 432.157209 782.682726 432.157209 782.682726 432.157209 783.077556 432.157209 783.340776 431.893537 783.340776 431.498029 783.340776 431.10252 783.077556 430.838848 782.814336 430.838848L762.678026 428.861307C763.599295 427.542946 764.388954 426.092749 765.178613 424.642551L788.341951 424.642551C788.73678 424.642551 789 424.378879 789 423.983371 789 423.587863 788.73678 423.456026 788.473561 423.456026zM668.60047 257.86658L651.420682 257.86658C651.920094 256.76443 652.319624 255.562085 652.619271 254.259544L664.405405 253.157395C664.705053 253.157395 664.904818 252.856808 664.804935 252.656417 664.804935 252.355831 664.505288 252.15544 664.305523 252.255636L652.918919 253.357785C653.118684 252.255636 653.218566 251.153486 653.218566 250.051336 653.218566 245.843128 652.119859 241.935505 650.222092 238.428665L652.819036 218.99075C652.918919 218.289382 652.319624 217.788405 651.720329 218.088991L633.341951 225.80404C631.244418 225.303063 628.947121 225.002476 626.649824 225.002476 624.352526 225.002476 622.055229 225.303063 619.957697 225.80404L601.579318 218.088991C600.980024 217.788405 600.380729 218.389578 600.480611 218.99075L603.077556 238.428665C601.179788 241.935505 600.081081 245.843128 600.081081 250.051336 600.081081 251.153486 600.180964 252.255636 600.380729 253.357785L588.79436 252.15544C588.494712 252.15544 588.294947 252.355831 588.294947 252.556222 588.294947 252.856808 588.494712 253.057199 588.694477 253.057199L600.480611 254.259544C600.780259 255.46189 601.179788 256.664235 601.679201 257.766385L584.499412 257.766385C584.199765 257.766385 584 257.966776 584 258.267362 584 258.567948 584.199765 258.768339 584.499412 258.768339L602.178613 258.768339C602.777908 259.870489 603.377203 260.972639 604.076381 261.974593L588.694477 263.57772C588.39483 263.57772 588.195065 263.878306 588.294947 264.078697 588.294947 264.379284 588.494712 264.579674 588.79436 264.579674 588.79436 264.579674 588.79436 264.579674 588.79436 264.579674L604.775558 262.976547C604.775558 262.976547 604.775558 262.976547 604.775558 262.976547 604.775558 262.976547 604.775558 262.976547 604.775558 262.976547 610.368978 270.190619 619.757932 275 626.450059 275 633.741481 275 642.93067 270.190619 648.324324 262.976547L664.20564 264.479479C664.20564 264.479479 664.20564 264.479479 664.20564 264.479479 664.505288 264.479479 664.705053 264.279088 664.705053 263.978502 664.705053 263.677916 664.505288 263.477525 664.305523 263.477525L649.023502 261.974593C649.722679 260.972639 650.321974 259.870489 650.921269 258.768339L668.500588 258.768339C668.800235 258.768339 669 258.567948 669 258.267362 669 257.966776 668.800235 257.86658 668.60047 257.86658zM283.60047 109.86658L266.420682 109.86658C266.920094 108.76443 267.319624 107.562085 267.619271 106.259544L279.405405 105.157395C279.705053 105.157395 279.904818 104.856808 279.804935 104.656417 279.804935 104.355831 279.505288 104.15544 279.305523 104.255636L267.918919 105.357785C268.118684 104.255636 268.218566 103.153486 268.218566 102.051336 268.218566 97.8431276 267.119859 93.9355055 265.222092 90.4286651L267.819036 70.9907502C267.918919 70.2893821 267.319624 69.7884049 266.720329 70.0889912L248.341951 77.80404C246.244418 77.3030628 243.947121 77.0024765 241.649824 77.0024765 239.352526 77.0024765 237.055229 77.3030628 234.957697 77.80404L216.579318 70.0889912C215.980024 69.7884049 215.380729 70.3895776 215.480611 70.9907502L218.077556 90.4286651C216.179788 93.9355055 215.081081 97.8431276 215.081081 102.051336 215.081081 103.153486 215.180964 104.255636 215.380729 105.357785L203.79436 104.15544C203.494712 104.15544 203.294947 104.355831 203.294947 104.556222 203.294947 104.856808 203.494712 105.057199 203.694477 105.057199L215.480611 106.259544C215.780259 107.46189 216.179788 108.664235 216.679201 109.766385L199.499412 109.766385C199.199765 109.766385 199 109.966776 199 110.267362 199 110.567948 199.199765 110.768339 199.499412 110.768339L217.178613 110.768339C217.777908 111.870489 218.377203 112.972639 219.076381 113.974593L203.694477 115.57772C203.39483 115.57772 203.195065 115.878306 203.294947 116.078697 203.294947 116.379284 203.494712 116.579674 203.79436 116.579674 203.79436 116.579674 203.79436 116.579674 203.79436 116.579674L219.775558 114.976547C219.775558 114.976547 219.775558 114.976547 219.775558 114.976547 219.775558 114.976547 219.775558 114.976547 219.775558 114.976547 225.368978 122.190619 234.757932 127 241.450059 127 248.741481 127 257.93067 122.190619 263.324324 114.976547L279.20564 116.479479C279.20564 116.479479 279.20564 116.479479 279.20564 116.479479 279.505288 116.479479 279.705053 116.279088 279.705053 115.978502 279.705053 115.677916 279.505288 115.477525 279.305523 115.477525L264.023502 113.974593C264.722679 112.972639 265.321974 111.870489 265.921269 110.768339L283.500588 110.768339C283.800235 110.768339 284 110.567948 284 110.267362 284 109.966776 283.800235 109.86658 283.60047 109.86658zM409.60047 257.86658L392.420682 257.86658C392.920094 256.76443 393.319624 255.562085 393.619271 254.259544L405.405405 253.157395C405.705053 253.157395 405.904818 252.856808 405.804935 252.656417 405.804935 252.355831 405.505288 252.15544 405.305523 252.255636L393.918919 253.357785C394.118684 252.255636 394.218566 251.153486 394.218566 250.051336 394.218566 245.843128 393.119859 241.935505 391.222092 238.428665L393.819036 218.99075C393.918919 218.289382 393.319624 217.788405 392.720329 218.088991L374.341951 225.80404C372.244418 225.303063 369.947121 225.002476 367.649824 225.002476 365.352526 225.002476 363.055229 225.303063 360.957697 225.80404L342.579318 218.088991C341.980024 217.788405 341.380729 218.389578 341.480611 218.99075L344.077556 238.428665C342.179788 241.935505 341.081081 245.843128 341.081081 250.051336 341.081081 251.153486 341.180964 252.255636 341.380729 253.357785L329.79436 252.15544C329.494712 252.15544 329.294947 252.355831 329.294947 252.556222 329.294947 252.856808 329.494712 253.057199 329.694477 253.057199L341.480611 254.259544C341.780259 255.46189 342.179788 256.664235 342.679201 257.766385L325.499412 257.766385C325.199765 257.766385 325 257.966776 325 258.267362 325 258.567948 325.199765 258.768339 325.499412 258.768339L343.178613 258.768339C343.777908 259.870489 344.377203 260.972639 345.076381 261.974593L329.694477 263.57772C329.39483 263.57772 329.195065 263.878306 329.294947 264.078697 329.294947 264.379284 329.494712 264.579674 329.79436 264.579674 329.79436 264.579674 329.79436 264.579674 329.79436 264.579674L345.775558 262.976547C345.775558 262.976547 345.775558 262.976547 345.775558 262.976547 345.775558 262.976547 345.775558 262.976547 345.775558 262.976547 351.368978 270.190619 360.757932 275 367.450059 275 374.741481 275 383.93067 270.190619 389.324324 262.976547L405.20564 264.479479C405.20564 264.479479 405.20564 264.479479 405.20564 264.479479 405.505288 264.479479 405.705053 264.279088 405.705053 263.978502 405.705053 263.677916 405.505288 263.477525 405.305523 263.477525L390.023502 261.974593C390.722679 260.972639 391.321974 259.870489 391.921269 258.768339L409.500588 258.768339C409.800235 258.768339 410 258.567948 410 258.267362 410 257.966776 409.800235 257.86658 409.60047 257.86658z"/>
    <g fill="#9B9B9B" fill-rule="nonzero" transform="translate(499 76)">
      <path d="M84.60047 39.8665801L67.4206816 39.8665801C67.920094 38.7644303 68.319624 37.562085 68.6192714 36.2595443L80.4054054 35.1573945C80.7050529 35.1573945 80.9048179 34.8568082 80.8049354 34.6564173 80.8049354 34.355831 80.5052879 34.1554401 80.3055229 34.2556356L68.9189189 35.3577854C69.1186839 34.2556356 69.2185664 33.1534858 69.2185664 32.051336 69.2185664 27.8431276 68.119859 23.9355055 66.2220917 20.4286651L68.8190364.990750187C68.9189189.289382122 68.319624-.211595068 67.720329.0889912458L49.3419506 7.80403997C47.2444183 7.30306278 44.947121 7.00247646 42.6498237 7.00247646 40.3525264 7.00247646 38.0552291 7.30306278 35.9576968 7.80403997L17.5793184.0889912458C16.9800235-.211595068 16.3807286.38957756 16.480611.990750187L19.0775558 20.4286651C17.1797885 23.9355055 16.0810811 27.8431276 16.0810811 32.051336 16.0810811 33.1534858 16.1809636 34.2556356 16.3807286 35.3577854L4.79435958 34.1554401C4.4947121 34.1554401 4.29494712 34.355831 4.29494712 34.5562219 4.29494712 34.8568082 4.4947121 35.0571991 4.69447709 35.0571991L16.480611 36.2595443C16.7802585 37.4618896 17.1797885 38.6642349 17.6792009 39.7663847L.499412456 39.7663847C.199764982 39.7663847 0 39.9667755 0 40.2673619 0 40.5679482.199764982 40.7683391.499412456 40.7683391L18.1786134 40.7683391C18.7779083 41.8704889 19.3772033 42.9726387 20.0763807 43.9745931L4.69447709 45.5777201C4.39482961 45.5777201 4.19506463 45.8783064 4.29494712 46.0786973 4.29494712 46.3792836 4.4947121 46.5796745 4.79435958 46.5796745 4.79435958 46.5796745 4.79435958 46.5796745 4.79435958 46.5796745L20.7755582 44.9765474C20.7755582 44.9765474 20.7755582 44.9765474 20.7755582 44.9765474 20.7755582 44.9765474 20.7755582 44.9765474 20.7755582 44.9765474 26.3689777 52.190619 35.7579318 57 42.4500588 57 49.7414806 57 58.9306698 52.190619 64.3243243 44.9765474L80.2056404 46.479479C80.2056404 46.479479 80.2056404 46.479479 80.2056404 46.479479 80.5052879 46.479479 80.7050529 46.2790881 80.7050529 45.9785018 80.7050529 45.6779155 80.5052879 45.4775246 80.3055229 45.4775246L65.0235018 43.9745931C65.7226792 42.9726387 66.3219741 41.8704889 66.9212691 40.7683391L84.5005875 40.7683391C84.800235 40.7683391 85 40.5679482 85 40.2673619 85 39.9667755 84.800235 39.8665801 84.60047 39.8665801zM169.60047 39.8665801L152.420682 39.8665801C152.920094 38.7644303 153.319624 37.562085 153.619271 36.2595443L165.405405 35.1573945C165.705053 35.1573945 165.904818 34.8568082 165.804935 34.6564173 165.804935 34.355831 165.505288 34.1554401 165.305523 34.2556356L153.918919 35.3577854C154.118684 34.2556356 154.218566 33.1534858 154.218566 32.051336 154.218566 27.8431276 153.119859 23.9355055 151.222092 20.4286651L153.819036.990750187C153.918919.289382122 153.319624-.211595068 152.720329.0889912458L134.341951 7.80403997C132.244418 7.30306278 129.947121 7.00247646 127.649824 7.00247646 125.352526 7.00247646 123.055229 7.30306278 120.957697 7.80403997L102.579318.0889912458C101.980024-.211595068 101.380729.38957756 101.480611.990750187L104.077556 20.4286651C102.179788 23.9355055 101.081081 27.8431276 101.081081 32.051336 101.081081 33.1534858 101.180964 34.2556356 101.380729 35.3577854L89.7943596 34.1554401C89.4947121 34.1554401 89.2949471 34.355831 89.2949471 34.5562219 89.2949471 34.8568082 89.4947121 35.0571991 89.6944771 35.0571991L101.480611 36.2595443C101.780259 37.4618896 102.179788 38.6642349 102.679201 39.7663847L85.4994125 39.7663847C85.199765 39.7663847 85 39.9667755 85 40.2673619 85 40.5679482 85.199765 40.7683391 85.4994125 40.7683391L103.178613 40.7683391C103.777908 41.8704889 104.377203 42.9726387 105.076381 43.9745931L89.6944771 45.5777201C89.3948296 45.5777201 89.1950646 45.8783064 89.2949471 46.0786973 89.2949471 46.3792836 89.4947121 46.5796745 89.7943596 46.5796745 89.7943596 46.5796745 89.7943596 46.5796745 89.7943596 46.5796745L105.775558 44.9765474C105.775558 44.9765474 105.775558 44.9765474 105.775558 44.9765474 105.775558 44.9765474 105.775558 44.9765474 105.775558 44.9765474 111.368978 52.190619 120.757932 57 127.450059 57 134.741481 57 143.93067 52.190619 149.324324 44.9765474L165.20564 46.479479C165.20564 46.479479 165.20564 46.479479 165.20564 46.479479 165.505288 46.479479 165.705053 46.2790881 165.705053 45.9785018 165.705053 45.6779155 165.505288 45.4775246 165.305523 45.4775246L150.023502 43.9745931C150.722679 42.9726387 151.321974 41.8704889 151.921269 40.7683391L169.500588 40.7683391C169.800235 40.7683391 170 40.5679482 170 40.2673619 170 39.9667755 169.800235 39.8665801 169.60047 39.8665801zM254.60047 39.8665801L237.420682 39.8665801C237.920094 38.7644303 238.319624 37.562085 238.619271 36.2595443L250.405405 35.1573945C250.705053 35.1573945 250.904818 34.8568082 250.804935 34.6564173 250.804935 34.355831 250.505288 34.1554401 250.305523 34.2556356L238.918919 35.3577854C239.118684 34.2556356 239.218566 33.1534858 239.218566 32.051336 239.218566 27.8431276 238.119859 23.9355055 236.222092 20.4286651L238.819036.990750187C238.918919.289382122 238.319624-.211595068 237.720329.0889912458L219.341951 7.80403997C217.244418 7.30306278 214.947121 7.00247646 212.649824 7.00247646 210.352526 7.00247646 208.055229 7.30306278 205.957697 7.80403997L187.579318.0889912458C186.980024-.211595068 186.380729.38957756 186.480611.990750187L189.077556 20.4286651C187.179788 23.9355055 186.081081 27.8431276 186.081081 32.051336 186.081081 33.1534858 186.180964 34.2556356 186.380729 35.3577854L174.79436 34.1554401C174.494712 34.1554401 174.294947 34.355831 174.294947 34.5562219 174.294947 34.8568082 174.494712 35.0571991 174.694477 35.0571991L186.480611 36.2595443C186.780259 37.4618896 187.179788 38.6642349 187.679201 39.7663847L170.499412 39.7663847C170.199765 39.7663847 170 39.9667755 170 40.2673619 170 40.5679482 170.199765 40.7683391 170.499412 40.7683391L188.178613 40.7683391C188.777908 41.8704889 189.377203 42.9726387 190.076381 43.9745931L174.694477 45.5777201C174.39483 45.5777201 174.195065 45.8783064 174.294947 46.0786973 174.294947 46.3792836 174.494712 46.5796745 174.79436 46.5796745 174.79436 46.5796745 174.79436 46.5796745 174.79436 46.5796745L190.775558 44.9765474C190.775558 44.9765474 190.775558 44.9765474 190.775558 44.9765474 190.775558 44.9765474 190.775558 44.9765474 190.775558 44.9765474 196.368978 52.190619 205.757932 57 212.450059 57 219.741481 57 228.93067 52.190619 234.324324 44.9765474L250.20564 46.479479C250.20564 46.479479 250.20564 46.479479 250.20564 46.479479 250.505288 46.479479 250.705053 46.2790881 250.705053 45.9785018 250.705053 45.6779155 250.505288 45.4775246 250.305523 45.4775246L235.023502 43.9745931C235.722679 42.9726387 236.321974 41.8704889 236.921269 40.7683391L254.500588 40.7683391C254.800235 40.7683391 255 40.5679482 255 40.2673619 255 39.9667755 254.800235 39.8665801 254.60047 39.8665801z"/>
    </g>
    <path fill="#9B9B9B" fill-rule="nonzero" d="M814.60047,257.86658 L797.420682,257.86658 C797.920094,256.76443 798.319624,255.562085 798.619271,254.259544 L810.405405,253.157395 C810.705053,253.157395 810.904818,252.856808 810.804935,252.656417 C810.804935,252.355831 810.505288,252.15544 810.305523,252.255636 L798.918919,253.357785 C799.118684,252.255636 799.218566,251.153486 799.218566,250.051336 C799.218566,245.843128 798.119859,241.935505 796.222092,238.428665 L798.819036,218.99075 C798.918919,218.289382 798.319624,217.788405 797.720329,218.088991 L779.341951,225.80404 C777.244418,225.303063 774.947121,225.002476 772.649824,225.002476 C770.352526,225.002476 768.055229,225.303063 765.957697,225.80404 L747.579318,218.088991 C746.980024,217.788405 746.380729,218.389578 746.480611,218.99075 L749.077556,238.428665 C747.179788,241.935505 746.081081,245.843128 746.081081,250.051336 C746.081081,251.153486 746.180964,252.255636 746.380729,253.357785 L734.79436,252.15544 C734.494712,252.15544 734.294947,252.355831 734.294947,252.556222 C734.294947,252.856808 734.494712,253.057199 734.694477,253.057199 L746.480611,254.259544 C746.780259,255.46189 747.179788,256.664235 747.679201,257.766385 L730.499412,257.766385 C730.199765,257.766385 730,257.966776 730,258.267362 C730,258.567948 730.199765,258.768339 730.499412,258.768339 L748.178613,258.768339 C748.777908,259.870489 749.377203,260.972639 750.076381,261.974593 L734.694477,263.57772 C734.39483,263.57772 734.195065,263.878306 734.294947,264.078697 C734.294947,264.379284 734.494712,264.579674 734.79436,264.579674 C734.79436,264.579674 734.79436,264.579674 734.79436,264.579674 L750.775558,262.976547 C750.775558,262.976547 750.775558,262.976547 750.775558,262.976547 C750.775558,262.976547 750.775558,262.976547 750.775558,262.976547 C756.368978,270.190619 765.757932,275 772.450059,275 C779.741481,275 788.93067,270.190619 794.324324,262.976547 L810.20564,264.479479 C810.20564,264.479479 810.20564,264.479479 810.20564,264.479479 C810.505288,264.479479 810.705053,264.279088 810.705053,263.978502 C810.705053,263.677916 810.505288,263.477525 810.305523,263.477525 L795.023502,261.974593 C795.722679,260.972639 796.321974,259.870489 796.921269,258.768339 L814.500588,258.768339 C814.800235,258.768339 815,258.567948 815,258.267362 C815,257.966776 814.800235,257.86658 814.60047,257.86658 Z"/>
    <text fill="#4A4A4A" font-family="Montserrat-Regular, Montserrat" font-size="24">
      <tspan x="17" y="39">flex-start (default)</tspan>
    </text>
    <text fill="#4A4A4A" font-family="Montserrat-Regular, Montserrat" font-size="24">
      <tspan x="23" y="187">flex-end</tspan>
    </text>
    <text fill="#4A4A4A" font-family="Montserrat-Regular, Montserrat" font-size="24">
      <tspan x="23" y="349">space-around</tspan>
    </text>
    <text fill="#4A4A4A" font-family="Montserrat-Regular, Montserrat" font-size="24">
      <tspan x="428" y="349">space-evenly</tspan>
    </text>
    <text fill="#4A4A4A" font-family="Montserrat-Regular, Montserrat" font-size="24">
      <tspan x="428" y="45">center</tspan>
    </text>
    <text fill="#4A4A4A" font-family="Montserrat-Regular, Montserrat" font-size="24">
      <tspan x="428" y="187">space-between</tspan>
    </text>
    <path stroke="pink" stroke-linecap="square" d="M27.5 405.5L65.5 405.5M129.5 404.25L175.5 404.25"/>
    <text fill="pink" font-family="Montserrat-Regular, Montserrat" font-size="15">
      <tspan x="134" y="399">46px</tspan>
    </text>
    <text fill="pink" font-family="Montserrat-Regular, Montserrat" font-size="15">
      <tspan x="251" y="400">59px</tspan>
    </text>
    <path stroke="pink" stroke-linecap="square" d="M240.5,404.25 L299.5,404.25"/>
    <text fill="pink" font-family="Montserrat-Regular, Montserrat" font-size="15">
      <tspan x="27" y="400">40px</tspan>
    </text>
    <text fill="pink" font-family="Montserrat-Regular, Montserrat" font-size="15">
      <tspan x="377" y="400">40px</tspan>
    </text>
    <path stroke="pink" stroke-linecap="square" d="M377.5 404.25L415.5 404.25M434 406L479 406M544 406L589 406M649 406L694 406M773 406L818 406"/>
    <text fill="pink" font-family="Montserrat-Regular, Montserrat" font-size="15">
      <tspan x="434" y="399">45px</tspan>
    </text>
    <text fill="pink" font-family="Montserrat-Regular, Montserrat" font-size="15">
      <tspan x="544" y="399">45px</tspan>
    </text>
    <text fill="pink" font-family="Montserrat-Regular, Montserrat" font-size="15">
      <tspan x="653" y="400">45px</tspan>
    </text>
    <text fill="pink" font-family="Montserrat-Regular, Montserrat" font-size="15">
      <tspan x="778" y="400">45px</tspan>
    </text>
  </g>
</svg>
