<svg xmlns="http://www.w3.org/2000/svg" width="385" height="190" viewBox="0 0 385 190">
  <g fill="none" fill-rule="evenodd">
    <g transform="translate(13 31)">
      <rect width="269" height="68" fill="#F7F7F7" fill-rule="nonzero"/>
      <path fill="#9B9B9B" fill-rule="nonzero" d="M67.7414806,41.8783064 L56.6251469,41.8783064 C56.9482961,41.1628758 57.2068155,40.3824061 57.4007051,39.5368972 L65.027027,38.8214666 C65.2209166,38.8214666 65.3501763,38.6263492 65.2855464,38.4962709 C65.2855464,38.3011535 65.0916569,38.1710752 64.9623972,38.2361143 L57.5945946,38.9515449 C57.7238543,38.2361143 57.7884841,37.5206837 57.7884841,36.8052532 C57.7884841,34.0736091 57.0775558,31.5370825 55.8495887,29.2607125 L57.5299647,16.6431185 C57.5945946,16.1878445 57.2068155,15.8626488 56.8190364,16.0577662 L44.9271445,21.0657803 C43.5699177,20.7405846 42.0834313,20.5454672 40.5969448,20.5454672 C39.1104583,20.5454672 37.6239718,20.7405846 36.266745,21.0657803 L24.3748531,16.0577662 C23.987074,15.8626488 23.5992949,16.2528837 23.6639248,16.6431185 L25.3443008,29.2607125 C24.1163337,31.5370825 23.4054054,34.0736091 23.4054054,36.8052532 C23.4054054,37.5206837 23.4700353,38.2361143 23.5992949,38.9515449 L16.1022327,38.1710752 C15.9083431,38.1710752 15.7790834,38.3011535 15.7790834,38.4312318 C15.7790834,38.6263492 15.9083431,38.7564275 16.0376028,38.7564275 L23.6639248,39.5368972 C23.8578143,40.3173669 24.1163337,41.0978367 24.439483,41.8132672 L13.3231492,41.8132672 C13.1292597,41.8132672 13,41.9433455 13,42.138463 C13,42.3335804 13.1292597,42.4636587 13.3231492,42.4636587 L24.7626322,42.4636587 C25.1504113,43.1790893 25.5381904,43.8945198 25.9905993,44.5449113 L16.0376028,45.5855376 C15.8437133,45.5855376 15.7144536,45.780655 15.7790834,45.9107333 C15.7790834,46.1058507 15.9083431,46.235929 16.1022327,46.235929 C16.1022327,46.235929 16.1022327,46.235929 16.1022327,46.235929 L26.4430082,45.1953027 C26.4430082,45.1953027 26.4430082,45.1953027 26.4430082,45.1953027 C26.4430082,45.1953027 26.4430082,45.1953027 26.4430082,45.1953027 C30.0622797,49.8781211 36.1374853,53 40.4676851,53 C45.1856639,53 51.1316099,49.8781211 54.6216216,45.1953027 L64.8977673,46.1708899 C64.8977673,46.1708899 64.8977673,46.1708899 64.8977673,46.1708899 C65.0916569,46.1708899 65.2209166,46.0408116 65.2209166,45.8456942 C65.2209166,45.6505767 65.0916569,45.5204984 64.9623972,45.5204984 L55.0740306,44.5449113 C55.5264395,43.8945198 55.9142186,43.1790893 56.3019976,42.4636587 L67.6768508,42.4636587 C67.8707403,42.4636587 68,42.3335804 68,42.138463 C68,41.9433455 67.8707403,41.8783064 67.7414806,41.8783064 Z"/>
      <text fill="#FFF" font-family="Montserrat-Regular, Montserrat" font-size="24">
        <tspan x="37" y="44">1</tspan>
      </text>
      <path fill="#9B9B9B" fill-rule="nonzero" d="M126.741481,41.8783064 L115.625147,41.8783064 C115.948296,41.1628758 116.206816,40.3824061 116.400705,39.5368972 L124.027027,38.8214666 C124.220917,38.8214666 124.350176,38.6263492 124.285546,38.4962709 C124.285546,38.3011535 124.091657,38.1710752 123.962397,38.2361143 L116.594595,38.9515449 C116.723854,38.2361143 116.788484,37.5206837 116.788484,36.8052532 C116.788484,34.0736091 116.077556,31.5370825 114.849589,29.2607125 L116.529965,16.6431185 C116.594595,16.1878445 116.206816,15.8626488 115.819036,16.0577662 L103.927145,21.0657803 C102.569918,20.7405846 101.083431,20.5454672 99.5969448,20.5454672 C98.1104583,20.5454672 96.6239718,20.7405846 95.266745,21.0657803 L83.3748531,16.0577662 C82.987074,15.8626488 82.5992949,16.2528837 82.6639248,16.6431185 L84.3443008,29.2607125 C83.1163337,31.5370825 82.4054054,34.0736091 82.4054054,36.8052532 C82.4054054,37.5206837 82.4700353,38.2361143 82.5992949,38.9515449 L75.1022327,38.1710752 C74.9083431,38.1710752 74.7790834,38.3011535 74.7790834,38.4312318 C74.7790834,38.6263492 74.9083431,38.7564275 75.0376028,38.7564275 L82.6639248,39.5368972 C82.8578143,40.3173669 83.1163337,41.0978367 83.439483,41.8132672 L72.3231492,41.8132672 C72.1292597,41.8132672 72,41.9433455 72,42.138463 C72,42.3335804 72.1292597,42.4636587 72.3231492,42.4636587 L83.7626322,42.4636587 C84.1504113,43.1790893 84.5381904,43.8945198 84.9905993,44.5449113 L75.0376028,45.5855376 C74.8437133,45.5855376 74.7144536,45.780655 74.7790834,45.9107333 C74.7790834,46.1058507 74.9083431,46.235929 75.1022327,46.235929 C75.1022327,46.235929 75.1022327,46.235929 75.1022327,46.235929 L85.4430082,45.1953027 C85.4430082,45.1953027 85.4430082,45.1953027 85.4430082,45.1953027 C85.4430082,45.1953027 85.4430082,45.1953027 85.4430082,45.1953027 C89.0622797,49.8781211 95.1374853,53 99.4676851,53 C104.185664,53 110.13161,49.8781211 113.621622,45.1953027 L123.897767,46.1708899 C123.897767,46.1708899 123.897767,46.1708899 123.897767,46.1708899 C124.091657,46.1708899 124.220917,46.0408116 124.220917,45.8456942 C124.220917,45.6505767 124.091657,45.5204984 123.962397,45.5204984 L114.074031,44.5449113 C114.526439,43.8945198 114.914219,43.1790893 115.301998,42.4636587 L126.676851,42.4636587 C126.87074,42.4636587 127,42.3335804 127,42.138463 C127,41.9433455 126.87074,41.8783064 126.741481,41.8783064 Z"/>
      <text fill="#FFF" font-family="Montserrat-Regular, Montserrat" font-size="24">
        <tspan x="96" y="44">1</tspan>
      </text>
      <path fill="#9B9B9B" fill-rule="nonzero" d="M185.741481,41.8783064 L174.625147,41.8783064 C174.948296,41.1628758 175.206816,40.3824061 175.400705,39.5368972 L183.027027,38.8214666 C183.220917,38.8214666 183.350176,38.6263492 183.285546,38.4962709 C183.285546,38.3011535 183.091657,38.1710752 182.962397,38.2361143 L175.594595,38.9515449 C175.723854,38.2361143 175.788484,37.5206837 175.788484,36.8052532 C175.788484,34.0736091 175.077556,31.5370825 173.849589,29.2607125 L175.529965,16.6431185 C175.594595,16.1878445 175.206816,15.8626488 174.819036,16.0577662 L162.927145,21.0657803 C161.569918,20.7405846 160.083431,20.5454672 158.596945,20.5454672 C157.110458,20.5454672 155.623972,20.7405846 154.266745,21.0657803 L142.374853,16.0577662 C141.987074,15.8626488 141.599295,16.2528837 141.663925,16.6431185 L143.344301,29.2607125 C142.116334,31.5370825 141.405405,34.0736091 141.405405,36.8052532 C141.405405,37.5206837 141.470035,38.2361143 141.599295,38.9515449 L134.102233,38.1710752 C133.908343,38.1710752 133.779083,38.3011535 133.779083,38.4312318 C133.779083,38.6263492 133.908343,38.7564275 134.037603,38.7564275 L141.663925,39.5368972 C141.857814,40.3173669 142.116334,41.0978367 142.439483,41.8132672 L131.323149,41.8132672 C131.12926,41.8132672 131,41.9433455 131,42.138463 C131,42.3335804 131.12926,42.4636587 131.323149,42.4636587 L142.762632,42.4636587 C143.150411,43.1790893 143.53819,43.8945198 143.990599,44.5449113 L134.037603,45.5855376 C133.843713,45.5855376 133.714454,45.780655 133.779083,45.9107333 C133.779083,46.1058507 133.908343,46.235929 134.102233,46.235929 C134.102233,46.235929 134.102233,46.235929 134.102233,46.235929 L144.443008,45.1953027 C144.443008,45.1953027 144.443008,45.1953027 144.443008,45.1953027 C144.443008,45.1953027 144.443008,45.1953027 144.443008,45.1953027 C148.06228,49.8781211 154.137485,53 158.467685,53 C163.185664,53 169.13161,49.8781211 172.621622,45.1953027 L182.897767,46.1708899 C182.897767,46.1708899 182.897767,46.1708899 182.897767,46.1708899 C183.091657,46.1708899 183.220917,46.0408116 183.220917,45.8456942 C183.220917,45.6505767 183.091657,45.5204984 182.962397,45.5204984 L173.074031,44.5449113 C173.526439,43.8945198 173.914219,43.1790893 174.301998,42.4636587 L185.676851,42.4636587 C185.87074,42.4636587 186,42.3335804 186,42.138463 C186,41.9433455 185.87074,41.8783064 185.741481,41.8783064 Z"/>
      <text fill="#FFF" font-family="Montserrat-Regular, Montserrat" font-size="24">
        <tspan x="155" y="44">1</tspan>
      </text>
      <path fill="#9B9B9B" fill-rule="nonzero" d="M244.741481,41.8783064 L233.625147,41.8783064 C233.948296,41.1628758 234.206816,40.3824061 234.400705,39.5368972 L242.027027,38.8214666 C242.220917,38.8214666 242.350176,38.6263492 242.285546,38.4962709 C242.285546,38.3011535 242.091657,38.1710752 241.962397,38.2361143 L234.594595,38.9515449 C234.723854,38.2361143 234.788484,37.5206837 234.788484,36.8052532 C234.788484,34.0736091 234.077556,31.5370825 232.849589,29.2607125 L234.529965,16.6431185 C234.594595,16.1878445 234.206816,15.8626488 233.819036,16.0577662 L221.927145,21.0657803 C220.569918,20.7405846 219.083431,20.5454672 217.596945,20.5454672 C216.110458,20.5454672 214.623972,20.7405846 213.266745,21.0657803 L201.374853,16.0577662 C200.987074,15.8626488 200.599295,16.2528837 200.663925,16.6431185 L202.344301,29.2607125 C201.116334,31.5370825 200.405405,34.0736091 200.405405,36.8052532 C200.405405,37.5206837 200.470035,38.2361143 200.599295,38.9515449 L193.102233,38.1710752 C192.908343,38.1710752 192.779083,38.3011535 192.779083,38.4312318 C192.779083,38.6263492 192.908343,38.7564275 193.037603,38.7564275 L200.663925,39.5368972 C200.857814,40.3173669 201.116334,41.0978367 201.439483,41.8132672 L190.323149,41.8132672 C190.12926,41.8132672 190,41.9433455 190,42.138463 C190,42.3335804 190.12926,42.4636587 190.323149,42.4636587 L201.762632,42.4636587 C202.150411,43.1790893 202.53819,43.8945198 202.990599,44.5449113 L193.037603,45.5855376 C192.843713,45.5855376 192.714454,45.780655 192.779083,45.9107333 C192.779083,46.1058507 192.908343,46.235929 193.102233,46.235929 C193.102233,46.235929 193.102233,46.235929 193.102233,46.235929 L203.443008,45.1953027 C203.443008,45.1953027 203.443008,45.1953027 203.443008,45.1953027 C203.443008,45.1953027 203.443008,45.1953027 203.443008,45.1953027 C207.06228,49.8781211 213.137485,53 217.467685,53 C222.185664,53 228.13161,49.8781211 231.621622,45.1953027 L241.897767,46.1708899 C241.897767,46.1708899 241.897767,46.1708899 241.897767,46.1708899 C242.091657,46.1708899 242.220917,46.0408116 242.220917,45.8456942 C242.220917,45.6505767 242.091657,45.5204984 241.962397,45.5204984 L232.074031,44.5449113 C232.526439,43.8945198 232.914219,43.1790893 233.301998,42.4636587 L244.676851,42.4636587 C244.87074,42.4636587 245,42.3335804 245,42.138463 C245,41.9433455 244.87074,41.8783064 244.741481,41.8783064 Z"/>
      <text fill="#FFF" font-family="Montserrat-Regular, Montserrat" font-size="24">
        <tspan x="211" y="44">2</tspan>
      </text>
    </g>
    <g transform="translate(13 113)">
      <rect width="269" height="68" fill="#F7F7F7" fill-rule="nonzero"/>
      <g transform="translate(13 16)">
        <path fill="#9B9B9B" fill-rule="nonzero" d="M54.7414806,25.8783064 L43.6251469,25.8783064 C43.9482961,25.1628758 44.2068155,24.3824061 44.4007051,23.5368972 L52.027027,22.8214666 C52.2209166,22.8214666 52.3501763,22.6263492 52.2855464,22.4962709 C52.2855464,22.3011535 52.0916569,22.1710752 51.9623972,22.2361143 L44.5945946,22.9515449 C44.7238543,22.2361143 44.7884841,21.5206837 44.7884841,20.8052532 C44.7884841,18.0736091 44.0775558,15.5370825 42.8495887,13.2607125 L44.5299647,0.643118543 C44.5945946,0.187844535 44.2068155,-0.137351185 43.8190364,0.0577662473 L31.9271445,5.06578033 C30.5699177,4.74058461 29.0834313,4.54546718 27.5969448,4.54546718 C26.1104583,4.54546718 24.6239718,4.74058461 23.266745,5.06578033 L11.3748531,0.0577662473 C10.987074,-0.137351185 10.5992949,0.252883679 10.6639248,0.643118543 L12.3443008,13.2607125 C11.1163337,15.5370825 10.4054054,18.0736091 10.4054054,20.8052532 C10.4054054,21.5206837 10.4700353,22.2361143 10.5992949,22.9515449 L3.10223267,22.1710752 C2.90834313,22.1710752 2.77908343,22.3011535 2.77908343,22.4312318 C2.77908343,22.6263492 2.90834313,22.7564275 3.03760282,22.7564275 L10.6639248,23.5368972 C10.8578143,24.3173669 11.1163337,25.0978367 11.439483,25.8132672 L0.323149236,25.8132672 C0.129259694,25.8132672 0,25.9433455 0,26.138463 C0,26.3335804 0.129259694,26.4636587 0.323149236,26.4636587 L11.7626322,26.4636587 C12.1504113,27.1790893 12.5381904,27.8945198 12.9905993,28.5449113 L3.03760282,29.5855376 C2.84371328,29.5855376 2.71445358,29.780655 2.77908343,29.9107333 C2.77908343,30.1058507 2.90834313,30.235929 3.10223267,30.235929 C3.10223267,30.235929 3.10223267,30.235929 3.10223267,30.235929 L13.4430082,29.1953027 C13.4430082,29.1953027 13.4430082,29.1953027 13.4430082,29.1953027 C13.4430082,29.1953027 13.4430082,29.1953027 13.4430082,29.1953027 C17.0622797,33.8781211 23.1374853,37 27.4676851,37 C32.1856639,37 38.1316099,33.8781211 41.6216216,29.1953027 L51.8977673,30.1708899 C51.8977673,30.1708899 51.8977673,30.1708899 51.8977673,30.1708899 C52.0916569,30.1708899 52.2209166,30.0408116 52.2209166,29.8456942 C52.2209166,29.6505767 52.0916569,29.5204984 51.9623972,29.5204984 L42.0740306,28.5449113 C42.5264395,27.8945198 42.9142186,27.1790893 43.3019976,26.4636587 L54.6768508,26.4636587 C54.8707403,26.4636587 55,26.3335804 55,26.138463 C55,25.9433455 54.8707403,25.8783064 54.7414806,25.8783064 Z"/>
        <text fill="#FFF" font-family="Montserrat-Regular, Montserrat" font-size="24">
          <tspan x="16" y="28">-1</tspan>
        </text>
      </g>
      <g transform="translate(72 16)">
        <path fill="#9B9B9B" fill-rule="nonzero" d="M54.7414806,25.8783064 L43.6251469,25.8783064 C43.9482961,25.1628758 44.2068155,24.3824061 44.4007051,23.5368972 L52.027027,22.8214666 C52.2209166,22.8214666 52.3501763,22.6263492 52.2855464,22.4962709 C52.2855464,22.3011535 52.0916569,22.1710752 51.9623972,22.2361143 L44.5945946,22.9515449 C44.7238543,22.2361143 44.7884841,21.5206837 44.7884841,20.8052532 C44.7884841,18.0736091 44.0775558,15.5370825 42.8495887,13.2607125 L44.5299647,0.643118543 C44.5945946,0.187844535 44.2068155,-0.137351185 43.8190364,0.0577662473 L31.9271445,5.06578033 C30.5699177,4.74058461 29.0834313,4.54546718 27.5969448,4.54546718 C26.1104583,4.54546718 24.6239718,4.74058461 23.266745,5.06578033 L11.3748531,0.0577662473 C10.987074,-0.137351185 10.5992949,0.252883679 10.6639248,0.643118543 L12.3443008,13.2607125 C11.1163337,15.5370825 10.4054054,18.0736091 10.4054054,20.8052532 C10.4054054,21.5206837 10.4700353,22.2361143 10.5992949,22.9515449 L3.10223267,22.1710752 C2.90834313,22.1710752 2.77908343,22.3011535 2.77908343,22.4312318 C2.77908343,22.6263492 2.90834313,22.7564275 3.03760282,22.7564275 L10.6639248,23.5368972 C10.8578143,24.3173669 11.1163337,25.0978367 11.439483,25.8132672 L0.323149236,25.8132672 C0.129259694,25.8132672 0,25.9433455 0,26.138463 C0,26.3335804 0.129259694,26.4636587 0.323149236,26.4636587 L11.7626322,26.4636587 C12.1504113,27.1790893 12.5381904,27.8945198 12.9905993,28.5449113 L3.03760282,29.5855376 C2.84371328,29.5855376 2.71445358,29.780655 2.77908343,29.9107333 C2.77908343,30.1058507 2.90834313,30.235929 3.10223267,30.235929 C3.10223267,30.235929 3.10223267,30.235929 3.10223267,30.235929 L13.4430082,29.1953027 C13.4430082,29.1953027 13.4430082,29.1953027 13.4430082,29.1953027 C13.4430082,29.1953027 13.4430082,29.1953027 13.4430082,29.1953027 C17.0622797,33.8781211 23.1374853,37 27.4676851,37 C32.1856639,37 38.1316099,33.8781211 41.6216216,29.1953027 L51.8977673,30.1708899 C51.8977673,30.1708899 51.8977673,30.1708899 51.8977673,30.1708899 C52.0916569,30.1708899 52.2209166,30.0408116 52.2209166,29.8456942 C52.2209166,29.6505767 52.0916569,29.5204984 51.9623972,29.5204984 L42.0740306,28.5449113 C42.5264395,27.8945198 42.9142186,27.1790893 43.3019976,26.4636587 L54.6768508,26.4636587 C54.8707403,26.4636587 55,26.3335804 55,26.138463 C55,25.9433455 54.8707403,25.8783064 54.7414806,25.8783064 Z"/>
        <text fill="#FFF" font-family="Montserrat-Regular, Montserrat" font-size="24">
          <tspan x="24" y="28">1</tspan>
        </text>
      </g>
      <g transform="translate(131 16)">
        <path fill="#9B9B9B" fill-rule="nonzero" d="M54.7414806,25.8783064 L43.6251469,25.8783064 C43.9482961,25.1628758 44.2068155,24.3824061 44.4007051,23.5368972 L52.027027,22.8214666 C52.2209166,22.8214666 52.3501763,22.6263492 52.2855464,22.4962709 C52.2855464,22.3011535 52.0916569,22.1710752 51.9623972,22.2361143 L44.5945946,22.9515449 C44.7238543,22.2361143 44.7884841,21.5206837 44.7884841,20.8052532 C44.7884841,18.0736091 44.0775558,15.5370825 42.8495887,13.2607125 L44.5299647,0.643118543 C44.5945946,0.187844535 44.2068155,-0.137351185 43.8190364,0.0577662473 L31.9271445,5.06578033 C30.5699177,4.74058461 29.0834313,4.54546718 27.5969448,4.54546718 C26.1104583,4.54546718 24.6239718,4.74058461 23.266745,5.06578033 L11.3748531,0.0577662473 C10.987074,-0.137351185 10.5992949,0.252883679 10.6639248,0.643118543 L12.3443008,13.2607125 C11.1163337,15.5370825 10.4054054,18.0736091 10.4054054,20.8052532 C10.4054054,21.5206837 10.4700353,22.2361143 10.5992949,22.9515449 L3.10223267,22.1710752 C2.90834313,22.1710752 2.77908343,22.3011535 2.77908343,22.4312318 C2.77908343,22.6263492 2.90834313,22.7564275 3.03760282,22.7564275 L10.6639248,23.5368972 C10.8578143,24.3173669 11.1163337,25.0978367 11.439483,25.8132672 L0.323149236,25.8132672 C0.129259694,25.8132672 0,25.9433455 0,26.138463 C0,26.3335804 0.129259694,26.4636587 0.323149236,26.4636587 L11.7626322,26.4636587 C12.1504113,27.1790893 12.5381904,27.8945198 12.9905993,28.5449113 L3.03760282,29.5855376 C2.84371328,29.5855376 2.71445358,29.780655 2.77908343,29.9107333 C2.77908343,30.1058507 2.90834313,30.235929 3.10223267,30.235929 C3.10223267,30.235929 3.10223267,30.235929 3.10223267,30.235929 L13.4430082,29.1953027 C13.4430082,29.1953027 13.4430082,29.1953027 13.4430082,29.1953027 C13.4430082,29.1953027 13.4430082,29.1953027 13.4430082,29.1953027 C17.0622797,33.8781211 23.1374853,37 27.4676851,37 C32.1856639,37 38.1316099,33.8781211 41.6216216,29.1953027 L51.8977673,30.1708899 C51.8977673,30.1708899 51.8977673,30.1708899 51.8977673,30.1708899 C52.0916569,30.1708899 52.2209166,30.0408116 52.2209166,29.8456942 C52.2209166,29.6505767 52.0916569,29.5204984 51.9623972,29.5204984 L42.0740306,28.5449113 C42.5264395,27.8945198 42.9142186,27.1790893 43.3019976,26.4636587 L54.6768508,26.4636587 C54.8707403,26.4636587 55,26.3335804 55,26.138463 C55,25.9433455 54.8707403,25.8783064 54.7414806,25.8783064 Z"/>
        <text fill="#FFF" font-family="Montserrat-Regular, Montserrat" font-size="24">
          <tspan x="24" y="28">1</tspan>
        </text>
      </g>
      <g transform="translate(190 16)">
        <path fill="#9B9B9B" fill-rule="nonzero" d="M54.7414806,25.8783064 L43.6251469,25.8783064 C43.9482961,25.1628758 44.2068155,24.3824061 44.4007051,23.5368972 L52.027027,22.8214666 C52.2209166,22.8214666 52.3501763,22.6263492 52.2855464,22.4962709 C52.2855464,22.3011535 52.0916569,22.1710752 51.9623972,22.2361143 L44.5945946,22.9515449 C44.7238543,22.2361143 44.7884841,21.5206837 44.7884841,20.8052532 C44.7884841,18.0736091 44.0775558,15.5370825 42.8495887,13.2607125 L44.5299647,0.643118543 C44.5945946,0.187844535 44.2068155,-0.137351185 43.8190364,0.0577662473 L31.9271445,5.06578033 C30.5699177,4.74058461 29.0834313,4.54546718 27.5969448,4.54546718 C26.1104583,4.54546718 24.6239718,4.74058461 23.266745,5.06578033 L11.3748531,0.0577662473 C10.987074,-0.137351185 10.5992949,0.252883679 10.6639248,0.643118543 L12.3443008,13.2607125 C11.1163337,15.5370825 10.4054054,18.0736091 10.4054054,20.8052532 C10.4054054,21.5206837 10.4700353,22.2361143 10.5992949,22.9515449 L3.10223267,22.1710752 C2.90834313,22.1710752 2.77908343,22.3011535 2.77908343,22.4312318 C2.77908343,22.6263492 2.90834313,22.7564275 3.03760282,22.7564275 L10.6639248,23.5368972 C10.8578143,24.3173669 11.1163337,25.0978367 11.439483,25.8132672 L0.323149236,25.8132672 C0.129259694,25.8132672 0,25.9433455 0,26.138463 C0,26.3335804 0.129259694,26.4636587 0.323149236,26.4636587 L11.7626322,26.4636587 C12.1504113,27.1790893 12.5381904,27.8945198 12.9905993,28.5449113 L3.03760282,29.5855376 C2.84371328,29.5855376 2.71445358,29.780655 2.77908343,29.9107333 C2.77908343,30.1058507 2.90834313,30.235929 3.10223267,30.235929 C3.10223267,30.235929 3.10223267,30.235929 3.10223267,30.235929 L13.4430082,29.1953027 C13.4430082,29.1953027 13.4430082,29.1953027 13.4430082,29.1953027 C13.4430082,29.1953027 13.4430082,29.1953027 13.4430082,29.1953027 C17.0622797,33.8781211 23.1374853,37 27.4676851,37 C32.1856639,37 38.1316099,33.8781211 41.6216216,29.1953027 L51.8977673,30.1708899 C51.8977673,30.1708899 51.8977673,30.1708899 51.8977673,30.1708899 C52.0916569,30.1708899 52.2209166,30.0408116 52.2209166,29.8456942 C52.2209166,29.6505767 52.0916569,29.5204984 51.9623972,29.5204984 L42.0740306,28.5449113 C42.5264395,27.8945198 42.9142186,27.1790893 43.3019976,26.4636587 L54.6768508,26.4636587 C54.8707403,26.4636587 55,26.3335804 55,26.138463 C55,25.9433455 54.8707403,25.8783064 54.7414806,25.8783064 Z"/>
        <text fill="#FFF" font-family="Montserrat-Regular, Montserrat" font-size="24">
          <tspan x="21" y="28">7</tspan>
        </text>
      </g>
    </g>
    <rect width="61" height="169" x="307" y="12" fill="#F7F7F7" fill-rule="nonzero"/>
    <g transform="translate(310 28)">
      <path fill="#9B9B9B" fill-rule="nonzero" d="M54.7414806,25.8783064 L43.6251469,25.8783064 C43.9482961,25.1628758 44.2068155,24.3824061 44.4007051,23.5368972 L52.027027,22.8214666 C52.2209166,22.8214666 52.3501763,22.6263492 52.2855464,22.4962709 C52.2855464,22.3011535 52.0916569,22.1710752 51.9623972,22.2361143 L44.5945946,22.9515449 C44.7238543,22.2361143 44.7884841,21.5206837 44.7884841,20.8052532 C44.7884841,18.0736091 44.0775558,15.5370825 42.8495887,13.2607125 L44.5299647,0.643118543 C44.5945946,0.187844535 44.2068155,-0.137351185 43.8190364,0.0577662473 L31.9271445,5.06578033 C30.5699177,4.74058461 29.0834313,4.54546718 27.5969448,4.54546718 C26.1104583,4.54546718 24.6239718,4.74058461 23.266745,5.06578033 L11.3748531,0.0577662473 C10.987074,-0.137351185 10.5992949,0.252883679 10.6639248,0.643118543 L12.3443008,13.2607125 C11.1163337,15.5370825 10.4054054,18.0736091 10.4054054,20.8052532 C10.4054054,21.5206837 10.4700353,22.2361143 10.5992949,22.9515449 L3.10223267,22.1710752 C2.90834313,22.1710752 2.77908343,22.3011535 2.77908343,22.4312318 C2.77908343,22.6263492 2.90834313,22.7564275 3.03760282,22.7564275 L10.6639248,23.5368972 C10.8578143,24.3173669 11.1163337,25.0978367 11.439483,25.8132672 L0.323149236,25.8132672 C0.129259694,25.8132672 0,25.9433455 0,26.138463 C0,26.3335804 0.129259694,26.4636587 0.323149236,26.4636587 L11.7626322,26.4636587 C12.1504113,27.1790893 12.5381904,27.8945198 12.9905993,28.5449113 L3.03760282,29.5855376 C2.84371328,29.5855376 2.71445358,29.780655 2.77908343,29.9107333 C2.77908343,30.1058507 2.90834313,30.235929 3.10223267,30.235929 C3.10223267,30.235929 3.10223267,30.235929 3.10223267,30.235929 L13.4430082,29.1953027 C13.4430082,29.1953027 13.4430082,29.1953027 13.4430082,29.1953027 C13.4430082,29.1953027 13.4430082,29.1953027 13.4430082,29.1953027 C17.0622797,33.8781211 23.1374853,37 27.4676851,37 C32.1856639,37 38.1316099,33.8781211 41.6216216,29.1953027 L51.8977673,30.1708899 C51.8977673,30.1708899 51.8977673,30.1708899 51.8977673,30.1708899 C52.0916569,30.1708899 52.2209166,30.0408116 52.2209166,29.8456942 C52.2209166,29.6505767 52.0916569,29.5204984 51.9623972,29.5204984 L42.0740306,28.5449113 C42.5264395,27.8945198 42.9142186,27.1790893 43.3019976,26.4636587 L54.6768508,26.4636587 C54.8707403,26.4636587 55,26.3335804 55,26.138463 C55,25.9433455 54.8707403,25.8783064 54.7414806,25.8783064 Z"/>
      <text fill="#FFF" font-family="Montserrat-Regular, Montserrat" font-size="24">
        <tspan x="24" y="28">1</tspan>
      </text>
      <g transform="translate(0 48)">
        <path fill="#9B9B9B" fill-rule="nonzero" d="M54.7414806,25.8783064 L43.6251469,25.8783064 C43.9482961,25.1628758 44.2068155,24.3824061 44.4007051,23.5368972 L52.027027,22.8214666 C52.2209166,22.8214666 52.3501763,22.6263492 52.2855464,22.4962709 C52.2855464,22.3011535 52.0916569,22.1710752 51.9623972,22.2361143 L44.5945946,22.9515449 C44.7238543,22.2361143 44.7884841,21.5206837 44.7884841,20.8052532 C44.7884841,18.0736091 44.0775558,15.5370825 42.8495887,13.2607125 L44.5299647,0.643118543 C44.5945946,0.187844535 44.2068155,-0.137351185 43.8190364,0.0577662473 L31.9271445,5.06578033 C30.5699177,4.74058461 29.0834313,4.54546718 27.5969448,4.54546718 C26.1104583,4.54546718 24.6239718,4.74058461 23.266745,5.06578033 L11.3748531,0.0577662473 C10.987074,-0.137351185 10.5992949,0.252883679 10.6639248,0.643118543 L12.3443008,13.2607125 C11.1163337,15.5370825 10.4054054,18.0736091 10.4054054,20.8052532 C10.4054054,21.5206837 10.4700353,22.2361143 10.5992949,22.9515449 L3.10223267,22.1710752 C2.90834313,22.1710752 2.77908343,22.3011535 2.77908343,22.4312318 C2.77908343,22.6263492 2.90834313,22.7564275 3.03760282,22.7564275 L10.6639248,23.5368972 C10.8578143,24.3173669 11.1163337,25.0978367 11.439483,25.8132672 L0.323149236,25.8132672 C0.129259694,25.8132672 0,25.9433455 0,26.138463 C0,26.3335804 0.129259694,26.4636587 0.323149236,26.4636587 L11.7626322,26.4636587 C12.1504113,27.1790893 12.5381904,27.8945198 12.9905993,28.5449113 L3.03760282,29.5855376 C2.84371328,29.5855376 2.71445358,29.780655 2.77908343,29.9107333 C2.77908343,30.1058507 2.90834313,30.235929 3.10223267,30.235929 C3.10223267,30.235929 3.10223267,30.235929 3.10223267,30.235929 L13.4430082,29.1953027 C13.4430082,29.1953027 13.4430082,29.1953027 13.4430082,29.1953027 C13.4430082,29.1953027 13.4430082,29.1953027 13.4430082,29.1953027 C17.0622797,33.8781211 23.1374853,37 27.4676851,37 C32.1856639,37 38.1316099,33.8781211 41.6216216,29.1953027 L51.8977673,30.1708899 C51.8977673,30.1708899 51.8977673,30.1708899 51.8977673,30.1708899 C52.0916569,30.1708899 52.2209166,30.0408116 52.2209166,29.8456942 C52.2209166,29.6505767 52.0916569,29.5204984 51.9623972,29.5204984 L42.0740306,28.5449113 C42.5264395,27.8945198 42.9142186,27.1790893 43.3019976,26.4636587 L54.6768508,26.4636587 C54.8707403,26.4636587 55,26.3335804 55,26.138463 C55,25.9433455 54.8707403,25.8783064 54.7414806,25.8783064 Z"/>
        <text fill="#FFF" font-family="Montserrat-Regular, Montserrat" font-size="24">
          <tspan x="24" y="28">1</tspan>
        </text>
      </g>
      <g transform="translate(0 99)">
        <path fill="#9B9B9B" fill-rule="nonzero" d="M54.7414806,25.8783064 L43.6251469,25.8783064 C43.9482961,25.1628758 44.2068155,24.3824061 44.4007051,23.5368972 L52.027027,22.8214666 C52.2209166,22.8214666 52.3501763,22.6263492 52.2855464,22.4962709 C52.2855464,22.3011535 52.0916569,22.1710752 51.9623972,22.2361143 L44.5945946,22.9515449 C44.7238543,22.2361143 44.7884841,21.5206837 44.7884841,20.8052532 C44.7884841,18.0736091 44.0775558,15.5370825 42.8495887,13.2607125 L44.5299647,0.643118543 C44.5945946,0.187844535 44.2068155,-0.137351185 43.8190364,0.0577662473 L31.9271445,5.06578033 C30.5699177,4.74058461 29.0834313,4.54546718 27.5969448,4.54546718 C26.1104583,4.54546718 24.6239718,4.74058461 23.266745,5.06578033 L11.3748531,0.0577662473 C10.987074,-0.137351185 10.5992949,0.252883679 10.6639248,0.643118543 L12.3443008,13.2607125 C11.1163337,15.5370825 10.4054054,18.0736091 10.4054054,20.8052532 C10.4054054,21.5206837 10.4700353,22.2361143 10.5992949,22.9515449 L3.10223267,22.1710752 C2.90834313,22.1710752 2.77908343,22.3011535 2.77908343,22.4312318 C2.77908343,22.6263492 2.90834313,22.7564275 3.03760282,22.7564275 L10.6639248,23.5368972 C10.8578143,24.3173669 11.1163337,25.0978367 11.439483,25.8132672 L0.323149236,25.8132672 C0.129259694,25.8132672 0,25.9433455 0,26.138463 C0,26.3335804 0.129259694,26.4636587 0.323149236,26.4636587 L11.7626322,26.4636587 C12.1504113,27.1790893 12.5381904,27.8945198 12.9905993,28.5449113 L3.03760282,29.5855376 C2.84371328,29.5855376 2.71445358,29.780655 2.77908343,29.9107333 C2.77908343,30.1058507 2.90834313,30.235929 3.10223267,30.235929 C3.10223267,30.235929 3.10223267,30.235929 3.10223267,30.235929 L13.4430082,29.1953027 C13.4430082,29.1953027 13.4430082,29.1953027 13.4430082,29.1953027 C13.4430082,29.1953027 13.4430082,29.1953027 13.4430082,29.1953027 C17.0622797,33.8781211 23.1374853,37 27.4676851,37 C32.1856639,37 38.1316099,33.8781211 41.6216216,29.1953027 L51.8977673,30.1708899 C51.8977673,30.1708899 51.8977673,30.1708899 51.8977673,30.1708899 C52.0916569,30.1708899 52.2209166,30.0408116 52.2209166,29.8456942 C52.2209166,29.6505767 52.0916569,29.5204984 51.9623972,29.5204984 L42.0740306,28.5449113 C42.5264395,27.8945198 42.9142186,27.1790893 43.3019976,26.4636587 L54.6768508,26.4636587 C54.8707403,26.4636587 55,26.3335804 55,26.138463 C55,25.9433455 54.8707403,25.8783064 54.7414806,25.8783064 Z"/>
        <text fill="#FFF" font-family="Montserrat-Regular, Montserrat" font-size="24">
          <tspan x="21" y="27">3</tspan>
        </text>
      </g>
    </g>
  </g>
</svg>
